<svg width="164" height="58" viewBox="0 0 164 58" fill="none" xmlns="http://www.w3.org/2000/svg">
<rect width="164" height="50" fill="white"/>
<path d="M20.2812 26.7988C18.7801 26.0694 18.7801 23.9306 20.2812 23.2012L37.418 14.877C39.1292 14.0458 40.9252 15.8484 40.0879 17.5566L37.7334 22.3594C36.9171 24.0251 36.9171 25.9749 37.7334 27.6406L40.0879 32.4434C40.9252 34.1516 39.1292 35.9542 37.418 35.123L20.2812 26.7988Z" stroke="#0A001A" stroke-width="4"/>
<path d="M81.0312 13.5859H98.6094L93.2188 38.9766H67.8281L73.2188 13.5859H79.0781L74.9375 33.1172H88.6094L91.5 19.4453H79.7812L81.0312 13.5859ZM120.562 38.9766H95.1719L98.4922 23.3516H118.023L118.844 19.4453H99.3125L100.562 13.5859H125.953L122.633 29.2109H103.102L102.281 33.1172H121.812L120.562 38.9766ZM153.297 13.5859L152.047 19.4453H132.516L131.695 23.3516H151.227L147.906 38.9766H122.516L123.766 33.1172H143.297L144.117 29.2109H124.586L127.906 13.5859H153.297Z" fill="#0A001A"/>
<path d="M64.79 57.037L69.5143 54H73.9011L69.1769 57.037H64.79Z" fill="white"/>
<path d="M72.8887 57.037L77.613 54H81.9998L77.2755 57.037H72.8887Z" fill="white"/>
<path d="M80.9878 57.037L85.7121 54H90.0989L85.3746 57.037H80.9878Z" fill="white"/>
<path d="M89.0864 57.037L93.8107 54H98.1975L93.4733 57.037H89.0864Z" fill="white"/>
<path d="M97.1851 57.037L101.909 54H106.296L101.572 57.037H97.1851Z" fill="white"/>
<path d="M105.284 57.037L110.008 54H114.395L109.671 57.037H105.284Z" fill="white"/>
<path d="M113.383 57.037L118.107 54H122.494L117.77 57.037H113.383Z" fill="white"/>
<path d="M56.6914 57.037L61.4157 54H65.8025L61.0782 57.037H56.6914Z" fill="white"/>
<path d="M48.5928 57.037L53.3171 54H57.7039L52.9796 57.037H48.5928Z" fill="white"/>
<path d="M40.4937 57.037L45.2179 54H49.6048L44.8805 57.037H40.4937Z" fill="white"/>
<path d="M32.395 57.037L37.1193 54H41.5061L36.7819 57.037H32.395Z" fill="white"/>
<path d="M24.2964 57.037L29.0207 54H33.4075L28.6832 57.037H24.2964Z" fill="white"/>
<path d="M16.1978 57.037L20.922 54H25.3089L20.5846 57.037H16.1978Z" fill="white"/>
<path d="M8.09863 57.037L12.8229 54H17.2097L12.4855 57.037H8.09863Z" fill="white"/>
<path d="M0 57.037L4.72428 54H9.11111L4.38683 57.037H0Z" fill="white"/>
<path d="M154.889 57.037L159.613 54H164L159.276 57.037H154.889Z" fill="white"/>
<path d="M146.79 57.037L151.514 54H155.901L151.177 57.037H146.79Z" fill="white"/>
<path d="M138.691 57.037L143.416 54H147.803L143.078 57.037H138.691Z" fill="white"/>
<path d="M130.592 57.037L135.317 54H139.703L134.979 57.037H130.592Z" fill="white"/>
<path d="M122.494 57.037L127.218 54H131.605L126.88 57.037H122.494Z" fill="white"/>
</svg>
