<svg width="898" height="136" viewBox="0 0 898 136" fill="none" xmlns="http://www.w3.org/2000/svg">
<path d="M863.513 135.35V53.1494L897.188 17.487V135.35H863.513ZM817.5 34.3245L852.5 1.64941L897.188 0.649414L863.513 34.3245H817.5Z" fill="white"/>
<path d="M749 73.6568V52.6436H814.195V73.6568H749Z" fill="white"/>
<path d="M616.513 84.8372V51.1621H683.863V84.8372H616.513ZM566 135.35V34.3245L599.675 0.649414H734.376V34.3245H599.675V101.675H734.376L700.701 135.35H566Z" fill="white"/>
<path d="M508.535 135.35L441.184 67.9997H491.697L559.047 135.35H508.535ZM373.834 135.35V0.649414H542.21V34.3245H407.509V101.675H458.022L491.697 135.35H373.834Z" fill="white"/>
<path d="M213.675 135.35L180 101.675V0.649414L213.675 34.3245V101.675H314.701L348.376 135.35H213.675ZM365.213 135.35L331.538 101.675V34.3245H230.513L196.838 0.649414H365.213V135.35Z" fill="white"/>
<path d="M0 135.35V0.649414H67.3503L202.051 135.35H151.538L50.5127 34.3245H33.6751V101.675H101.025L134.701 135.35H0Z" fill="white"/>
</svg>
