<svg width="266" height="16" viewBox="0 0 266 16" fill="none" xmlns="http://www.w3.org/2000/svg">
<path d="M33.0814 15.2387C32.6151 15.2387 32.1912 14.7778 32.1912 14.2709V1.50583C32.1912 0.998908 32.6151 0.538086 33.0814 0.538086C33.5901 0.538086 33.9716 0.998908 33.9716 1.50583V14.2709C33.9716 14.7778 33.5901 15.2387 33.0814 15.2387Z" fill="white"/>
<path d="M35.7503 15.2387C35.2416 15.2387 34.8601 14.7778 34.8601 14.2709V1.50583C34.8601 0.998908 35.2416 0.538086 35.7503 0.538086C36.2167 0.538086 36.6406 0.998908 36.6406 1.50583V14.2709C36.6406 14.7778 36.2167 15.2387 35.7503 15.2387Z" fill="white"/>
<path d="M38.3789 15.2387C37.9125 15.2387 37.531 14.7778 37.531 14.2709V1.50583C37.531 0.998908 37.9125 0.538086 38.3789 0.538086C38.8876 0.538086 39.2691 0.998908 39.2691 1.50583V14.2709C39.2691 14.7778 38.8876 15.2387 38.3789 15.2387Z" fill="white"/>
<path d="M41.0514 15.2387C40.585 15.2387 40.1611 14.7778 40.1611 14.2709V1.50583C40.1611 0.998908 40.585 0.538086 41.0514 0.538086C41.5601 0.538086 41.9416 0.998908 41.9416 1.50583V14.2709C41.9416 14.7778 41.5601 15.2387 41.0514 15.2387Z" fill="white"/>
<path d="M43.7201 15.2387C43.2114 15.2387 42.8298 14.7778 42.8298 14.2709V1.50583C42.8298 0.998908 43.2114 0.538086 43.7201 0.538086C44.1864 0.538086 44.6103 0.998908 44.6103 1.50583V14.2709C44.6103 14.7778 44.1864 15.2387 43.7201 15.2387Z" fill="white"/>
<path d="M46.3912 15.2387C45.8825 15.2387 45.501 14.7778 45.501 14.2709V1.50583C45.501 0.998908 45.8825 0.538086 46.3912 0.538086C46.8576 0.538086 47.2815 0.998908 47.2815 1.50583V14.2709C47.2815 14.7778 46.8576 15.2387 46.3912 15.2387Z" fill="white"/>
<path d="M49.0189 15.2387C48.5526 15.2387 48.1287 14.7778 48.1287 14.2709V1.50583C48.1287 0.998908 48.5526 0.538086 49.0189 0.538086C49.5276 0.538086 49.9092 0.998908 49.9092 1.50583V14.2709C49.9092 14.7778 49.5276 15.2387 49.0189 15.2387Z" fill="white"/>
<path d="M51.6901 15.2387C51.2237 15.2387 50.7998 14.7778 50.7998 14.2709V1.50583C50.7998 0.998908 51.2237 0.538086 51.6901 0.538086C52.1988 0.538086 52.5803 0.998908 52.5803 1.50583V14.2709C52.5803 14.7778 52.1988 15.2387 51.6901 15.2387Z" fill="white"/>
<path d="M54.361 15.2387C53.8523 15.2387 53.4707 14.7778 53.4707 14.2709V1.50583C53.4707 0.998908 53.8523 0.538086 54.361 0.538086C54.8273 0.538086 55.2512 0.998908 55.2512 1.50583V14.2709C55.2512 14.7778 54.8273 15.2387 54.361 15.2387Z" fill="white"/>
<path d="M56.9897 15.2387C56.5234 15.2387 56.1418 14.7778 56.1418 14.2709V1.50583C56.1418 0.998908 56.5234 0.538086 56.9897 0.538086C57.4984 0.538086 57.8799 0.998908 57.8799 1.50583V14.2709C57.8799 14.7778 57.4984 15.2387 56.9897 15.2387Z" fill="white"/>
<path d="M59.66 15.2387C59.1937 15.2387 58.7698 14.7778 58.7698 14.2709V1.50583C58.7698 0.998908 59.1937 0.538086 59.66 0.538086C60.1687 0.538086 60.5503 0.998908 60.5503 1.50583V14.2709C60.5503 14.7778 60.1687 15.2387 59.66 15.2387Z" fill="white"/>
<path d="M62.3309 15.2387C61.8222 15.2387 61.4407 14.7778 61.4407 14.2709V1.50583C61.4407 0.998908 61.8222 0.538086 62.3309 0.538086C62.7972 0.538086 63.2211 0.998908 63.2211 1.50583V14.2709C63.2211 14.7778 62.7972 15.2387 62.3309 15.2387Z" fill="white"/>
<path d="M65.0021 15.2387C64.4934 15.2387 64.1118 14.7778 64.1118 14.2709V1.50583C64.1118 0.998908 64.4934 0.538086 65.0021 0.538086C65.4684 0.538086 65.8923 0.998908 65.8923 1.50583V14.2709C65.8923 14.7778 65.4684 15.2387 65.0021 15.2387Z" fill="white"/>
<path d="M67.6297 15.2387C67.1634 15.2387 66.7395 14.7778 66.7395 14.2709V1.50583C66.7395 0.998908 67.1634 0.538086 67.6297 0.538086C68.1384 0.538086 68.52 0.998908 68.52 1.50583V14.2709C68.52 14.7778 68.1384 15.2387 67.6297 15.2387Z" fill="white"/>
<path d="M70.3007 15.2387C69.8344 15.2387 69.4104 14.7778 69.4104 14.2709V1.50583C69.4104 0.998908 69.8344 0.538086 70.3007 0.538086C70.767 0.538086 71.1909 0.998908 71.1909 1.50583V14.2709C71.1909 14.7778 70.767 15.2387 70.3007 15.2387Z" fill="white"/>
<path d="M72.9718 15.2387C72.4631 15.2387 72.0815 14.7778 72.0815 14.2709V1.50583C72.0815 0.998908 72.4631 0.538086 72.9718 0.538086C73.4381 0.538086 73.862 0.998908 73.862 1.50583V14.2709C73.862 14.7778 73.4381 15.2387 72.9718 15.2387Z" fill="white"/>
<path d="M75.6003 15.2387C75.134 15.2387 74.7524 14.7778 74.7524 14.2709V1.50583C74.7524 0.998908 75.134 0.538086 75.6003 0.538086C76.109 0.538086 76.4905 0.998908 76.4905 1.50583V14.2709C76.4905 14.7778 76.109 15.2387 75.6003 15.2387Z" fill="white"/>
<path d="M78.2706 15.2387C77.8043 15.2387 77.3804 14.7778 77.3804 14.2709V1.50583C77.3804 0.998908 77.8043 0.538086 78.2706 0.538086C78.7793 0.538086 79.1608 0.998908 79.1608 1.50583V14.2709C79.1608 14.7778 78.7793 15.2387 78.2706 15.2387Z" fill="white"/>
<path d="M80.9417 15.2387C80.433 15.2387 80.0515 14.7778 80.0515 14.2709V1.50583C80.0515 0.998908 80.433 0.538086 80.9417 0.538086C81.4081 0.538086 81.832 0.998908 81.832 1.50583V14.2709C81.832 14.7778 81.4081 15.2387 80.9417 15.2387Z" fill="white"/>
<path d="M83.6126 15.2387C83.1039 15.2387 82.7224 14.7778 82.7224 14.2709V1.50583C82.7224 0.998908 83.1039 0.538086 83.6126 0.538086C84.079 0.538086 84.4605 0.998908 84.4605 1.50583V14.2709C84.4605 14.7778 84.079 15.2387 83.6126 15.2387Z" fill="white"/>
<path d="M86.2406 15.2387C85.7743 15.2387 85.3503 14.7778 85.3503 14.2709V1.50583C85.3503 0.998908 85.7743 0.538086 86.2406 0.538086C86.7493 0.538086 87.1308 0.998908 87.1308 1.50583V14.2709C87.1308 14.7778 86.7493 15.2387 86.2406 15.2387Z" fill="white"/>
<path d="M88.9117 15.2387C88.4454 15.2387 88.0215 14.7778 88.0215 14.2709V1.50583C88.0215 0.998908 88.4454 0.538086 88.9117 0.538086C89.4204 0.538086 89.802 0.998908 89.802 1.50583V14.2709C89.802 14.7778 89.4204 15.2387 88.9117 15.2387Z" fill="white"/>
<path d="M91.5826 15.2387C91.0739 15.2387 90.6924 14.7778 90.6924 14.2709V1.50583C90.6924 0.998908 91.0739 0.538086 91.5826 0.538086C92.0489 0.538086 92.4729 0.998908 92.4729 1.50583V14.2709C92.4729 14.7778 92.0489 15.2387 91.5826 15.2387Z" fill="white"/>
<path d="M94.2111 15.2387C93.7448 15.2387 93.3633 14.7778 93.3633 14.2709V1.50583C93.3633 0.998908 93.7448 0.538086 94.2111 0.538086C94.7198 0.538086 95.1014 0.998908 95.1014 1.50583V14.2709C95.1014 14.7778 94.7198 15.2387 94.2111 15.2387Z" fill="white"/>
<path d="M96.8817 15.2387C96.4154 15.2387 95.9915 14.7778 95.9915 14.2709V1.50583C95.9915 0.998908 96.4154 0.538086 96.8817 0.538086C97.3904 0.538086 97.7719 0.998908 97.7719 1.50583V14.2709C97.7719 14.7778 97.3904 15.2387 96.8817 15.2387Z" fill="white"/>
<path d="M99.5526 15.2387C99.0439 15.2387 98.6624 14.7778 98.6624 14.2709V1.50583C98.6624 0.998908 99.0439 0.538086 99.5526 0.538086C100.019 0.538086 100.443 0.998908 100.443 1.50583V14.2709C100.443 14.7778 100.019 15.2387 99.5526 15.2387Z" fill="white"/>
<path d="M102.223 15.2387C101.715 15.2387 101.333 14.7778 101.333 14.2709V1.50583C101.333 0.998908 101.715 0.538086 102.223 0.538086C102.69 0.538086 103.071 0.998908 103.071 1.50583V14.2709C103.071 14.7778 102.69 15.2387 102.223 15.2387Z" fill="white"/>
<path d="M104.851 15.2387C104.385 15.2387 103.961 14.7778 103.961 14.2709V1.50583C103.961 0.998908 104.385 0.538086 104.851 0.538086C105.36 0.538086 105.742 0.998908 105.742 1.50583V14.2709C105.742 14.7778 105.36 15.2387 104.851 15.2387Z" fill="white"/>
<path d="M107.522 15.2387C107.014 15.2387 106.632 14.7778 106.632 14.2709V1.50583C106.632 0.998908 107.014 0.538086 107.522 0.538086C108.031 0.538086 108.413 0.998908 108.413 1.50583V14.2709C108.413 14.7778 108.031 15.2387 107.522 15.2387Z" fill="white"/>
<path d="M110.193 15.2387C109.685 15.2387 109.303 14.7778 109.303 14.2709V1.50583C109.303 0.998908 109.685 0.538086 110.193 0.538086C110.66 0.538086 111.084 0.998908 111.084 1.50583V14.2709C111.084 14.7778 110.66 15.2387 110.193 15.2387Z" fill="white"/>
<path d="M112.821 15.2387C112.355 15.2387 111.931 14.7778 111.931 14.2709V1.50583C111.931 0.998908 112.355 0.538086 112.821 0.538086C113.33 0.538086 113.711 0.998908 113.711 1.50583V14.2709C113.711 14.7778 113.33 15.2387 112.821 15.2387Z" fill="white"/>
<path d="M115.492 15.2387C115.026 15.2387 114.602 14.7778 114.602 14.2709V1.50583C114.602 0.998908 115.026 0.538086 115.492 0.538086C116.001 0.538086 116.383 0.998908 116.383 1.50583V14.2709C116.383 14.7778 116.001 15.2387 115.492 15.2387Z" fill="white"/>
<path d="M118.248 15.2387C117.739 15.2387 117.357 14.7778 117.357 14.2709V1.50583C117.357 0.998908 117.739 0.538086 118.248 0.538086C118.714 0.538086 119.138 0.998908 119.138 1.50583V14.2709C119.138 14.7778 118.714 15.2387 118.248 15.2387Z" fill="white"/>
<path d="M120.919 15.2387C120.41 15.2387 120.028 14.7778 120.028 14.2709V1.50583C120.028 0.998908 120.41 0.538086 120.919 0.538086C121.385 0.538086 121.766 0.998908 121.766 1.50583V14.2709C121.766 14.7778 121.385 15.2387 120.919 15.2387Z" fill="white"/>
<path d="M123.546 15.2387C123.08 15.2387 122.656 14.7778 122.656 14.2709V1.50583C122.656 0.998908 123.08 0.538086 123.546 0.538086C124.055 0.538086 124.437 0.998908 124.437 1.50583V14.2709C124.437 14.7778 124.055 15.2387 123.546 15.2387Z" fill="white"/>
<path d="M126.217 15.2387C125.709 15.2387 125.327 14.7778 125.327 14.2709V1.50583C125.327 0.998908 125.709 0.538086 126.217 0.538086C126.684 0.538086 127.108 0.998908 127.108 1.50583V14.2709C127.108 14.7778 126.684 15.2387 126.217 15.2387Z" fill="white"/>
<path d="M128.889 15.2387C128.38 15.2387 127.998 14.7778 127.998 14.2709V1.50583C127.998 0.998908 128.38 0.538086 128.889 0.538086C129.355 0.538086 129.779 0.998908 129.779 1.50583V14.2709C129.779 14.7778 129.355 15.2387 128.889 15.2387Z" fill="white"/>
<path d="M131.516 15.2387C131.05 15.2387 130.626 14.7778 130.626 14.2709V1.50583C130.626 0.998908 131.05 0.538086 131.516 0.538086C132.025 0.538086 132.406 0.998908 132.406 1.50583V14.2709C132.406 14.7778 132.025 15.2387 131.516 15.2387Z" fill="white"/>
<path d="M134.187 15.2387C133.721 15.2387 133.297 14.7778 133.297 14.2709V1.50583C133.297 0.998908 133.721 0.538086 134.187 0.538086C134.696 0.538086 135.078 0.998908 135.078 1.50583V14.2709C135.078 14.7778 134.696 15.2387 134.187 15.2387Z" fill="white"/>
<path d="M136.859 15.2387C136.35 15.2387 135.968 14.7778 135.968 14.2709V1.50583C135.968 0.998908 136.35 0.538086 136.859 0.538086C137.325 0.538086 137.749 0.998908 137.749 1.50583V14.2709C137.749 14.7778 137.325 15.2387 136.859 15.2387Z" fill="white"/>
<path d="M139.485 15.2387C139.018 15.2387 138.637 14.7778 138.637 14.2709V1.50583C138.637 0.998908 139.018 0.538086 139.485 0.538086C139.994 0.538086 140.375 0.998908 140.375 1.50583V14.2709C140.375 14.7778 139.994 15.2387 139.485 15.2387Z" fill="white"/>
<path d="M142.157 15.2387C141.691 15.2387 141.267 14.7778 141.267 14.2709V1.50583C141.267 0.998908 141.691 0.538086 142.157 0.538086C142.666 0.538086 143.047 0.998908 143.047 1.50583V14.2709C143.047 14.7778 142.666 15.2387 142.157 15.2387Z" fill="white"/>
<path d="M144.828 15.2387C144.32 15.2387 143.938 14.7778 143.938 14.2709V1.50583C143.938 0.998908 144.32 0.538086 144.828 0.538086C145.295 0.538086 145.718 0.998908 145.718 1.50583V14.2709C145.718 14.7778 145.295 15.2387 144.828 15.2387Z" fill="white"/>
<path d="M147.497 15.2387C146.988 15.2387 146.607 14.7778 146.607 14.2709V1.50583C146.607 0.998908 146.988 0.538086 147.497 0.538086C147.963 0.538086 148.387 0.998908 148.387 1.50583V14.2709C148.387 14.7778 147.963 15.2387 147.497 15.2387Z" fill="white"/>
<path d="M150.127 15.2387C149.661 15.2387 149.237 14.7778 149.237 14.2709V1.50583C149.237 0.998908 149.661 0.538086 150.127 0.538086C150.636 0.538086 151.017 0.998908 151.017 1.50583V14.2709C151.017 14.7778 150.636 15.2387 150.127 15.2387Z" fill="white"/>
<path d="M152.798 15.2387C152.332 15.2387 151.908 14.7778 151.908 14.2709V1.50583C151.908 0.998908 152.332 0.538086 152.798 0.538086C153.307 0.538086 153.688 0.998908 153.688 1.50583V14.2709C153.688 14.7778 153.307 15.2387 152.798 15.2387Z" fill="white"/>
<path d="M155.467 15.2387C154.958 15.2387 154.577 14.7778 154.577 14.2709V1.50583C154.577 0.998908 154.958 0.538086 155.467 0.538086C155.933 0.538086 156.357 0.998908 156.357 1.50583V14.2709C156.357 14.7778 155.933 15.2387 155.467 15.2387Z" fill="white"/>
<path d="M158.138 15.2387C157.629 15.2387 157.248 14.7778 157.248 14.2709V1.50583C157.248 0.998908 157.629 0.538086 158.138 0.538086C158.604 0.538086 158.986 0.998908 158.986 1.50583V14.2709C158.986 14.7778 158.604 15.2387 158.138 15.2387Z" fill="white"/>
<path d="M160.768 15.2387C160.302 15.2387 159.878 14.7778 159.878 14.2709V1.50583C159.878 0.998908 160.302 0.538086 160.768 0.538086C161.277 0.538086 161.658 0.998908 161.658 1.50583V14.2709C161.658 14.7778 161.277 15.2387 160.768 15.2387Z" fill="white"/>
<path d="M163.437 15.2387C162.928 15.2387 162.547 14.7778 162.547 14.2709V1.50583C162.547 0.998908 162.928 0.538086 163.437 0.538086C163.903 0.538086 164.327 0.998908 164.327 1.50583V14.2709C164.327 14.7778 163.903 15.2387 163.437 15.2387Z" fill="white"/>
<path d="M166.108 15.2387C165.599 15.2387 165.218 14.7778 165.218 14.2709V1.50583C165.218 0.998908 165.599 0.538086 166.108 0.538086C166.574 0.538086 166.998 0.998908 166.998 1.50583V14.2709C166.998 14.7778 166.574 15.2387 166.108 15.2387Z" fill="white"/>
<path d="M168.738 15.2387C168.272 15.2387 167.848 14.7778 167.848 14.2709V1.50583C167.848 0.998908 168.272 0.538086 168.738 0.538086C169.247 0.538086 169.628 0.998908 169.628 1.50583V14.2709C169.628 14.7778 169.247 15.2387 168.738 15.2387Z" fill="white"/>
<path d="M171.407 15.2387C170.941 15.2387 170.517 14.7778 170.517 14.2709V1.50583C170.517 0.998908 170.941 0.538086 171.407 0.538086C171.916 0.538086 172.297 0.998908 172.297 1.50583V14.2709C172.297 14.7778 171.916 15.2387 171.407 15.2387Z" fill="white"/>
<path d="M174.078 15.2387C173.569 15.2387 173.188 14.7778 173.188 14.2709V1.50583C173.188 0.998908 173.569 0.538086 174.078 0.538086C174.544 0.538086 174.968 0.998908 174.968 1.50583V14.2709C174.968 14.7778 174.544 15.2387 174.078 15.2387Z" fill="white"/>
<path d="M176.706 15.2387C176.24 15.2387 175.859 14.7778 175.859 14.2709V1.50583C175.859 0.998908 176.24 0.538086 176.706 0.538086C177.215 0.538086 177.597 0.998908 177.597 1.50583V14.2709C177.597 14.7778 177.215 15.2387 176.706 15.2387Z" fill="white"/>
<path d="M179.377 15.2387C178.91 15.2387 178.487 14.7778 178.487 14.2709V1.50583C178.487 0.998908 178.91 0.538086 179.377 0.538086C179.886 0.538086 180.267 0.998908 180.267 1.50583V14.2709C180.267 14.7778 179.886 15.2387 179.377 15.2387Z" fill="white"/>
<path d="M182.048 15.2387C181.539 15.2387 181.157 14.7778 181.157 14.2709V1.50583C181.157 0.998908 181.539 0.538086 182.048 0.538086C182.514 0.538086 182.938 0.998908 182.938 1.50583V14.2709C182.938 14.7778 182.514 15.2387 182.048 15.2387Z" fill="white"/>
<path d="M184.719 15.2387C184.21 15.2387 183.828 14.7778 183.828 14.2709V1.50583C183.828 0.998908 184.21 0.538086 184.719 0.538086C185.185 0.538086 185.609 0.998908 185.609 1.50583V14.2709C185.609 14.7778 185.185 15.2387 184.719 15.2387Z" fill="white"/>
<path d="M187.347 15.2387C186.88 15.2387 186.456 14.7778 186.456 14.2709V1.50583C186.456 0.998908 186.88 0.538086 187.347 0.538086C187.855 0.538086 188.237 0.998908 188.237 1.50583V14.2709C188.237 14.7778 187.855 15.2387 187.347 15.2387Z" fill="white"/>
<path d="M190.017 15.2387C189.551 15.2387 189.127 14.7778 189.127 14.2709V1.50583C189.127 0.998908 189.551 0.538086 190.017 0.538086C190.484 0.538086 190.908 0.998908 190.908 1.50583V14.2709C190.908 14.7778 190.484 15.2387 190.017 15.2387Z" fill="white"/>
<path d="M192.689 15.2387C192.18 15.2387 191.798 14.7778 191.798 14.2709V1.50583C191.798 0.998908 192.18 0.538086 192.689 0.538086C193.155 0.538086 193.579 0.998908 193.579 1.50583V14.2709C193.579 14.7778 193.155 15.2387 192.689 15.2387Z" fill="white"/>
<path d="M195.317 15.2387C194.851 15.2387 194.469 14.7778 194.469 14.2709V1.50583C194.469 0.998908 194.851 0.538086 195.317 0.538086C195.826 0.538086 196.208 0.998908 196.208 1.50583V14.2709C196.208 14.7778 195.826 15.2387 195.317 15.2387Z" fill="white"/>
<path d="M197.987 15.2387C197.521 15.2387 197.097 14.7778 197.097 14.2709V1.50583C197.097 0.998908 197.521 0.538086 197.987 0.538086C198.496 0.538086 198.878 0.998908 198.878 1.50583V14.2709C198.878 14.7778 198.496 15.2387 197.987 15.2387Z" fill="white"/>
<path d="M200.658 15.2387C200.15 15.2387 199.768 14.7778 199.768 14.2709V1.50583C199.768 0.998908 200.15 0.538086 200.658 0.538086C201.125 0.538086 201.549 0.998908 201.549 1.50583V14.2709C201.549 14.7778 201.125 15.2387 200.658 15.2387Z" fill="white"/>
<path d="M203.33 15.2387C202.821 15.2387 202.439 14.7778 202.439 14.2709V1.50583C202.439 0.998908 202.821 0.538086 203.33 0.538086C203.796 0.538086 204.178 0.998908 204.178 1.50583V14.2709C204.178 14.7778 203.796 15.2387 203.33 15.2387Z" fill="white"/>
<path d="M205.957 15.2387C205.491 15.2387 205.067 14.7778 205.067 14.2709V1.50583C205.067 0.998908 205.491 0.538086 205.957 0.538086C206.466 0.538086 206.848 0.998908 206.848 1.50583V14.2709C206.848 14.7778 206.466 15.2387 205.957 15.2387Z" fill="#505050"/>
<path d="M208.628 15.2387C208.162 15.2387 207.738 14.7778 207.738 14.2709V1.50583C207.738 0.998908 208.162 0.538086 208.628 0.538086C209.137 0.538086 209.519 0.998908 209.519 1.50583V14.2709C209.519 14.7778 209.137 15.2387 208.628 15.2387Z" fill="#505050"/>
<path d="M211.299 15.2387C210.791 15.2387 210.409 14.7778 210.409 14.2709V1.50583C210.409 0.998908 210.791 0.538086 211.299 0.538086C211.766 0.538086 212.19 0.998908 212.19 1.50583V14.2709C212.19 14.7778 211.766 15.2387 211.299 15.2387Z" fill="#505050"/>
<path d="M213.928 15.2387C213.462 15.2387 213.08 14.7778 213.08 14.2709V1.50583C213.08 0.998908 213.462 0.538086 213.928 0.538086C214.437 0.538086 214.818 0.998908 214.818 1.50583V14.2709C214.818 14.7778 214.437 15.2387 213.928 15.2387Z" fill="#505050"/>
<path d="M216.598 15.2387C216.132 15.2387 215.708 14.7778 215.708 14.2709V1.50583C215.708 0.998908 216.132 0.538086 216.598 0.538086C217.107 0.538086 217.488 0.998908 217.488 1.50583V14.2709C217.488 14.7778 217.107 15.2387 216.598 15.2387Z" fill="#505050"/>
<path d="M219.269 15.2387C218.761 15.2387 218.379 14.7778 218.379 14.2709V1.50583C218.379 0.998908 218.761 0.538086 219.269 0.538086C219.736 0.538086 220.16 0.998908 220.16 1.50583V14.2709C220.16 14.7778 219.736 15.2387 219.269 15.2387Z" fill="#505050"/>
<path d="M221.94 15.2387C221.432 15.2387 221.05 14.7778 221.05 14.2709V1.50583C221.05 0.998908 221.432 0.538086 221.94 0.538086C222.407 0.538086 222.788 0.998908 222.788 1.50583V14.2709C222.788 14.7778 222.407 15.2387 221.94 15.2387Z" fill="#505050"/>
<path d="M224.568 15.2387C224.102 15.2387 223.678 14.7778 223.678 14.2709V1.50583C223.678 0.998908 224.102 0.538086 224.568 0.538086C225.077 0.538086 225.459 0.998908 225.459 1.50583V14.2709C225.459 14.7778 225.077 15.2387 224.568 15.2387Z" fill="#505050"/>
<path d="M227.239 15.2387C226.73 15.2387 226.349 14.7778 226.349 14.2709V1.50583C226.349 0.998908 226.73 0.538086 227.239 0.538086C227.748 0.538086 228.129 0.998908 228.129 1.50583V14.2709C228.129 14.7778 227.748 15.2387 227.239 15.2387Z" fill="#505050"/>
<path d="M229.91 15.2387C229.402 15.2387 229.02 14.7778 229.02 14.2709V1.50583C229.02 0.998908 229.402 0.538086 229.91 0.538086C230.377 0.538086 230.801 0.998908 230.801 1.50583V14.2709C230.801 14.7778 230.377 15.2387 229.91 15.2387Z" fill="#505050"/>
<path d="M232.537 15.2387C232.07 15.2387 231.689 14.7778 231.689 14.2709V1.50583C231.689 0.998908 232.07 0.538086 232.537 0.538086C233.045 0.538086 233.427 0.998908 233.427 1.50583V14.2709C233.427 14.7778 233.045 15.2387 232.537 15.2387Z" fill="#505050"/>
<path d="M235.209 15.2387C234.743 15.2387 234.319 14.7778 234.319 14.2709V1.50583C234.319 0.998908 234.743 0.538086 235.209 0.538086C235.718 0.538086 236.099 0.998908 236.099 1.50583V14.2709C236.099 14.7778 235.718 15.2387 235.209 15.2387Z" fill="#505050"/>
<path d="M237.88 15.2387C237.371 15.2387 236.99 14.7778 236.99 14.2709V1.50583C236.99 0.998908 237.371 0.538086 237.88 0.538086C238.346 0.538086 238.77 0.998908 238.77 1.50583V14.2709C238.77 14.7778 238.346 15.2387 237.88 15.2387Z" fill="#505050"/>
<path d="M240.549 15.2387C240.04 15.2387 239.659 14.7778 239.659 14.2709V1.50583C239.659 0.998908 240.04 0.538086 240.549 0.538086C241.015 0.538086 241.397 0.998908 241.397 1.50583V14.2709C241.397 14.7778 241.015 15.2387 240.549 15.2387Z" fill="#505050"/>
<path d="M243.179 15.2387C242.712 15.2387 242.289 14.7778 242.289 14.2709V1.50583C242.289 0.998908 242.712 0.538086 243.179 0.538086C243.688 0.538086 244.069 0.998908 244.069 1.50583V14.2709C244.069 14.7778 243.688 15.2387 243.179 15.2387Z" fill="#505050"/>
<path d="M245.85 15.2387C245.341 15.2387 244.96 14.7778 244.96 14.2709V1.50583C244.96 0.998908 245.341 0.538086 245.85 0.538086C246.316 0.538086 246.74 0.998908 246.74 1.50583V14.2709C246.74 14.7778 246.316 15.2387 245.85 15.2387Z" fill="#505050"/>
<path d="M248.519 15.2387C248.01 15.2387 247.628 14.7778 247.628 14.2709V1.50583C247.628 0.998908 248.01 0.538086 248.519 0.538086C248.985 0.538086 249.409 0.998908 249.409 1.50583V14.2709C249.409 14.7778 248.985 15.2387 248.519 15.2387Z" fill="#505050"/>
<path d="M251.147 15.2387C250.681 15.2387 250.3 14.7778 250.3 14.2709V1.50583C250.3 0.998908 250.681 0.538086 251.147 0.538086C251.656 0.538086 252.038 0.998908 252.038 1.50583V14.2709C252.038 14.7778 251.656 15.2387 251.147 15.2387Z" fill="#505050"/>
<path d="M253.82 15.2387C253.354 15.2387 252.93 14.7778 252.93 14.2709V1.50583C252.93 0.998908 253.354 0.538086 253.82 0.538086C254.329 0.538086 254.71 0.998908 254.71 1.50583V14.2709C254.71 14.7778 254.329 15.2387 253.82 15.2387Z" fill="#505050"/>
<path d="M256.489 15.2387C255.98 15.2387 255.598 14.7778 255.598 14.2709V1.50583C255.598 0.998908 255.98 0.538086 256.489 0.538086C256.955 0.538086 257.379 0.998908 257.379 1.50583V14.2709C257.379 14.7778 256.955 15.2387 256.489 15.2387Z" fill="#505050"/>
<path d="M259.16 15.2387C258.651 15.2387 258.27 14.7778 258.27 14.2709V1.50583C258.27 0.998908 258.651 0.538086 259.16 0.538086C259.626 0.538086 260.008 0.998908 260.008 1.50583V14.2709C260.008 14.7778 259.626 15.2387 259.16 15.2387Z" fill="#505050"/>
<path d="M261.787 15.2387C261.321 15.2387 260.897 14.7778 260.897 14.2709V1.50583C260.897 0.998908 261.321 0.538086 261.787 0.538086C262.296 0.538086 262.678 0.998908 262.678 1.50583V14.2709C262.678 14.7778 262.296 15.2387 261.787 15.2387Z" fill="#505050"/>
<path d="M264.459 15.2387C263.95 15.2387 263.568 14.7778 263.568 14.2709V1.50583C263.568 0.998908 263.95 0.538086 264.459 0.538086C264.925 0.538086 265.349 0.998908 265.349 1.50583V14.2709C265.349 14.7778 264.925 15.2387 264.459 15.2387Z" fill="#505050"/>
<path d="M1.54111 15.2387C1.07479 15.2387 0.650879 14.7778 0.650879 14.2709V1.50583C0.650879 0.998908 1.07479 0.538086 1.54111 0.538086C2.04983 0.538086 2.43137 0.998908 2.43137 1.50583V14.2709C2.43137 14.7778 2.04983 15.2387 1.54111 15.2387Z" fill="white"/>
<path d="M4.21008 15.2387C3.70137 15.2387 3.31982 14.7778 3.31982 14.2709V1.50583C3.31982 0.998908 3.70137 0.538086 4.21008 0.538086C4.6764 0.538086 5.10032 0.998908 5.10032 1.50583V14.2709C5.10032 14.7778 4.6764 15.2387 4.21008 15.2387Z" fill="white"/>
<path d="M6.88098 15.2387C6.37227 15.2387 5.99072 14.7778 5.99072 14.2709V1.50583C5.99072 0.998908 6.37227 0.538086 6.88098 0.538086C7.3473 0.538086 7.77122 0.998908 7.77122 1.50583V14.2709C7.77122 14.7778 7.3473 15.2387 6.88098 15.2387Z" fill="white"/>
<path d="M9.51111 15.2387C9.04479 15.2387 8.62085 14.7778 8.62085 14.2709V1.50583C8.62085 0.998908 9.04479 0.538086 9.51111 0.538086C10.0198 0.538086 10.4013 0.998908 10.4013 1.50583V14.2709C10.4013 14.7778 10.0198 15.2387 9.51111 15.2387Z" fill="white"/>
<path d="M12.1801 15.2387C11.7137 15.2387 11.2898 14.7778 11.2898 14.2709V1.50583C11.2898 0.998908 11.7137 0.538086 12.1801 0.538086C12.6888 0.538086 13.0703 0.998908 13.0703 1.50583V14.2709C13.0703 14.7778 12.6888 15.2387 12.1801 15.2387Z" fill="white"/>
<path d="M14.8509 15.2387C14.3422 15.2387 13.9607 14.7778 13.9607 14.2709V1.50583C13.9607 0.998908 14.3422 0.538086 14.8509 0.538086C15.3172 0.538086 15.7412 0.998908 15.7412 1.50583V14.2709C15.7412 14.7778 15.3172 15.2387 14.8509 15.2387Z" fill="white"/>
<path d="M17.5218 15.2387C17.0131 15.2387 16.6316 14.7778 16.6316 14.2709V1.50583C16.6316 0.998908 17.0131 0.538086 17.5218 0.538086C17.9881 0.538086 18.3697 0.998908 18.3697 1.50583V14.2709C18.3697 14.7778 17.9881 15.2387 17.5218 15.2387Z" fill="white"/>
<path d="M20.1498 15.2387C19.6834 15.2387 19.2595 14.7778 19.2595 14.2709V1.50583C19.2595 0.998908 19.6834 0.538086 20.1498 0.538086C20.6585 0.538086 21.04 0.998908 21.04 1.50583V14.2709C21.04 14.7778 20.6585 15.2387 20.1498 15.2387Z" fill="white"/>
<path d="M22.8207 15.2387C22.3119 15.2387 21.9304 14.7778 21.9304 14.2709V1.50583C21.9304 0.998908 22.3119 0.538086 22.8207 0.538086C23.287 0.538086 23.7109 0.998908 23.7109 1.50583V14.2709C23.7109 14.7778 23.287 15.2387 22.8207 15.2387Z" fill="white"/>
<path d="M25.4918 15.2387C24.9831 15.2387 24.6016 14.7778 24.6016 14.2709V1.50583C24.6016 0.998908 24.9831 0.538086 25.4918 0.538086C25.9581 0.538086 26.3821 0.998908 26.3821 1.50583V14.2709C26.3821 14.7778 25.9581 15.2387 25.4918 15.2387Z" fill="white"/>
<path d="M28.0355 15.2387C27.5692 15.2387 27.1453 14.7778 27.1453 14.2709V1.50583C27.1453 0.998908 27.5692 0.538086 28.0355 0.538086C28.5442 0.538086 28.9258 0.998908 28.9258 1.50583V14.2709C28.9258 14.7778 28.5442 15.2387 28.0355 15.2387Z" fill="white"/>
<path d="M30.7064 15.2387C30.2401 15.2387 29.8162 14.7778 29.8162 14.2709V1.50583C29.8162 0.998908 30.2401 0.538086 30.7064 0.538086C31.2151 0.538086 31.5967 0.998908 31.5967 1.50583V14.2709C31.5967 14.7778 31.2151 15.2387 30.7064 15.2387Z" fill="white"/>
</svg>
