<svg width="266" height="15" viewBox="0 0 266 15" fill="none" xmlns="http://www.w3.org/2000/svg">
<path d="M33.2291 14.7348C32.7628 14.7348 32.3389 14.2739 32.3389 13.767V1.00192C32.3389 0.495002 32.7628 0.0341797 33.2291 0.0341797C33.7378 0.0341797 34.1193 0.495002 34.1193 1.00192V13.767C34.1193 14.2739 33.7378 14.7348 33.2291 14.7348Z" fill="white"/>
<path d="M35.898 14.7348C35.3893 14.7348 35.0078 14.2739 35.0078 13.767V1.00192C35.0078 0.495002 35.3893 0.0341797 35.898 0.0341797C36.3644 0.0341797 36.7883 0.495002 36.7883 1.00192V13.767C36.7883 14.2739 36.3644 14.7348 35.898 14.7348Z" fill="white"/>
<path d="M38.5266 14.7348C38.0602 14.7348 37.6787 14.2739 37.6787 13.767V1.00192C37.6787 0.495002 38.0602 0.0341797 38.5266 0.0341797C39.0353 0.0341797 39.4168 0.495002 39.4168 1.00192V13.767C39.4168 14.2739 39.0353 14.7348 38.5266 14.7348Z" fill="white"/>
<path d="M41.1993 14.7348C40.733 14.7348 40.3091 14.2739 40.3091 13.767V1.00192C40.3091 0.495002 40.733 0.0341797 41.1993 0.0341797C41.708 0.0341797 42.0896 0.495002 42.0896 1.00192V13.767C42.0896 14.2739 41.708 14.7348 41.1993 14.7348Z" fill="white"/>
<path d="M43.8678 14.7348C43.3591 14.7348 42.9775 14.2739 42.9775 13.767V1.00192C42.9775 0.495002 43.3591 0.0341797 43.8678 0.0341797C44.3341 0.0341797 44.758 0.495002 44.758 1.00192V13.767C44.758 14.2739 44.3341 14.7348 43.8678 14.7348Z" fill="white"/>
<path d="M46.5392 14.7348C46.0305 14.7348 45.6489 14.2739 45.6489 13.767V1.00192C45.6489 0.495002 46.0305 0.0341797 46.5392 0.0341797C47.0055 0.0341797 47.4294 0.495002 47.4294 1.00192V13.767C47.4294 14.2739 47.0055 14.7348 46.5392 14.7348Z" fill="white"/>
<path d="M49.1666 14.7348C48.7003 14.7348 48.2764 14.2739 48.2764 13.767V1.00192C48.2764 0.495002 48.7003 0.0341797 49.1666 0.0341797C49.6753 0.0341797 50.0569 0.495002 50.0569 1.00192V13.767C50.0569 14.2739 49.6753 14.7348 49.1666 14.7348Z" fill="white"/>
<path d="M51.838 14.7348C51.3717 14.7348 50.9478 14.2739 50.9478 13.767V1.00192C50.9478 0.495002 51.3717 0.0341797 51.838 0.0341797C52.3467 0.0341797 52.7282 0.495002 52.7282 1.00192V13.767C52.7282 14.2739 52.3467 14.7348 51.838 14.7348Z" fill="white"/>
<path d="M54.5089 14.7348C54.0002 14.7348 53.6187 14.2739 53.6187 13.767V1.00192C53.6187 0.495002 54.0002 0.0341797 54.5089 0.0341797C54.9752 0.0341797 55.3991 0.495002 55.3991 1.00192V13.767C55.3991 14.2739 54.9752 14.7348 54.5089 14.7348Z" fill="white"/>
<path d="M57.1379 14.7348C56.6716 14.7348 56.29 14.2739 56.29 13.767V1.00192C56.29 0.495002 56.6716 0.0341797 57.1379 0.0341797C57.6466 0.0341797 58.0281 0.495002 58.0281 1.00192V13.767C58.0281 14.2739 57.6466 14.7348 57.1379 14.7348Z" fill="white"/>
<path d="M59.8082 14.7348C59.3419 14.7348 58.918 14.2739 58.918 13.767V1.00192C58.918 0.495002 59.3419 0.0341797 59.8082 0.0341797C60.3169 0.0341797 60.6985 0.495002 60.6985 1.00192V13.767C60.6985 14.2739 60.3169 14.7348 59.8082 14.7348Z" fill="white"/>
<path d="M62.4791 14.7348C61.9704 14.7348 61.5889 14.2739 61.5889 13.767V1.00192C61.5889 0.495002 61.9704 0.0341797 62.4791 0.0341797C62.9454 0.0341797 63.3693 0.495002 63.3693 1.00192V13.767C63.3693 14.2739 62.9454 14.7348 62.4791 14.7348Z" fill="white"/>
<path d="M65.1501 14.7348C64.6413 14.7348 64.2598 14.2739 64.2598 13.767V1.00192C64.2598 0.495002 64.6413 0.0341797 65.1501 0.0341797C65.6164 0.0341797 66.0403 0.495002 66.0403 1.00192V13.767C66.0403 14.2739 65.6164 14.7348 65.1501 14.7348Z" fill="white"/>
<path d="M67.7779 14.7348C67.3116 14.7348 66.8877 14.2739 66.8877 13.767V1.00192C66.8877 0.495002 67.3116 0.0341797 67.7779 0.0341797C68.2866 0.0341797 68.6682 0.495002 68.6682 1.00192V13.767C68.6682 14.2739 68.2866 14.7348 67.7779 14.7348Z" fill="white"/>
<path d="M70.4489 14.7348C69.9826 14.7348 69.5586 14.2739 69.5586 13.767V1.00192C69.5586 0.495002 69.9826 0.0341797 70.4489 0.0341797C70.9152 0.0341797 71.3391 0.495002 71.3391 1.00192V13.767C71.3391 14.2739 70.9152 14.7348 70.4489 14.7348Z" fill="white"/>
<path d="M73.1197 14.7348C72.611 14.7348 72.2295 14.2739 72.2295 13.767V1.00192C72.2295 0.495002 72.611 0.0341797 73.1197 0.0341797C73.586 0.0341797 74.01 0.495002 74.01 1.00192V13.767C74.01 14.2739 73.586 14.7348 73.1197 14.7348Z" fill="white"/>
<path d="M75.7482 14.7348C75.2819 14.7348 74.9004 14.2739 74.9004 13.767V1.00192C74.9004 0.495002 75.2819 0.0341797 75.7482 0.0341797C76.257 0.0341797 76.6385 0.495002 76.6385 1.00192V13.767C76.6385 14.2739 76.257 14.7348 75.7482 14.7348Z" fill="white"/>
<path d="M78.4186 14.7348C77.9522 14.7348 77.5283 14.2739 77.5283 13.767V1.00192C77.5283 0.495002 77.9522 0.0341797 78.4186 0.0341797C78.9273 0.0341797 79.3088 0.495002 79.3088 1.00192V13.767C79.3088 14.2739 78.9273 14.7348 78.4186 14.7348Z" fill="white"/>
<path d="M81.0895 14.7348C80.5807 14.7348 80.1992 14.2739 80.1992 13.767V1.00192C80.1992 0.495002 80.5807 0.0341797 81.0895 0.0341797C81.5558 0.0341797 81.9797 0.495002 81.9797 1.00192V13.767C81.9797 14.2739 81.5558 14.7348 81.0895 14.7348Z" fill="white"/>
<path d="M83.7604 14.7348C83.2516 14.7348 82.8701 14.2739 82.8701 13.767V1.00192C82.8701 0.495002 83.2516 0.0341797 83.7604 0.0341797C84.2267 0.0341797 84.6082 0.495002 84.6082 1.00192V13.767C84.6082 14.2739 84.2267 14.7348 83.7604 14.7348Z" fill="white"/>
<path d="M86.3883 14.7348C85.922 14.7348 85.498 14.2739 85.498 13.767V1.00192C85.498 0.495002 85.922 0.0341797 86.3883 0.0341797C86.897 0.0341797 87.2785 0.495002 87.2785 1.00192V13.767C87.2785 14.2739 86.897 14.7348 86.3883 14.7348Z" fill="white"/>
<path d="M89.0597 14.7348C88.5933 14.7348 88.1694 14.2739 88.1694 13.767V1.00192C88.1694 0.495002 88.5933 0.0341797 89.0597 0.0341797C89.5684 0.0341797 89.95 0.495002 89.95 1.00192V13.767C89.95 14.2739 89.5684 14.7348 89.0597 14.7348Z" fill="white"/>
<path d="M91.7306 14.7348C91.2219 14.7348 90.8403 14.2739 90.8403 13.767V1.00192C90.8403 0.495002 91.2219 0.0341797 91.7306 0.0341797C92.1969 0.0341797 92.6208 0.495002 92.6208 1.00192V13.767C92.6208 14.2739 92.1969 14.7348 91.7306 14.7348Z" fill="white"/>
<path d="M94.3591 14.7348C93.8928 14.7348 93.5112 14.2739 93.5112 13.767V1.00192C93.5112 0.495002 93.8928 0.0341797 94.3591 0.0341797C94.8678 0.0341797 95.2494 0.495002 95.2494 1.00192V13.767C95.2494 14.2739 94.8678 14.7348 94.3591 14.7348Z" fill="white"/>
<path d="M97.0299 14.7348C96.5636 14.7348 96.1396 14.2739 96.1396 13.767V1.00192C96.1396 0.495002 96.5636 0.0341797 97.0299 0.0341797C97.5386 0.0341797 97.9201 0.495002 97.9201 1.00192V13.767C97.9201 14.2739 97.5386 14.7348 97.0299 14.7348Z" fill="white"/>
<path d="M99.7008 14.7348C99.1921 14.7348 98.8105 14.2739 98.8105 13.767V1.00192C98.8105 0.495002 99.1921 0.0341797 99.7008 0.0341797C100.167 0.0341797 100.591 0.495002 100.591 1.00192V13.767C100.591 14.2739 100.167 14.7348 99.7008 14.7348Z" fill="white"/>
<path d="M102.372 14.7348C101.863 14.7348 101.481 14.2739 101.481 13.767V1.00192C101.481 0.495002 101.863 0.0341797 102.372 0.0341797C102.838 0.0341797 103.22 0.495002 103.22 1.00192V13.767C103.22 14.2739 102.838 14.7348 102.372 14.7348Z" fill="white"/>
<path d="M105 14.7348C104.533 14.7348 104.109 14.2739 104.109 13.767V1.00192C104.109 0.495002 104.533 0.0341797 105 0.0341797C105.508 0.0341797 105.89 0.495002 105.89 1.00192V13.767C105.89 14.2739 105.508 14.7348 105 14.7348Z" fill="white"/>
<path d="M107.671 14.7348C107.162 14.7348 106.78 14.2739 106.78 13.767V1.00192C106.78 0.495002 107.162 0.0341797 107.671 0.0341797C108.179 0.0341797 108.561 0.495002 108.561 1.00192V13.767C108.561 14.2739 108.179 14.7348 107.671 14.7348Z" fill="white"/>
<path d="M110.341 14.7348C109.833 14.7348 109.451 14.2739 109.451 13.767V1.00192C109.451 0.495002 109.833 0.0341797 110.341 0.0341797C110.808 0.0341797 111.232 0.495002 111.232 1.00192V13.767C111.232 14.2739 110.808 14.7348 110.341 14.7348Z" fill="white"/>
<path d="M112.969 14.7348C112.503 14.7348 112.079 14.2739 112.079 13.767V1.00192C112.079 0.495002 112.503 0.0341797 112.969 0.0341797C113.478 0.0341797 113.86 0.495002 113.86 1.00192V13.767C113.86 14.2739 113.478 14.7348 112.969 14.7348Z" fill="white"/>
<path d="M115.64 14.7348C115.174 14.7348 114.75 14.2739 114.75 13.767V1.00192C114.75 0.495002 115.174 0.0341797 115.64 0.0341797C116.149 0.0341797 116.53 0.495002 116.53 1.00192V13.767C116.53 14.2739 116.149 14.7348 115.64 14.7348Z" fill="white"/>
<path d="M118.396 14.7348C117.887 14.7348 117.505 14.2739 117.505 13.767V1.00192C117.505 0.495002 117.887 0.0341797 118.396 0.0341797C118.862 0.0341797 119.286 0.495002 119.286 1.00192V13.767C119.286 14.2739 118.862 14.7348 118.396 14.7348Z" fill="white"/>
<path d="M121.067 14.7348C120.558 14.7348 120.176 14.2739 120.176 13.767V1.00192C120.176 0.495002 120.558 0.0341797 121.067 0.0341797C121.533 0.0341797 121.914 0.495002 121.914 1.00192V13.767C121.914 14.2739 121.533 14.7348 121.067 14.7348Z" fill="white"/>
<path d="M123.694 14.7348C123.228 14.7348 122.804 14.2739 122.804 13.767V1.00192C122.804 0.495002 123.228 0.0341797 123.694 0.0341797C124.203 0.0341797 124.585 0.495002 124.585 1.00192V13.767C124.585 14.2739 124.203 14.7348 123.694 14.7348Z" fill="white"/>
<path d="M126.365 14.7348C125.857 14.7348 125.475 14.2739 125.475 13.767V1.00192C125.475 0.495002 125.857 0.0341797 126.365 0.0341797C126.832 0.0341797 127.256 0.495002 127.256 1.00192V13.767C127.256 14.2739 126.832 14.7348 126.365 14.7348Z" fill="white"/>
<path d="M129.037 14.7348C128.528 14.7348 128.146 14.2739 128.146 13.767V1.00192C128.146 0.495002 128.528 0.0341797 129.037 0.0341797C129.503 0.0341797 129.927 0.495002 129.927 1.00192V13.767C129.927 14.2739 129.503 14.7348 129.037 14.7348Z" fill="white"/>
<path d="M131.664 14.7348C131.198 14.7348 130.774 14.2739 130.774 13.767V1.00192C130.774 0.495002 131.198 0.0341797 131.664 0.0341797C132.173 0.0341797 132.554 0.495002 132.554 1.00192V13.767C132.554 14.2739 132.173 14.7348 131.664 14.7348Z" fill="white"/>
<path d="M134.336 14.7348C133.869 14.7348 133.445 14.2739 133.445 13.767V1.00192C133.445 0.495002 133.869 0.0341797 134.336 0.0341797C134.844 0.0341797 135.226 0.495002 135.226 1.00192V13.767C135.226 14.2739 134.844 14.7348 134.336 14.7348Z" fill="white"/>
<path d="M137.006 14.7348C136.498 14.7348 136.116 14.2739 136.116 13.767V1.00192C136.116 0.495002 136.498 0.0341797 137.006 0.0341797C137.473 0.0341797 137.897 0.495002 137.897 1.00192V13.767C137.897 14.2739 137.473 14.7348 137.006 14.7348Z" fill="white"/>
<path d="M139.633 14.7348C139.167 14.7348 138.785 14.2739 138.785 13.767V1.00192C138.785 0.495002 139.167 0.0341797 139.633 0.0341797C140.142 0.0341797 140.523 0.495002 140.523 1.00192V13.767C140.523 14.2739 140.142 14.7348 139.633 14.7348Z" fill="white"/>
<path d="M142.305 14.7348C141.839 14.7348 141.415 14.2739 141.415 13.767V1.00192C141.415 0.495002 141.839 0.0341797 142.305 0.0341797C142.814 0.0341797 143.196 0.495002 143.196 1.00192V13.767C143.196 14.2739 142.814 14.7348 142.305 14.7348Z" fill="white"/>
<path d="M144.976 14.7348C144.467 14.7348 144.086 14.2739 144.086 13.767V1.00192C144.086 0.495002 144.467 0.0341797 144.976 0.0341797C145.442 0.0341797 145.866 0.495002 145.866 1.00192V13.767C145.866 14.2739 145.442 14.7348 144.976 14.7348Z" fill="#505050"/>
<path d="M147.645 14.7348C147.136 14.7348 146.755 14.2739 146.755 13.767V1.00192C146.755 0.495002 147.136 0.0341797 147.645 0.0341797C148.111 0.0341797 148.535 0.495002 148.535 1.00192V13.767C148.535 14.2739 148.111 14.7348 147.645 14.7348Z" fill="#505050"/>
<path d="M150.275 14.7348C149.809 14.7348 149.385 14.2739 149.385 13.767V1.00192C149.385 0.495002 149.809 0.0341797 150.275 0.0341797C150.784 0.0341797 151.165 0.495002 151.165 1.00192V13.767C151.165 14.2739 150.784 14.7348 150.275 14.7348Z" fill="#505050"/>
<path d="M152.946 14.7348C152.48 14.7348 152.056 14.2739 152.056 13.767V1.00192C152.056 0.495002 152.48 0.0341797 152.946 0.0341797C153.455 0.0341797 153.836 0.495002 153.836 1.00192V13.767C153.836 14.2739 153.455 14.7348 152.946 14.7348Z" fill="#505050"/>
<path d="M155.615 14.7348C155.106 14.7348 154.725 14.2739 154.725 13.767V1.00192C154.725 0.495002 155.106 0.0341797 155.615 0.0341797C156.081 0.0341797 156.505 0.495002 156.505 1.00192V13.767C156.505 14.2739 156.081 14.7348 155.615 14.7348Z" fill="#505050"/>
<path d="M158.286 14.7348C157.777 14.7348 157.396 14.2739 157.396 13.767V1.00192C157.396 0.495002 157.777 0.0341797 158.286 0.0341797C158.752 0.0341797 159.134 0.495002 159.134 1.00192V13.767C159.134 14.2739 158.752 14.7348 158.286 14.7348Z" fill="#505050"/>
<path d="M160.916 14.7348C160.45 14.7348 160.026 14.2739 160.026 13.767V1.00192C160.026 0.495002 160.45 0.0341797 160.916 0.0341797C161.425 0.0341797 161.806 0.495002 161.806 1.00192V13.767C161.806 14.2739 161.425 14.7348 160.916 14.7348Z" fill="#505050"/>
<path d="M163.585 14.7348C163.076 14.7348 162.694 14.2739 162.694 13.767V1.00192C162.694 0.495002 163.076 0.0341797 163.585 0.0341797C164.051 0.0341797 164.475 0.495002 164.475 1.00192V13.767C164.475 14.2739 164.051 14.7348 163.585 14.7348Z" fill="#505050"/>
<path d="M166.256 14.7348C165.747 14.7348 165.366 14.2739 165.366 13.767V1.00192C165.366 0.495002 165.747 0.0341797 166.256 0.0341797C166.722 0.0341797 167.146 0.495002 167.146 1.00192V13.767C167.146 14.2739 166.722 14.7348 166.256 14.7348Z" fill="#505050"/>
<path d="M168.886 14.7348C168.42 14.7348 167.996 14.2739 167.996 13.767V1.00192C167.996 0.495002 168.42 0.0341797 168.886 0.0341797C169.395 0.0341797 169.776 0.495002 169.776 1.00192V13.767C169.776 14.2739 169.395 14.7348 168.886 14.7348Z" fill="#505050"/>
<path d="M171.555 14.7348C171.089 14.7348 170.665 14.2739 170.665 13.767V1.00192C170.665 0.495002 171.089 0.0341797 171.555 0.0341797C172.064 0.0341797 172.445 0.495002 172.445 1.00192V13.767C172.445 14.2739 172.064 14.7348 171.555 14.7348Z" fill="#505050"/>
<path d="M174.226 14.7348C173.717 14.7348 173.335 14.2739 173.335 13.767V1.00192C173.335 0.495002 173.717 0.0341797 174.226 0.0341797C174.692 0.0341797 175.116 0.495002 175.116 1.00192V13.767C175.116 14.2739 174.692 14.7348 174.226 14.7348Z" fill="#505050"/>
<path d="M176.855 14.7348C176.388 14.7348 176.007 14.2739 176.007 13.767V1.00192C176.007 0.495002 176.388 0.0341797 176.855 0.0341797C177.363 0.0341797 177.745 0.495002 177.745 1.00192V13.767C177.745 14.2739 177.363 14.7348 176.855 14.7348Z" fill="#505050"/>
<path d="M179.525 14.7348C179.059 14.7348 178.635 14.2739 178.635 13.767V1.00192C178.635 0.495002 179.059 0.0341797 179.525 0.0341797C180.034 0.0341797 180.415 0.495002 180.415 1.00192V13.767C180.415 14.2739 180.034 14.7348 179.525 14.7348Z" fill="#505050"/>
<path d="M182.196 14.7348C181.687 14.7348 181.306 14.2739 181.306 13.767V1.00192C181.306 0.495002 181.687 0.0341797 182.196 0.0341797C182.662 0.0341797 183.086 0.495002 183.086 1.00192V13.767C183.086 14.2739 182.662 14.7348 182.196 14.7348Z" fill="#505050"/>
<path d="M184.867 14.7348C184.358 14.7348 183.977 14.2739 183.977 13.767V1.00192C183.977 0.495002 184.358 0.0341797 184.867 0.0341797C185.333 0.0341797 185.757 0.495002 185.757 1.00192V13.767C185.757 14.2739 185.333 14.7348 184.867 14.7348Z" fill="#505050"/>
<path d="M187.495 14.7348C187.028 14.7348 186.604 14.2739 186.604 13.767V1.00192C186.604 0.495002 187.028 0.0341797 187.495 0.0341797C188.003 0.0341797 188.385 0.495002 188.385 1.00192V13.767C188.385 14.2739 188.003 14.7348 187.495 14.7348Z" fill="#505050"/>
<path d="M190.166 14.7348C189.699 14.7348 189.275 14.2739 189.275 13.767V1.00192C189.275 0.495002 189.699 0.0341797 190.166 0.0341797C190.632 0.0341797 191.056 0.495002 191.056 1.00192V13.767C191.056 14.2739 190.632 14.7348 190.166 14.7348Z" fill="#505050"/>
<path d="M192.837 14.7348C192.328 14.7348 191.946 14.2739 191.946 13.767V1.00192C191.946 0.495002 192.328 0.0341797 192.837 0.0341797C193.303 0.0341797 193.727 0.495002 193.727 1.00192V13.767C193.727 14.2739 193.303 14.7348 192.837 14.7348Z" fill="#505050"/>
<path d="M195.465 14.7348C194.999 14.7348 194.617 14.2739 194.617 13.767V1.00192C194.617 0.495002 194.999 0.0341797 195.465 0.0341797C195.974 0.0341797 196.355 0.495002 196.355 1.00192V13.767C196.355 14.2739 195.974 14.7348 195.465 14.7348Z" fill="#505050"/>
<path d="M198.135 14.7348C197.669 14.7348 197.245 14.2739 197.245 13.767V1.00192C197.245 0.495002 197.669 0.0341797 198.135 0.0341797C198.644 0.0341797 199.026 0.495002 199.026 1.00192V13.767C199.026 14.2739 198.644 14.7348 198.135 14.7348Z" fill="#505050"/>
<path d="M200.806 14.7348C200.298 14.7348 199.916 14.2739 199.916 13.767V1.00192C199.916 0.495002 200.298 0.0341797 200.806 0.0341797C201.273 0.0341797 201.697 0.495002 201.697 1.00192V13.767C201.697 14.2739 201.273 14.7348 200.806 14.7348Z" fill="#505050"/>
<path d="M203.478 14.7348C202.969 14.7348 202.587 14.2739 202.587 13.767V1.00192C202.587 0.495002 202.969 0.0341797 203.478 0.0341797C203.944 0.0341797 204.325 0.495002 204.325 1.00192V13.767C204.325 14.2739 203.944 14.7348 203.478 14.7348Z" fill="#505050"/>
<path d="M206.105 14.7348C205.639 14.7348 205.215 14.2739 205.215 13.767V1.00192C205.215 0.495002 205.639 0.0341797 206.105 0.0341797C206.614 0.0341797 206.996 0.495002 206.996 1.00192V13.767C206.996 14.2739 206.614 14.7348 206.105 14.7348Z" fill="#505050"/>
<path d="M208.776 14.7348C208.31 14.7348 207.886 14.2739 207.886 13.767V1.00192C207.886 0.495002 208.31 0.0341797 208.776 0.0341797C209.285 0.0341797 209.666 0.495002 209.666 1.00192V13.767C209.666 14.2739 209.285 14.7348 208.776 14.7348Z" fill="#505050"/>
<path d="M211.447 14.7348C210.939 14.7348 210.557 14.2739 210.557 13.767V1.00192C210.557 0.495002 210.939 0.0341797 211.447 0.0341797C211.914 0.0341797 212.338 0.495002 212.338 1.00192V13.767C212.338 14.2739 211.914 14.7348 211.447 14.7348Z" fill="#505050"/>
<path d="M214.076 14.7348C213.61 14.7348 213.228 14.2739 213.228 13.767V1.00192C213.228 0.495002 213.61 0.0341797 214.076 0.0341797C214.585 0.0341797 214.966 0.495002 214.966 1.00192V13.767C214.966 14.2739 214.585 14.7348 214.076 14.7348Z" fill="#505050"/>
<path d="M216.746 14.7348C216.28 14.7348 215.856 14.2739 215.856 13.767V1.00192C215.856 0.495002 216.28 0.0341797 216.746 0.0341797C217.255 0.0341797 217.636 0.495002 217.636 1.00192V13.767C217.636 14.2739 217.255 14.7348 216.746 14.7348Z" fill="#505050"/>
<path d="M219.417 14.7348C218.909 14.7348 218.527 14.2739 218.527 13.767V1.00192C218.527 0.495002 218.909 0.0341797 219.417 0.0341797C219.884 0.0341797 220.308 0.495002 220.308 1.00192V13.767C220.308 14.2739 219.884 14.7348 219.417 14.7348Z" fill="#505050"/>
<path d="M222.088 14.7348C221.58 14.7348 221.198 14.2739 221.198 13.767V1.00192C221.198 0.495002 221.58 0.0341797 222.088 0.0341797C222.555 0.0341797 222.936 0.495002 222.936 1.00192V13.767C222.936 14.2739 222.555 14.7348 222.088 14.7348Z" fill="#505050"/>
<path d="M224.716 14.7348C224.25 14.7348 223.826 14.2739 223.826 13.767V1.00192C223.826 0.495002 224.25 0.0341797 224.716 0.0341797C225.225 0.0341797 225.606 0.495002 225.606 1.00192V13.767C225.606 14.2739 225.225 14.7348 224.716 14.7348Z" fill="#505050"/>
<path d="M227.387 14.7348C226.878 14.7348 226.497 14.2739 226.497 13.767V1.00192C226.497 0.495002 226.878 0.0341797 227.387 0.0341797C227.896 0.0341797 228.277 0.495002 228.277 1.00192V13.767C228.277 14.2739 227.896 14.7348 227.387 14.7348Z" fill="#505050"/>
<path d="M230.058 14.7348C229.55 14.7348 229.168 14.2739 229.168 13.767V1.00192C229.168 0.495002 229.55 0.0341797 230.058 0.0341797C230.525 0.0341797 230.948 0.495002 230.948 1.00192V13.767C230.948 14.2739 230.525 14.7348 230.058 14.7348Z" fill="#505050"/>
<path d="M232.685 14.7348C232.218 14.7348 231.837 14.2739 231.837 13.767V1.00192C231.837 0.495002 232.218 0.0341797 232.685 0.0341797C233.193 0.0341797 233.575 0.495002 233.575 1.00192V13.767C233.575 14.2739 233.193 14.7348 232.685 14.7348Z" fill="#505050"/>
<path d="M235.357 14.7348C234.891 14.7348 234.467 14.2739 234.467 13.767V1.00192C234.467 0.495002 234.891 0.0341797 235.357 0.0341797C235.866 0.0341797 236.247 0.495002 236.247 1.00192V13.767C236.247 14.2739 235.866 14.7348 235.357 14.7348Z" fill="#505050"/>
<path d="M238.028 14.7348C237.519 14.7348 237.138 14.2739 237.138 13.767V1.00192C237.138 0.495002 237.519 0.0341797 238.028 0.0341797C238.494 0.0341797 238.918 0.495002 238.918 1.00192V13.767C238.918 14.2739 238.494 14.7348 238.028 14.7348Z" fill="#505050"/>
<path d="M240.697 14.7348C240.188 14.7348 239.807 14.2739 239.807 13.767V1.00192C239.807 0.495002 240.188 0.0341797 240.697 0.0341797C241.163 0.0341797 241.545 0.495002 241.545 1.00192V13.767C241.545 14.2739 241.163 14.7348 240.697 14.7348Z" fill="#505050"/>
<path d="M243.327 14.7348C242.86 14.7348 242.437 14.2739 242.437 13.767V1.00192C242.437 0.495002 242.86 0.0341797 243.327 0.0341797C243.835 0.0341797 244.217 0.495002 244.217 1.00192V13.767C244.217 14.2739 243.835 14.7348 243.327 14.7348Z" fill="#505050"/>
<path d="M245.998 14.7348C245.489 14.7348 245.108 14.2739 245.108 13.767V1.00192C245.108 0.495002 245.489 0.0341797 245.998 0.0341797C246.464 0.0341797 246.888 0.495002 246.888 1.00192V13.767C246.888 14.2739 246.464 14.7348 245.998 14.7348Z" fill="#505050"/>
<path d="M248.667 14.7348C248.158 14.7348 247.776 14.2739 247.776 13.767V1.00192C247.776 0.495002 248.158 0.0341797 248.667 0.0341797C249.133 0.0341797 249.557 0.495002 249.557 1.00192V13.767C249.557 14.2739 249.133 14.7348 248.667 14.7348Z" fill="#505050"/>
<path d="M251.295 14.7348C250.829 14.7348 250.448 14.2739 250.448 13.767V1.00192C250.448 0.495002 250.829 0.0341797 251.295 0.0341797C251.804 0.0341797 252.186 0.495002 252.186 1.00192V13.767C252.186 14.2739 251.804 14.7348 251.295 14.7348Z" fill="#505050"/>
<path d="M253.968 14.7348C253.502 14.7348 253.078 14.2739 253.078 13.767V1.00192C253.078 0.495002 253.502 0.0341797 253.968 0.0341797C254.477 0.0341797 254.858 0.495002 254.858 1.00192V13.767C254.858 14.2739 254.477 14.7348 253.968 14.7348Z" fill="#505050"/>
<path d="M256.637 14.7348C256.128 14.7348 255.746 14.2739 255.746 13.767V1.00192C255.746 0.495002 256.128 0.0341797 256.637 0.0341797C257.103 0.0341797 257.527 0.495002 257.527 1.00192V13.767C257.527 14.2739 257.103 14.7348 256.637 14.7348Z" fill="#505050"/>
<path d="M259.308 14.7348C258.799 14.7348 258.417 14.2739 258.417 13.767V1.00192C258.417 0.495002 258.799 0.0341797 259.308 0.0341797C259.774 0.0341797 260.156 0.495002 260.156 1.00192V13.767C260.156 14.2739 259.774 14.7348 259.308 14.7348Z" fill="#505050"/>
<path d="M261.935 14.7348C261.469 14.7348 261.045 14.2739 261.045 13.767V1.00192C261.045 0.495002 261.469 0.0341797 261.935 0.0341797C262.444 0.0341797 262.826 0.495002 262.826 1.00192V13.767C262.826 14.2739 262.444 14.7348 261.935 14.7348Z" fill="#505050"/>
<path d="M264.607 14.7348C264.098 14.7348 263.716 14.2739 263.716 13.767V1.00192C263.716 0.495002 264.098 0.0341797 264.607 0.0341797C265.073 0.0341797 265.497 0.495002 265.497 1.00192V13.767C265.497 14.2739 265.073 14.7348 264.607 14.7348Z" fill="#505050"/>
<path d="M1.68906 14.7348C1.22274 14.7348 0.798828 14.2739 0.798828 13.767V1.00192C0.798828 0.495002 1.22274 0.0341797 1.68906 0.0341797C2.19777 0.0341797 2.57932 0.495002 2.57932 1.00192V13.767C2.57932 14.2739 2.19777 14.7348 1.68906 14.7348Z" fill="white"/>
<path d="M4.35803 14.7348C3.84932 14.7348 3.46777 14.2739 3.46777 13.767V1.00192C3.46777 0.495002 3.84932 0.0341797 4.35803 0.0341797C4.82435 0.0341797 5.24827 0.495002 5.24827 1.00192V13.767C5.24827 14.2739 4.82435 14.7348 4.35803 14.7348Z" fill="white"/>
<path d="M7.02893 14.7348C6.52022 14.7348 6.13867 14.2739 6.13867 13.767V1.00192C6.13867 0.495002 6.52022 0.0341797 7.02893 0.0341797C7.49525 0.0341797 7.91917 0.495002 7.91917 1.00192V13.767C7.91917 14.2739 7.49525 14.7348 7.02893 14.7348Z" fill="white"/>
<path d="M9.65882 14.7348C9.1925 14.7348 8.76855 14.2739 8.76855 13.767V1.00192C8.76855 0.495002 9.1925 0.0341797 9.65882 0.0341797C10.1675 0.0341797 10.5491 0.495002 10.5491 1.00192V13.767C10.5491 14.2739 10.1675 14.7348 9.65882 14.7348Z" fill="white"/>
<path d="M12.3278 14.7348C11.8614 14.7348 11.4375 14.2739 11.4375 13.767V1.00192C11.4375 0.495002 11.8614 0.0341797 12.3278 0.0341797C12.8365 0.0341797 13.218 0.495002 13.218 1.00192V13.767C13.218 14.2739 12.8365 14.7348 12.3278 14.7348Z" fill="white"/>
<path d="M14.9991 14.7348C14.4904 14.7348 14.1089 14.2739 14.1089 13.767V1.00192C14.1089 0.495002 14.4904 0.0341797 14.9991 0.0341797C15.4654 0.0341797 15.8894 0.495002 15.8894 1.00192V13.767C15.8894 14.2739 15.4654 14.7348 14.9991 14.7348Z" fill="white"/>
<path d="M17.67 14.7348C17.1613 14.7348 16.7798 14.2739 16.7798 13.767V1.00192C16.7798 0.495002 17.1613 0.0341797 17.67 0.0341797C18.1363 0.0341797 18.5179 0.495002 18.5179 1.00192V13.767C18.5179 14.2739 18.1363 14.7348 17.67 14.7348Z" fill="white"/>
<path d="M20.2979 14.7348C19.8316 14.7348 19.4077 14.2739 19.4077 13.767V1.00192C19.4077 0.495002 19.8316 0.0341797 20.2979 0.0341797C20.8067 0.0341797 21.1882 0.495002 21.1882 1.00192V13.767C21.1882 14.2739 20.8067 14.7348 20.2979 14.7348Z" fill="white"/>
<path d="M22.9688 14.7348C22.4601 14.7348 22.0786 14.2739 22.0786 13.767V1.00192C22.0786 0.495002 22.4601 0.0341797 22.9688 0.0341797C23.4352 0.0341797 23.8591 0.495002 23.8591 1.00192V13.767C23.8591 14.2739 23.4352 14.7348 22.9688 14.7348Z" fill="white"/>
<path d="M25.6397 14.7348C25.131 14.7348 24.7495 14.2739 24.7495 13.767V1.00192C24.7495 0.495002 25.131 0.0341797 25.6397 0.0341797C26.1061 0.0341797 26.53 0.495002 26.53 1.00192V13.767C26.53 14.2739 26.1061 14.7348 25.6397 14.7348Z" fill="white"/>
<path d="M28.1832 14.7348C27.7169 14.7348 27.293 14.2739 27.293 13.767V1.00192C27.293 0.495002 27.7169 0.0341797 28.1832 0.0341797C28.6919 0.0341797 29.0735 0.495002 29.0735 1.00192V13.767C29.0735 14.2739 28.6919 14.7348 28.1832 14.7348Z" fill="white"/>
<path d="M30.8541 14.7348C30.3878 14.7348 29.9639 14.2739 29.9639 13.767V1.00192C29.9639 0.495002 30.3878 0.0341797 30.8541 0.0341797C31.3628 0.0341797 31.7444 0.495002 31.7444 1.00192V13.767C31.7444 14.2739 31.3628 14.7348 30.8541 14.7348Z" fill="white"/>
</svg>
