<svg width="266" height="15" viewBox="0 0 266 15" fill="none" xmlns="http://www.w3.org/2000/svg">
<path d="M233.066 14.7348C233.532 14.7348 233.956 14.2739 233.956 13.767V1.00192C233.956 0.495002 233.532 0.0341797 233.066 0.0341797C232.557 0.0341797 232.176 0.495002 232.176 1.00192V13.767C232.176 14.2739 232.557 14.7348 233.066 14.7348Z" fill="white"/>
<path d="M230.397 14.7348C230.906 14.7348 231.287 14.2739 231.287 13.767V1.00192C231.287 0.495002 230.906 0.0341797 230.397 0.0341797C229.931 0.0341797 229.507 0.495002 229.507 1.00192V13.767C229.507 14.2739 229.931 14.7348 230.397 14.7348Z" fill="white"/>
<path d="M227.769 14.7348C228.235 14.7348 228.616 14.2739 228.616 13.767V1.00192C228.616 0.495002 228.235 0.0341797 227.769 0.0341797C227.26 0.0341797 226.878 0.495002 226.878 1.00192V13.767C226.878 14.2739 227.26 14.7348 227.769 14.7348Z" fill="white"/>
<path d="M225.096 14.7348C225.562 14.7348 225.986 14.2739 225.986 13.767V1.00192C225.986 0.495002 225.562 0.0341797 225.096 0.0341797C224.587 0.0341797 224.206 0.495002 224.206 1.00192V13.767C224.206 14.2739 224.587 14.7348 225.096 14.7348Z" fill="white"/>
<path d="M222.427 14.7348C222.936 14.7348 223.318 14.2739 223.318 13.767V1.00192C223.318 0.495002 222.936 0.0341797 222.427 0.0341797C221.961 0.0341797 221.537 0.495002 221.537 1.00192V13.767C221.537 14.2739 221.961 14.7348 222.427 14.7348Z" fill="white"/>
<path d="M219.756 14.7348C220.265 14.7348 220.646 14.2739 220.646 13.767V1.00192C220.646 0.495002 220.265 0.0341797 219.756 0.0341797C219.29 0.0341797 218.866 0.495002 218.866 1.00192V13.767C218.866 14.2739 219.29 14.7348 219.756 14.7348Z" fill="white"/>
<path d="M217.129 14.7348C217.595 14.7348 218.019 14.2739 218.019 13.767V1.00192C218.019 0.495002 217.595 0.0341797 217.129 0.0341797C216.62 0.0341797 216.238 0.495002 216.238 1.00192V13.767C216.238 14.2739 216.62 14.7348 217.129 14.7348Z" fill="white"/>
<path d="M214.457 14.7348C214.924 14.7348 215.348 14.2739 215.348 13.767V1.00192C215.348 0.495002 214.924 0.0341797 214.457 0.0341797C213.949 0.0341797 213.567 0.495002 213.567 1.00192V13.767C213.567 14.2739 213.949 14.7348 214.457 14.7348Z" fill="white"/>
<path d="M211.786 14.7348C212.295 14.7348 212.677 14.2739 212.677 13.767V1.00192C212.677 0.495002 212.295 0.0341797 211.786 0.0341797C211.32 0.0341797 210.896 0.495002 210.896 1.00192V13.767C210.896 14.2739 211.32 14.7348 211.786 14.7348Z" fill="white"/>
<path d="M209.158 14.7348C209.624 14.7348 210.006 14.2739 210.006 13.767V1.00192C210.006 0.495002 209.624 0.0341797 209.158 0.0341797C208.649 0.0341797 208.268 0.495002 208.268 1.00192V13.767C208.268 14.2739 208.649 14.7348 209.158 14.7348Z" fill="white"/>
<path d="M206.487 14.7348C206.954 14.7348 207.378 14.2739 207.378 13.767V1.00192C207.378 0.495002 206.954 0.0341797 206.487 0.0341797C205.979 0.0341797 205.597 0.495002 205.597 1.00192V13.767C205.597 14.2739 205.979 14.7348 206.487 14.7348Z" fill="white"/>
<path d="M203.817 14.7348C204.325 14.7348 204.707 14.2739 204.707 13.767V1.00192C204.707 0.495002 204.325 0.0341797 203.817 0.0341797C203.35 0.0341797 202.926 0.495002 202.926 1.00192V13.767C202.926 14.2739 203.35 14.7348 203.817 14.7348Z" fill="white"/>
<path d="M201.145 14.7348C201.654 14.7348 202.036 14.2739 202.036 13.767V1.00192C202.036 0.495002 201.654 0.0341797 201.145 0.0341797C200.679 0.0341797 200.255 0.495002 200.255 1.00192V13.767C200.255 14.2739 200.679 14.7348 201.145 14.7348Z" fill="white"/>
<path d="M198.518 14.7348C198.984 14.7348 199.408 14.2739 199.408 13.767V1.00192C199.408 0.495002 198.984 0.0341797 198.518 0.0341797C198.009 0.0341797 197.627 0.495002 197.627 1.00192V13.767C197.627 14.2739 198.009 14.7348 198.518 14.7348Z" fill="white"/>
<path d="M195.847 14.7348C196.313 14.7348 196.737 14.2739 196.737 13.767V1.00192C196.737 0.495002 196.313 0.0341797 195.847 0.0341797C195.38 0.0341797 194.957 0.495002 194.957 1.00192V13.767C194.957 14.2739 195.38 14.7348 195.847 14.7348Z" fill="white"/>
<path d="M193.176 14.7348C193.684 14.7348 194.066 14.2739 194.066 13.767V1.00192C194.066 0.495002 193.684 0.0341797 193.176 0.0341797C192.709 0.0341797 192.285 0.495002 192.285 1.00192V13.767C192.285 14.2739 192.709 14.7348 193.176 14.7348Z" fill="white"/>
<path d="M190.547 14.7348C191.013 14.7348 191.395 14.2739 191.395 13.767V1.00192C191.395 0.495002 191.013 0.0341797 190.547 0.0341797C190.038 0.0341797 189.657 0.495002 189.657 1.00192V13.767C189.657 14.2739 190.038 14.7348 190.547 14.7348Z" fill="white"/>
<path d="M187.877 14.7348C188.343 14.7348 188.767 14.2739 188.767 13.767V1.00192C188.767 0.495002 188.343 0.0341797 187.877 0.0341797C187.368 0.0341797 186.987 0.495002 186.987 1.00192V13.767C186.987 14.2739 187.368 14.7348 187.877 14.7348Z" fill="white"/>
<path d="M185.206 14.7348C185.714 14.7348 186.096 14.2739 186.096 13.767V1.00192C186.096 0.495002 185.714 0.0341797 185.206 0.0341797C184.739 0.0341797 184.315 0.495002 184.315 1.00192V13.767C184.315 14.2739 184.739 14.7348 185.206 14.7348Z" fill="white"/>
<path d="M182.535 14.7348C183.044 14.7348 183.425 14.2739 183.425 13.767V1.00192C183.425 0.495002 183.044 0.0341797 182.535 0.0341797C182.068 0.0341797 181.687 0.495002 181.687 1.00192V13.767C181.687 14.2739 182.068 14.7348 182.535 14.7348Z" fill="white"/>
<path d="M179.907 14.7348C180.373 14.7348 180.797 14.2739 180.797 13.767V1.00192C180.797 0.495002 180.373 0.0341797 179.907 0.0341797C179.398 0.0341797 179.017 0.495002 179.017 1.00192V13.767C179.017 14.2739 179.398 14.7348 179.907 14.7348Z" fill="white"/>
<path d="M177.236 14.7348C177.702 14.7348 178.126 14.2739 178.126 13.767V1.00192C178.126 0.495002 177.702 0.0341797 177.236 0.0341797C176.727 0.0341797 176.345 0.495002 176.345 1.00192V13.767C176.345 14.2739 176.727 14.7348 177.236 14.7348Z" fill="white"/>
<path d="M174.565 14.7348C175.074 14.7348 175.455 14.2739 175.455 13.767V1.00192C175.455 0.495002 175.074 0.0341797 174.565 0.0341797C174.099 0.0341797 173.675 0.495002 173.675 1.00192V13.767C173.675 14.2739 174.099 14.7348 174.565 14.7348Z" fill="white"/>
<path d="M171.936 14.7348C172.403 14.7348 172.784 14.2739 172.784 13.767V1.00192C172.784 0.495002 172.403 0.0341797 171.936 0.0341797C171.428 0.0341797 171.046 0.495002 171.046 1.00192V13.767C171.046 14.2739 171.428 14.7348 171.936 14.7348Z" fill="white"/>
<path d="M169.266 14.7348C169.732 14.7348 170.156 14.2739 170.156 13.767V1.00192C170.156 0.495002 169.732 0.0341797 169.266 0.0341797C168.757 0.0341797 168.376 0.495002 168.376 1.00192V13.767C168.376 14.2739 168.757 14.7348 169.266 14.7348Z" fill="white"/>
<path d="M166.595 14.7348C167.104 14.7348 167.485 14.2739 167.485 13.767V1.00192C167.485 0.495002 167.104 0.0341797 166.595 0.0341797C166.129 0.0341797 165.705 0.495002 165.705 1.00192V13.767C165.705 14.2739 166.129 14.7348 166.595 14.7348Z" fill="white"/>
<path d="M163.924 14.7348C164.433 14.7348 164.814 14.2739 164.814 13.767V1.00192C164.814 0.495002 164.433 0.0341797 163.924 0.0341797C163.458 0.0341797 163.076 0.495002 163.076 1.00192V13.767C163.076 14.2739 163.458 14.7348 163.924 14.7348Z" fill="white"/>
<path d="M161.296 14.7348C161.762 14.7348 162.186 14.2739 162.186 13.767V1.00192C162.186 0.495002 161.762 0.0341797 161.296 0.0341797C160.787 0.0341797 160.406 0.495002 160.406 1.00192V13.767C160.406 14.2739 160.787 14.7348 161.296 14.7348Z" fill="white"/>
<path d="M158.625 14.7348C159.134 14.7348 159.515 14.2739 159.515 13.767V1.00192C159.515 0.495002 159.134 0.0341797 158.625 0.0341797C158.116 0.0341797 157.735 0.495002 157.735 1.00192V13.767C157.735 14.2739 158.116 14.7348 158.625 14.7348Z" fill="white"/>
<path d="M155.954 14.7348C156.463 14.7348 156.844 14.2739 156.844 13.767V1.00192C156.844 0.495002 156.463 0.0341797 155.954 0.0341797C155.488 0.0341797 155.064 0.495002 155.064 1.00192V13.767C155.064 14.2739 155.488 14.7348 155.954 14.7348Z" fill="white"/>
<path d="M153.326 14.7348C153.793 14.7348 154.217 14.2739 154.217 13.767V1.00192C154.217 0.495002 153.793 0.0341797 153.326 0.0341797C152.818 0.0341797 152.436 0.495002 152.436 1.00192V13.767C152.436 14.2739 152.818 14.7348 153.326 14.7348Z" fill="white"/>
<path d="M150.655 14.7348C151.121 14.7348 151.545 14.2739 151.545 13.767V1.00192C151.545 0.495002 151.121 0.0341797 150.655 0.0341797C150.146 0.0341797 149.765 0.495002 149.765 1.00192V13.767C149.765 14.2739 150.146 14.7348 150.655 14.7348Z" fill="white"/>
<path d="M147.9 14.7348C148.409 14.7348 148.79 14.2739 148.79 13.767V1.00192C148.79 0.495002 148.409 0.0341797 147.9 0.0341797C147.433 0.0341797 147.01 0.495002 147.01 1.00192V13.767C147.01 14.2739 147.433 14.7348 147.9 14.7348Z" fill="white"/>
<path d="M145.229 14.7348C145.738 14.7348 146.119 14.2739 146.119 13.767V1.00192C146.119 0.495002 145.738 0.0341797 145.229 0.0341797C144.763 0.0341797 144.381 0.495002 144.381 1.00192V13.767C144.381 14.2739 144.763 14.7348 145.229 14.7348Z" fill="white"/>
<path d="M142.601 14.7348C143.067 14.7348 143.491 14.2739 143.491 13.767V1.00192C143.491 0.495002 143.067 0.0341797 142.601 0.0341797C142.092 0.0341797 141.711 0.495002 141.711 1.00192V13.767C141.711 14.2739 142.092 14.7348 142.601 14.7348Z" fill="white"/>
<path d="M139.93 14.7348C140.439 14.7348 140.82 14.2739 140.82 13.767V1.00192C140.82 0.495002 140.439 0.0341797 139.93 0.0341797C139.464 0.0341797 139.04 0.495002 139.04 1.00192V13.767C139.04 14.2739 139.464 14.7348 139.93 14.7348Z" fill="white"/>
<path d="M137.259 14.7348C137.768 14.7348 138.149 14.2739 138.149 13.767V1.00192C138.149 0.495002 137.768 0.0341797 137.259 0.0341797C136.793 0.0341797 136.369 0.495002 136.369 1.00192V13.767C136.369 14.2739 136.793 14.7348 137.259 14.7348Z" fill="white"/>
<path d="M134.631 14.7348C135.098 14.7348 135.521 14.2739 135.521 13.767V1.00192C135.521 0.495002 135.098 0.0341797 134.631 0.0341797C134.123 0.0341797 133.741 0.495002 133.741 1.00192V13.767C133.741 14.2739 134.123 14.7348 134.631 14.7348Z" fill="white"/>
<path d="M131.96 14.7348C132.426 14.7348 132.85 14.2739 132.85 13.767V1.00192C132.85 0.495002 132.426 0.0341797 131.96 0.0341797C131.451 0.0341797 131.07 0.495002 131.07 1.00192V13.767C131.07 14.2739 131.451 14.7348 131.96 14.7348Z" fill="white"/>
<path d="M129.289 14.7348C129.798 14.7348 130.179 14.2739 130.179 13.767V1.00192C130.179 0.495002 129.798 0.0341797 129.289 0.0341797C128.823 0.0341797 128.399 0.495002 128.399 1.00192V13.767C128.399 14.2739 128.823 14.7348 129.289 14.7348Z" fill="white"/>
<path d="M126.663 14.7348C127.129 14.7348 127.51 14.2739 127.51 13.767V1.00192C127.51 0.495002 127.129 0.0341797 126.663 0.0341797C126.154 0.0341797 125.772 0.495002 125.772 1.00192V13.767C125.772 14.2739 126.154 14.7348 126.663 14.7348Z" fill="white"/>
<path d="M123.99 14.7348C124.457 14.7348 124.881 14.2739 124.881 13.767V1.00192C124.881 0.495002 124.457 0.0341797 123.99 0.0341797C123.482 0.0341797 123.1 0.495002 123.1 1.00192V13.767C123.1 14.2739 123.482 14.7348 123.99 14.7348Z" fill="white"/>
<path d="M121.319 14.7348C121.828 14.7348 122.209 14.2739 122.209 13.767V1.00192C122.209 0.495002 121.828 0.0341797 121.319 0.0341797C120.853 0.0341797 120.429 0.495002 120.429 1.00192V13.767C120.429 14.2739 120.853 14.7348 121.319 14.7348Z" fill="white"/>
<path d="M118.65 14.7348C119.159 14.7348 119.541 14.2739 119.541 13.767V1.00192C119.541 0.495002 119.159 0.0341797 118.65 0.0341797C118.184 0.0341797 117.76 0.495002 117.76 1.00192V13.767C117.76 14.2739 118.184 14.7348 118.65 14.7348Z" fill="white"/>
<path d="M116.02 14.7348C116.487 14.7348 116.911 14.2739 116.911 13.767V1.00192C116.911 0.495002 116.487 0.0341797 116.02 0.0341797C115.512 0.0341797 115.13 0.495002 115.13 1.00192V13.767C115.13 14.2739 115.512 14.7348 116.02 14.7348Z" fill="white"/>
<path d="M113.349 14.7348C113.816 14.7348 114.24 14.2739 114.24 13.767V1.00192C114.24 0.495002 113.816 0.0341797 113.349 0.0341797C112.841 0.0341797 112.459 0.495002 112.459 1.00192V13.767C112.459 14.2739 112.841 14.7348 113.349 14.7348Z" fill="white"/>
<path d="M110.68 14.7348C111.189 14.7348 111.571 14.2739 111.571 13.767V1.00192C111.571 0.495002 111.189 0.0341797 110.68 0.0341797C110.214 0.0341797 109.79 0.495002 109.79 1.00192V13.767C109.79 14.2739 110.214 14.7348 110.68 14.7348Z" fill="white"/>
<path d="M108.009 14.7348C108.518 14.7348 108.9 14.2739 108.9 13.767V1.00192C108.9 0.495002 108.518 0.0341797 108.009 0.0341797C107.543 0.0341797 107.162 0.495002 107.162 1.00192V13.767C107.162 14.2739 107.543 14.7348 108.009 14.7348Z" fill="white"/>
<path d="M105.379 14.7348C105.846 14.7348 106.27 14.2739 106.27 13.767V1.00192C106.27 0.495002 105.846 0.0341797 105.379 0.0341797C104.871 0.0341797 104.489 0.495002 104.489 1.00192V13.767C104.489 14.2739 104.871 14.7348 105.379 14.7348Z" fill="white"/>
<path d="M102.711 14.7348C103.219 14.7348 103.601 14.2739 103.601 13.767V1.00192C103.601 0.495002 103.219 0.0341797 102.711 0.0341797C102.244 0.0341797 101.82 0.495002 101.82 1.00192V13.767C101.82 14.2739 102.244 14.7348 102.711 14.7348Z" fill="white"/>
<path d="M100.039 14.7348C100.548 14.7348 100.93 14.2739 100.93 13.767V1.00192C100.93 0.495002 100.548 0.0341797 100.039 0.0341797C99.5731 0.0341797 99.1492 0.495002 99.1492 1.00192V13.767C99.1492 14.2739 99.5731 14.7348 100.039 14.7348Z" fill="white"/>
<path d="M97.4096 14.7348C97.8759 14.7348 98.2998 14.2739 98.2998 13.767V1.00192C98.2998 0.495002 97.8759 0.0341797 97.4096 0.0341797C96.9009 0.0341797 96.5193 0.495002 96.5193 1.00192V13.767C96.5193 14.2739 96.9009 14.7348 97.4096 14.7348Z" fill="white"/>
<path d="M94.7406 14.7348C95.2069 14.7348 95.6309 14.2739 95.6309 13.767V1.00192C95.6309 0.495002 95.2069 0.0341797 94.7406 0.0341797C94.2319 0.0341797 93.8503 0.495002 93.8503 1.00192V13.767C93.8503 14.2739 94.2319 14.7348 94.7406 14.7348Z" fill="white"/>
<path d="M92.0697 14.7348C92.5784 14.7348 92.96 14.2739 92.96 13.767V1.00192C92.96 0.495002 92.5784 0.0341797 92.0697 0.0341797C91.6034 0.0341797 91.1795 0.495002 91.1795 1.00192V13.767C91.1795 14.2739 91.6034 14.7348 92.0697 14.7348Z" fill="white"/>
<path d="M89.441 14.7348C89.9073 14.7348 90.2888 14.2739 90.2888 13.767V1.00192C90.2888 0.495002 89.9073 0.0341797 89.441 0.0341797C88.9323 0.0341797 88.5507 0.495002 88.5507 1.00192V13.767C88.5507 14.2739 88.9323 14.7348 89.441 14.7348Z" fill="white"/>
<path d="M86.7707 14.7348C87.237 14.7348 87.6609 14.2739 87.6609 13.767V1.00192C87.6609 0.495002 87.237 0.0341797 86.7707 0.0341797C86.2619 0.0341797 85.8804 0.495002 85.8804 1.00192V13.767C85.8804 14.2739 86.2619 14.7348 86.7707 14.7348Z" fill="white"/>
<path d="M84.0998 14.7348C84.6085 14.7348 84.99 14.2739 84.99 13.767V1.00192C84.99 0.495002 84.6085 0.0341797 84.0998 0.0341797C83.6334 0.0341797 83.2095 0.495002 83.2095 1.00192V13.767C83.2095 14.2739 83.6334 14.7348 84.0998 14.7348Z" fill="white"/>
<path d="M81.4289 14.7348C81.9376 14.7348 82.3191 14.2739 82.3191 13.767V1.00192C82.3191 0.495002 81.9376 0.0341797 81.4289 0.0341797C80.9625 0.0341797 80.5386 0.495002 80.5386 1.00192V13.767C80.5386 14.2739 80.9625 14.7348 81.4289 14.7348Z" fill="white"/>
<path d="M78.8009 14.7348C79.2672 14.7348 79.6912 14.2739 79.6912 13.767V1.00192C79.6912 0.495002 79.2672 0.0341797 78.8009 0.0341797C78.2922 0.0341797 77.9107 0.495002 77.9107 1.00192V13.767C77.9107 14.2739 78.2922 14.7348 78.8009 14.7348Z" fill="white"/>
<path d="M76.13 14.7348C76.5963 14.7348 77.0203 14.2739 77.0203 13.767V1.00192C77.0203 0.495002 76.5963 0.0341797 76.13 0.0341797C75.6637 0.0341797 75.2397 0.495002 75.2397 1.00192V13.767C75.2397 14.2739 75.6637 14.7348 76.13 14.7348Z" fill="white"/>
<path d="M73.4589 14.7348C73.9676 14.7348 74.3491 14.2739 74.3491 13.767V1.00192C74.3491 0.495002 73.9676 0.0341797 73.4589 0.0341797C72.9926 0.0341797 72.5687 0.495002 72.5687 1.00192V13.767C72.5687 14.2739 72.9926 14.7348 73.4589 14.7348Z" fill="white"/>
<path d="M70.8301 14.7348C71.2964 14.7348 71.678 14.2739 71.678 13.767V1.00192C71.678 0.495002 71.2964 0.0341797 70.8301 0.0341797C70.3214 0.0341797 69.9398 0.495002 69.9398 1.00192V13.767C69.9398 14.2739 70.3214 14.7348 70.8301 14.7348Z" fill="white"/>
<path d="M68.1601 14.7348C68.6264 14.7348 69.0503 14.2739 69.0503 13.767V1.00192C69.0503 0.495002 68.6264 0.0341797 68.1601 0.0341797C67.6513 0.0341797 67.2698 0.495002 67.2698 1.00192V13.767C67.2698 14.2739 67.6513 14.7348 68.1601 14.7348Z" fill="white"/>
<path d="M65.4891 14.7348C65.9978 14.7348 66.3794 14.2739 66.3794 13.767V1.00192C66.3794 0.495002 65.9978 0.0341797 65.4891 0.0341797C65.0228 0.0341797 64.5989 0.495002 64.5989 1.00192V13.767C64.5989 14.2739 65.0228 14.7348 65.4891 14.7348Z" fill="white"/>
<path d="M62.8178 14.7348C63.3265 14.7348 63.708 14.2739 63.708 13.767V1.00192C63.708 0.495002 63.3265 0.0341797 62.8178 0.0341797C62.3515 0.0341797 61.9699 0.495002 61.9699 1.00192V13.767C61.9699 14.2739 62.3515 14.7348 62.8178 14.7348Z" fill="white"/>
<path d="M60.19 14.7348C60.6564 14.7348 61.0803 14.2739 61.0803 13.767V1.00192C61.0803 0.495002 60.6564 0.0341797 60.19 0.0341797C59.6813 0.0341797 59.2998 0.495002 59.2998 1.00192V13.767C59.2998 14.2739 59.6813 14.7348 60.19 14.7348Z" fill="white"/>
<path d="M57.5192 14.7348C57.9855 14.7348 58.4094 14.2739 58.4094 13.767V1.00192C58.4094 0.495002 57.9855 0.0341797 57.5192 0.0341797C57.0105 0.0341797 56.629 0.495002 56.629 1.00192V13.767C56.629 14.2739 57.0105 14.7348 57.5192 14.7348Z" fill="white"/>
<path d="M54.848 14.7348C55.3568 14.7348 55.7383 14.2739 55.7383 13.767V1.00192C55.7383 0.495002 55.3568 0.0341797 54.848 0.0341797C54.3817 0.0341797 53.9578 0.495002 53.9578 1.00192V13.767C53.9578 14.2739 54.3817 14.7348 54.848 14.7348Z" fill="white"/>
<path d="M52.2195 14.7348C52.6858 14.7348 53.0674 14.2739 53.0674 13.767V1.00192C53.0674 0.495002 52.6858 0.0341797 52.2195 0.0341797C51.7108 0.0341797 51.3293 0.495002 51.3293 1.00192V13.767C51.3293 14.2739 51.7108 14.7348 52.2195 14.7348Z" fill="white"/>
<path d="M49.5492 14.7348C50.0155 14.7348 50.4395 14.2739 50.4395 13.767V1.00192C50.4395 0.495002 50.0155 0.0341797 49.5492 0.0341797C49.0405 0.0341797 48.659 0.495002 48.659 1.00192V13.767C48.659 14.2739 49.0405 14.7348 49.5492 14.7348Z" fill="white"/>
<path d="M46.8781 14.7348C47.3868 14.7348 47.7683 14.2739 47.7683 13.767V1.00192C47.7683 0.495002 47.3868 0.0341797 46.8781 0.0341797C46.4118 0.0341797 45.9878 0.495002 45.9878 1.00192V13.767C45.9878 14.2739 46.4118 14.7348 46.8781 14.7348Z" fill="white"/>
<path d="M44.2072 14.7348C44.7159 14.7348 45.0974 14.2739 45.0974 13.767V1.00192C45.0974 0.495002 44.7159 0.0341797 44.2072 0.0341797C43.7409 0.0341797 43.3593 0.495002 43.3593 1.00192V13.767C43.3593 14.2739 43.7409 14.7348 44.2072 14.7348Z" fill="white"/>
<path d="M41.5792 14.7348C42.0456 14.7348 42.4695 14.2739 42.4695 13.767V1.00192C42.4695 0.495002 42.0456 0.0341797 41.5792 0.0341797C41.0705 0.0341797 40.689 0.495002 40.689 1.00192V13.767C40.689 14.2739 41.0705 14.7348 41.5792 14.7348Z" fill="white"/>
<path d="M38.9083 14.7348C39.4171 14.7348 39.7986 14.2739 39.7986 13.767V1.00192C39.7986 0.495002 39.4171 0.0341797 38.9083 0.0341797C38.3996 0.0341797 38.0181 0.495002 38.0181 1.00192V13.767C38.0181 14.2739 38.3996 14.7348 38.9083 14.7348Z" fill="white"/>
<path d="M36.2372 14.7348C36.7459 14.7348 37.1274 14.2739 37.1274 13.767V1.00192C37.1274 0.495002 36.7459 0.0341797 36.2372 0.0341797C35.7708 0.0341797 35.3469 0.495002 35.3469 1.00192V13.767C35.3469 14.2739 35.7708 14.7348 36.2372 14.7348Z" fill="white"/>
<path d="M33.6109 14.7348C34.0772 14.7348 34.4587 14.2739 34.4587 13.767V1.00192C34.4587 0.495002 34.0772 0.0341797 33.6109 0.0341797C33.1022 0.0341797 32.7207 0.495002 32.7207 1.00192V13.767C32.7207 14.2739 33.1022 14.7348 33.6109 14.7348Z" fill="white"/>
<path d="M30.9383 14.7348C31.4046 14.7348 31.8286 14.2739 31.8286 13.767V1.00192C31.8286 0.495002 31.4046 0.0341797 30.9383 0.0341797C30.4296 0.0341797 30.0481 0.495002 30.0481 1.00192V13.767C30.0481 14.2739 30.4296 14.7348 30.9383 14.7348Z" fill="white"/>
<path d="M28.2675 14.7348C28.7762 14.7348 29.1577 14.2739 29.1577 13.767V1.00192C29.1577 0.495002 28.7762 0.0341797 28.2675 0.0341797C27.8012 0.0341797 27.3772 0.495002 27.3772 1.00192V13.767C27.3772 14.2739 27.8012 14.7348 28.2675 14.7348Z" fill="white"/>
<path d="M25.5985 14.7348C26.1072 14.7348 26.4888 14.2739 26.4888 13.767V1.00192C26.4888 0.495002 26.1072 0.0341797 25.5985 0.0341797C25.1322 0.0341797 24.7507 0.495002 24.7507 1.00192V13.767C24.7507 14.2739 25.1322 14.7348 25.5985 14.7348Z" fill="white"/>
<path d="M22.9687 14.7348C23.435 14.7348 23.8589 14.2739 23.8589 13.767V1.00192C23.8589 0.495002 23.435 0.0341797 22.9687 0.0341797C22.4599 0.0341797 22.0784 0.495002 22.0784 1.00192V13.767C22.0784 14.2739 22.4599 14.7348 22.9687 14.7348Z" fill="white"/>
<path d="M20.2975 14.7348C20.8062 14.7348 21.1877 14.2739 21.1877 13.767V1.00192C21.1877 0.495002 20.8062 0.0341797 20.2975 0.0341797C19.8312 0.0341797 19.4073 0.495002 19.4073 1.00192V13.767C19.4073 14.2739 19.8312 14.7348 20.2975 14.7348Z" fill="white"/>
<path d="M17.6288 14.7348C18.1375 14.7348 18.519 14.2739 18.519 13.767V1.00192C18.519 0.495002 18.1375 0.0341797 17.6288 0.0341797C17.1625 0.0341797 16.7385 0.495002 16.7385 1.00192V13.767C16.7385 14.2739 17.1625 14.7348 17.6288 14.7348Z" fill="white"/>
<path d="M15 14.7348C15.4664 14.7348 15.8479 14.2739 15.8479 13.767V1.00192C15.8479 0.495002 15.4664 0.0341797 15 0.0341797C14.4913 0.0341797 14.1098 0.495002 14.1098 1.00192V13.767C14.1098 14.2739 14.4913 14.7348 15 14.7348Z" fill="white"/>
<path d="M12.3275 14.7348C12.7939 14.7348 13.2178 14.2739 13.2178 13.767V1.00192C13.2178 0.495002 12.7939 0.0341797 12.3275 0.0341797C11.8188 0.0341797 11.4373 0.495002 11.4373 1.00192V13.767C11.4373 14.2739 11.8188 14.7348 12.3275 14.7348Z" fill="white"/>
<path d="M9.65884 14.7348C10.1675 14.7348 10.5491 14.2739 10.5491 13.767V1.00192C10.5491 0.495002 10.1675 0.0341797 9.65884 0.0341797C9.19252 0.0341797 8.7686 0.495002 8.7686 1.00192V13.767C8.7686 14.2739 9.19252 14.7348 9.65884 14.7348Z" fill="white"/>
<path d="M6.98764 14.7348C7.49635 14.7348 7.87793 14.2739 7.87793 13.767V1.00192C7.87793 0.495002 7.49635 0.0341797 6.98764 0.0341797C6.52132 0.0341797 6.13979 0.495002 6.13979 1.00192V13.767C6.13979 14.2739 6.52132 14.7348 6.98764 14.7348Z" fill="white"/>
<path d="M4.36001 14.7348C4.82633 14.7348 5.25024 14.2739 5.25024 13.767V1.00192C5.25024 0.495002 4.82633 0.0341797 4.36001 0.0341797C3.8513 0.0341797 3.46977 0.495002 3.46977 1.00192V13.767C3.46977 14.2739 3.8513 14.7348 4.36001 14.7348Z" fill="white"/>
<path d="M1.68881 14.7348C2.19753 14.7348 2.5791 14.2739 2.5791 13.767V1.00192C2.5791 0.495002 2.19753 0.0341797 1.68881 0.0341797C1.2225 0.0341797 0.79858 0.495002 0.79858 1.00192V13.767C0.79858 14.2739 1.2225 14.7348 1.68881 14.7348Z" fill="white"/>
<path d="M264.606 14.7348C265.073 14.7348 265.497 14.2739 265.497 13.767V1.00192C265.497 0.495002 265.073 0.0341797 264.606 0.0341797C264.098 0.0341797 263.716 0.495002 263.716 1.00192V13.767C263.716 14.2739 264.098 14.7348 264.606 14.7348Z" fill="white"/>
<path d="M261.937 14.7348C262.446 14.7348 262.828 14.2739 262.828 13.767V1.00192C262.828 0.495002 262.446 0.0341797 261.937 0.0341797C261.471 0.0341797 261.047 0.495002 261.047 1.00192V13.767C261.047 14.2739 261.471 14.7348 261.937 14.7348Z" fill="white"/>
<path d="M259.266 14.7348C259.775 14.7348 260.157 14.2739 260.157 13.767V1.00192C260.157 0.495002 259.775 0.0341797 259.266 0.0341797C258.8 0.0341797 258.376 0.495002 258.376 1.00192V13.767C258.376 14.2739 258.8 14.7348 259.266 14.7348Z" fill="white"/>
<path d="M256.636 14.7348C257.103 14.7348 257.527 14.2739 257.527 13.767V1.00192C257.527 0.495002 257.103 0.0341797 256.636 0.0341797C256.128 0.0341797 255.746 0.495002 255.746 1.00192V13.767C255.746 14.2739 256.128 14.7348 256.636 14.7348Z" fill="white"/>
<path d="M253.967 14.7348C254.434 14.7348 254.858 14.2739 254.858 13.767V1.00192C254.858 0.495002 254.434 0.0341797 253.967 0.0341797C253.459 0.0341797 253.077 0.495002 253.077 1.00192V13.767C253.077 14.2739 253.459 14.7348 253.967 14.7348Z" fill="white"/>
<path d="M251.297 14.7348C251.805 14.7348 252.187 14.2739 252.187 13.767V1.00192C252.187 0.495002 251.805 0.0341797 251.297 0.0341797C250.83 0.0341797 250.406 0.495002 250.406 1.00192V13.767C250.406 14.2739 250.83 14.7348 251.297 14.7348Z" fill="white"/>
<path d="M248.626 14.7348C249.134 14.7348 249.516 14.2739 249.516 13.767V1.00192C249.516 0.495002 249.134 0.0341797 248.626 0.0341797C248.159 0.0341797 247.778 0.495002 247.778 1.00192V13.767C247.778 14.2739 248.159 14.7348 248.626 14.7348Z" fill="white"/>
<path d="M245.998 14.7348C246.464 14.7348 246.888 14.2739 246.888 13.767V1.00192C246.888 0.495002 246.464 0.0341797 245.998 0.0341797C245.489 0.0341797 245.107 0.495002 245.107 1.00192V13.767C245.107 14.2739 245.489 14.7348 245.998 14.7348Z" fill="white"/>
<path d="M243.327 14.7348C243.836 14.7348 244.217 14.2739 244.217 13.767V1.00192C244.217 0.495002 243.836 0.0341797 243.327 0.0341797C242.86 0.0341797 242.437 0.495002 242.437 1.00192V13.767C242.437 14.2739 242.86 14.7348 243.327 14.7348Z" fill="white"/>
<path d="M240.656 14.7348C241.164 14.7348 241.546 14.2739 241.546 13.767V1.00192C241.546 0.495002 241.164 0.0341797 240.656 0.0341797C240.189 0.0341797 239.765 0.495002 239.765 1.00192V13.767C239.765 14.2739 240.189 14.7348 240.656 14.7348Z" fill="white"/>
<path d="M238.112 14.7348C238.578 14.7348 239.002 14.2739 239.002 13.767V1.00192C239.002 0.495002 238.578 0.0341797 238.112 0.0341797C237.603 0.0341797 237.222 0.495002 237.222 1.00192V13.767C237.222 14.2739 237.603 14.7348 238.112 14.7348Z" fill="white"/>
<path d="M235.441 14.7348C235.907 14.7348 236.331 14.2739 236.331 13.767V1.00192C236.331 0.495002 235.907 0.0341797 235.441 0.0341797C234.932 0.0341797 234.551 0.495002 234.551 1.00192V13.767C234.551 14.2739 234.932 14.7348 235.441 14.7348Z" fill="white"/>
</svg>
