<svg width="682" height="44" viewBox="0 0 682 44" fill="none" xmlns="http://www.w3.org/2000/svg">
<path fill-rule="evenodd" clip-rule="evenodd" d="M680.462 25.8577L672.728 39.9004C671.406 42.3426 668.862 43.869 666.012 43.869H16.5831C13.9374 43.869 11.4952 42.4444 10.0705 40.2057L1.52272 26.1629C-0.00366846 23.7207 -0.00366846 20.6679 1.52272 18.2257L10.0705 4.18285C11.4952 1.84238 13.9374 0.519531 16.5831 0.519531H666.012C668.862 0.519531 671.406 2.04595 672.728 4.48818L680.462 18.531C681.683 20.7697 681.683 23.5172 680.462 25.8577ZM677.613 20.0574L669.981 5.91277C669.167 4.48814 667.64 3.67405 666.012 3.67405H16.5831C15.0567 3.67405 13.6321 4.48816 12.818 5.81104L4.16847 19.8538C3.35439 21.2785 3.35439 23.1101 4.16847 24.5347L12.818 38.5776C13.6321 39.9005 15.0567 40.7145 16.5831 40.7145H666.012C667.64 40.7145 669.167 39.7986 669.981 38.374L677.715 24.3313C678.427 23.0084 678.427 21.3802 677.613 20.0574Z" fill="white"/>
<path d="M232.315 6.83008H220.918V37.5615H232.315V6.83008Z" fill="#F33926"/>
<path d="M218.678 6.83008H207.281V37.5615H218.678V6.83008Z" fill="#F33926"/>
<path d="M245.745 6.83008H234.348V37.5615H245.745V6.83008Z" fill="#2E2E2E"/>
<path d="M178.382 6.83008H166.985V37.5615H178.382V6.83008Z" fill="#F33926"/>
<path d="M191.812 6.83008H180.415V37.5615H191.812V6.83008Z" fill="#F33926"/>
<path d="M205.246 6.83008H193.747V37.5615H205.246V6.83008Z" fill="#F33926"/>
<path d="M312.909 6.83008H301.41V37.5615H312.909V6.83008Z" fill="#2E2E2E"/>
<path d="M339.672 6.83008H328.275V37.5615H339.672V6.83008Z" fill="#2E2E2E"/>
<path d="M299.476 6.83008H288.079V37.5615H299.476V6.83008Z" fill="#2E2E2E"/>
<path d="M259.179 6.83008H247.68V37.5615H259.179V6.83008Z" fill="#2E2E2E"/>
<path d="M272.61 6.83008H261.213V37.5615H272.61V6.83008Z" fill="#2E2E2E"/>
<path d="M286.046 6.83008H274.649V37.5615H286.046V6.83008Z" fill="#2E2E2E"/>
<path d="M326.339 6.83008H314.84V37.5615H326.339V6.83008Z" fill="#2E2E2E"/>
<path d="M71.025 6.83008H59.6279V37.5615H71.025V6.83008Z" fill="#F33926"/>
<path d="M44.1595 6.83008H32.7625V37.5615H44.1595V6.83008Z" fill="#F33926"/>
<path d="M57.6966 6.83008H46.1978V37.5615H57.6966V6.83008Z" fill="#F33926"/>
<path d="M164.947 6.83008H153.55V37.5615H164.947V6.83008Z" fill="#F33926"/>
<path d="M17.396 6.83008H16.5819C16.1749 6.83008 15.6661 7.03357 15.4625 7.44061L6.91475 21.4834C6.60947 21.8904 6.60947 22.3993 6.91475 22.8063L15.4625 36.9509C15.6661 37.358 16.1749 37.5615 16.5819 37.5615H17.396V6.83008Z" fill="#F33926"/>
<path d="M30.8313 6.83008H19.3325V37.5615H30.8313V6.83008Z" fill="#F33926"/>
<path d="M151.517 6.83008H140.12V37.5615H151.517V6.83008Z" fill="#F33926"/>
<path d="M138.087 6.83008H126.69V37.5615H138.087V6.83008Z" fill="#F33926"/>
<path d="M84.4603 6.83008H73.0632V37.5615H84.4603V6.83008Z" fill="#F33926"/>
<path d="M124.652 6.83008H113.255V37.5615H124.652V6.83008Z" fill="#F33926"/>
<path d="M111.32 6.83008H99.9231V37.5615H111.32V6.83008Z" fill="#F33926"/>
<path d="M97.8882 6.83008H86.3894V37.5615H97.8882V6.83008Z" fill="#F33926"/>
<path d="M527.419 6.83008H516.021V37.5615H527.419V6.83008Z" fill="#2E2E2E"/>
<path d="M581.043 6.83008H569.544V37.5615H581.043V6.83008Z" fill="#2E2E2E"/>
<path d="M607.807 6.83008H596.41V37.5615H607.807V6.83008Z" fill="#2E2E2E"/>
<path d="M594.478 6.83008H582.979V37.5615H594.478V6.83008Z" fill="#2E2E2E"/>
<path d="M554.18 6.83008H542.783V37.5615H554.18V6.83008Z" fill="#2E2E2E"/>
<path d="M540.848 6.83008H529.451V37.5615H540.848V6.83008Z" fill="#2E2E2E"/>
<path d="M353.103 6.83008H341.706V37.5615H353.103V6.83008Z" fill="#2E2E2E"/>
<path d="M667.236 7.44061C666.93 7.03357 666.523 6.83008 666.015 6.83008H663.674V37.5615H666.015C666.523 37.5615 666.93 37.2561 667.236 36.8491L674.868 22.8063C675.071 22.3993 675.071 21.9922 674.868 21.5852L667.236 7.44061Z" fill="#2E2E2E"/>
<path d="M661.636 6.83008H650.239V37.5615H661.636V6.83008Z" fill="#2E2E2E"/>
<path d="M648.206 6.83008H636.809V37.5615H648.206V6.83008Z" fill="#2E2E2E"/>
<path d="M634.877 6.83008H623.378V37.5615H634.877V6.83008Z" fill="#2E2E2E"/>
<path d="M621.237 6.83008H609.84V37.5615H621.237V6.83008Z" fill="#2E2E2E"/>
<path d="M567.61 6.83008H556.213V37.5615H567.61V6.83008Z" fill="#2E2E2E"/>
<path d="M393.196 6.83008H381.799V37.5615H393.196V6.83008Z" fill="#2E2E2E"/>
<path d="M406.631 6.83008H395.234V37.5615H406.631V6.83008Z" fill="#2E2E2E"/>
<path d="M514.087 6.83008H502.69V37.5615H514.087V6.83008Z" fill="#2E2E2E"/>
<path d="M379.864 6.83008H368.467V37.5615H379.864V6.83008Z" fill="#2E2E2E"/>
<path d="M433.494 6.83008H421.995V37.5615H433.494V6.83008Z" fill="#2E2E2E"/>
<path d="M366.434 6.83008H355.037V37.5615H366.434V6.83008Z" fill="#2E2E2E"/>
<path d="M420.059 6.83008H408.56V37.5615H420.059V6.83008Z" fill="#2E2E2E"/>
<path d="M487.019 6.83008H475.622V37.5615H487.019V6.83008Z" fill="#2E2E2E"/>
<path d="M500.651 6.83008H489.254V37.5615H500.651V6.83008Z" fill="#2E2E2E"/>
<path d="M460.258 6.83008H448.861V37.5615H460.258V6.83008Z" fill="#2E2E2E"/>
<path d="M446.822 6.83008H435.425V37.5615H446.822V6.83008Z" fill="#2E2E2E"/>
<path d="M473.584 6.83008H462.187V37.5615H473.584V6.83008Z" fill="#2E2E2E"/>
<g style="mix-blend-mode:multiply">
<path d="M220.916 23.9248V37.5606H232.313V23.9248H220.916Z" fill="#F33926"/>
<path d="M207.28 23.9248V37.5606H218.677V23.9248H207.28Z" fill="#F33926"/>
<path d="M234.348 23.9248V37.5606H245.745V23.9248H234.348Z" fill="#2E2E2E"/>
<path d="M166.983 23.9248V37.5606H178.38V23.9248H166.983Z" fill="#F33926"/>
<path d="M180.416 23.9248V37.5606H191.813V23.9248H180.416Z" fill="#F33926"/>
<path d="M193.746 23.9248V37.5606H205.245V23.9248H193.746Z" fill="#F33926"/>
<path d="M301.407 23.9248V37.5606H312.906V23.9248H301.407Z" fill="#2E2E2E"/>
<path d="M328.272 23.9248V37.5606H339.669V23.9248H328.272Z" fill="#2E2E2E"/>
<path d="M288.077 23.9248V37.5606H299.474V23.9248H288.077Z" fill="#2E2E2E"/>
<path d="M247.678 23.9248V37.5606H259.177V23.9248H247.678Z" fill="#2E2E2E"/>
<path d="M261.213 23.9248V37.5606H272.61V23.9248H261.213Z" fill="#2E2E2E"/>
<path d="M274.645 23.9248V37.5606H286.042V23.9248H274.645Z" fill="#2E2E2E"/>
<path d="M314.84 23.9248V37.5606H326.338V23.9248H314.84Z" fill="#2E2E2E"/>
<path d="M59.6267 23.9248V37.5606H71.0238V23.9248H59.6267Z" fill="#F33926"/>
<path d="M32.7625 23.9248V37.5606H44.1595V23.9248H32.7625Z" fill="#F33926"/>
<path d="M46.1946 23.9248V37.5606H57.6934V23.9248H46.1946Z" fill="#F33926"/>
<path d="M153.551 23.9248V37.5606H164.948V23.9248H153.551Z" fill="#F33926"/>
<path d="M7.52612 23.9248L15.4634 36.9501C15.6669 37.3571 16.1757 37.5606 16.5827 37.5606H17.3968V23.9248H7.52612Z" fill="#F33926"/>
<path d="M19.3301 23.9248V37.5606H30.8289V23.9248H19.3301Z" fill="#F33926"/>
<path d="M140.119 23.9248V37.5606H151.516V23.9248H140.119Z" fill="#F33926"/>
<path d="M126.687 23.9248V37.5606H138.084V23.9248H126.687Z" fill="#F33926"/>
<path d="M73.0591 23.9248V37.5606H84.4561V23.9248H73.0591Z" fill="#F33926"/>
<path d="M113.254 23.9248V37.5606H124.651V23.9248H113.254Z" fill="#F33926"/>
<path d="M99.9238 23.9248V37.5606H111.321V23.9248H99.9238Z" fill="#F33926"/>
<path d="M86.3896 23.9248V37.5606H97.8885V23.9248H86.3896Z" fill="#F33926"/>
<path d="M516.019 23.9248V37.5606H527.416V23.9248H516.019Z" fill="#2E2E2E"/>
<path d="M569.543 23.9248V37.5606H581.042V23.9248H569.543Z" fill="#2E2E2E"/>
<path d="M596.408 23.9248V37.5606H607.805V23.9248H596.408Z" fill="#2E2E2E"/>
<path d="M582.977 23.9248V37.5606H594.475V23.9248H582.977Z" fill="#2E2E2E"/>
<path d="M542.781 23.9248V37.5606H554.178V23.9248H542.781Z" fill="#2E2E2E"/>
<path d="M529.45 23.9248V37.5606H540.848V23.9248H529.45Z" fill="#2E2E2E"/>
<path d="M341.704 23.9248V37.5606H353.101V23.9248H341.704Z" fill="#2E2E2E"/>
<path d="M663.671 23.9248V37.5606H666.011C666.52 37.5606 666.927 37.2552 667.232 36.8482L674.254 23.9248H663.671Z" fill="#2E2E2E"/>
<path d="M650.24 23.9248V37.5606H661.637V23.9248H650.24Z" fill="#2E2E2E"/>
<path d="M636.806 23.9248V37.5606H648.203V23.9248H636.806Z" fill="#2E2E2E"/>
<path d="M623.375 23.9248V37.5606H634.874V23.9248H623.375Z" fill="#2E2E2E"/>
<path d="M609.841 23.9248V37.5606H621.238V23.9248H609.841Z" fill="#2E2E2E"/>
<path d="M556.213 23.9248V37.5606H567.61V23.9248H556.213Z" fill="#2E2E2E"/>
<path d="M381.797 23.9248V37.5606H393.194V23.9248H381.797Z" fill="#2E2E2E"/>
<path d="M395.23 23.9248V37.5606H406.627V23.9248H395.23Z" fill="#2E2E2E"/>
<path d="M502.688 23.9248V37.5606H514.085V23.9248H502.688Z" fill="#2E2E2E"/>
<path d="M368.467 23.9248V37.5606H379.864V23.9248H368.467Z" fill="#2E2E2E"/>
<path d="M421.993 23.9248V37.5606H433.491V23.9248H421.993Z" fill="#2E2E2E"/>
<path d="M355.035 23.9248V37.5606H366.432V23.9248H355.035Z" fill="#2E2E2E"/>
<path d="M408.56 23.9248V37.5606H420.059V23.9248H408.56Z" fill="#2E2E2E"/>
<path d="M475.619 23.9248V37.5606H487.016V23.9248H475.619Z" fill="#2E2E2E"/>
<path d="M489.256 23.9248V37.5606H500.653V23.9248H489.256Z" fill="#2E2E2E"/>
<path d="M448.857 23.9248V37.5606H460.254V23.9248H448.857Z" fill="#2E2E2E"/>
<path d="M435.425 23.9248V37.5606H446.822V23.9248H435.425Z" fill="#2E2E2E"/>
<path d="M462.188 23.9248V37.5606H473.585V23.9248H462.188Z" fill="#2E2E2E"/>
</g>
</svg>
