<svg width="20" height="20" viewBox="0 0 20 20" fill="none" xmlns="http://www.w3.org/2000/svg">
<path d="M14.1531 10.0486C14.1531 10.1236 14.1455 10.191 14.1305 10.251H17.5281C17.5281 10.191 17.5281 10.1236 17.5281 10.0486C17.5281 5.79607 14.0855 2.33105 9.81055 2.33105V5.72855C12.1955 5.72855 14.1531 7.66357 14.1531 10.0486Z" fill="#356CEF"/>
<path d="M9.80931 17.7885V14.391C7.49181 14.391 5.57932 12.546 5.48932 10.251H2.0918C2.2043 14.4135 5.60181 17.7885 9.80931 17.7885Z" fill="#356CEF"/>
<path fill-rule="evenodd" clip-rule="evenodd" d="M2.87998 16.9792C1.03498 15.1342 0 12.6817 0 10.0492C0 7.43922 1.03498 4.96421 2.87998 3.11921C4.72498 1.27421 7.19999 0.261719 9.80999 0.261719C12.4425 0.261719 14.895 1.27421 16.74 3.11921C18.6075 4.96421 19.62 7.43922 19.62 10.0492C19.62 12.6817 18.6075 15.1342 16.74 16.9792C14.895 18.8467 12.4425 19.8592 9.80999 19.8592C7.19999 19.8592 4.72498 18.8467 2.87998 16.9792ZM0.494989 10.0492C0.494989 15.2017 4.67999 19.3867 9.80999 19.3867C14.9625 19.3867 19.1475 15.2017 19.1475 10.0492C19.1475 4.91922 14.9625 0.734213 9.80999 0.734213C4.67999 0.734213 0.494989 4.91922 0.494989 10.0492Z" fill="#356CEF"/>
<path fill-rule="evenodd" clip-rule="evenodd" d="M6.16406 10.2058C6.16406 10.1608 6.16406 10.1083 6.16406 10.0483C6.16406 9.08084 6.54655 8.15833 7.24405 7.48333C7.91905 6.78583 8.84155 6.40332 9.80905 6.40332C10.7766 6.40332 11.6991 6.78583 12.3966 7.48333C13.0716 8.15833 13.454 9.08084 13.454 10.0483C13.454 10.1083 13.454 10.1608 13.454 10.2058C13.409 11.1283 13.0491 11.9833 12.3966 12.6358C11.6991 13.3108 10.7766 13.6933 9.80905 13.6933C8.84155 13.6933 7.91905 13.3108 7.24405 12.6358C6.59155 11.9833 6.20906 11.1283 6.16406 10.2058ZM6.34405 10.0483C6.34405 10.1083 6.34405 10.1608 6.34405 10.2058C6.43405 12.0508 7.96405 13.5133 9.80905 13.5133C11.6766 13.5133 13.2066 12.0508 13.2741 10.2058C13.2741 10.1608 13.2741 10.1083 13.2741 10.0483C13.2741 8.13584 11.7216 6.58333 9.80905 6.58333C7.89655 6.58333 6.34405 8.13584 6.34405 10.0483Z" fill="#356CEF"/>
</svg>
