<svg width="293" height="11" viewBox="0 0 293 11" fill="none" xmlns="http://www.w3.org/2000/svg">
<path d="M151.866 10.179L160.714 0.0927734H168.931L160.082 10.179H151.866Z" fill="white"/>
<path d="M197.373 10.179L206.221 0.0927734H214.438L205.589 10.179H197.373Z" fill="white"/>
<path d="M45.6841 10.179L54.5326 0.0927734H62.749L53.9005 10.179H45.6841Z" fill="white"/>
<path d="M30.5151 10.179L39.3636 0.0927734H47.5801L38.7316 10.179H30.5151Z" fill="white"/>
<path d="M15.3462 10.179L24.1947 0.0927734H32.4111L23.5626 10.179H15.3462Z" fill="white"/>
<path d="M0.177734 10.179L9.02622 0.0927734H17.2427L8.39419 10.179H0.177734Z" fill="white"/>
<path d="M275.113 10.179L283.961 0.0927734H292.178L283.329 10.179H275.113Z" fill="white"/>
<path d="M229.607 10.179L238.455 0.0927734H246.672L237.823 10.179H229.607Z" fill="white"/>
<path d="M214.438 10.179L223.286 0.0927734H231.502L222.654 10.179H214.438Z" fill="white"/>
</svg>
