<svg width="148" height="20" viewBox="0 0 148 20" fill="none" xmlns="http://www.w3.org/2000/svg">
<path d="M78.1182 19.3374V4.53146H76.0032V19.3374H78.1182ZM72.6795 19.3374V8.76172H70.5641V19.3374H72.6795ZM67.2404 19.3374V11.179H65.1254V19.3374H67.2404ZM62.1038 19.3374V6.64659H59.9885V19.3374H62.1038ZM56.6647 19.3374V12.992H54.5498V19.3374H56.6647ZM51.226 19.3374V5.43791H49.1107V19.3374H51.226ZM46.0891 19.3374V7.85523H43.9741V19.3374H46.0891ZM40.6503 19.3374V10.5747H38.535V19.3374H40.6503ZM35.2113 19.3374V11.7833H33.0963V19.3374H35.2113ZM30.0746 19.3374V13.8985H27.9593V19.3374H30.0746ZM24.6356 19.3374V11.7833H22.5206V19.3374H24.6356ZM19.1965 19.3374V7.85523H17.0815V19.3374H19.1965ZM13.7578 19.3374V6.04228H11.9449V19.3374H13.7578ZM8.31872 19.3374V3.02065H6.20372V19.3374H8.31872ZM2.88001 19.3374V4.53146H0.764648V19.3374H2.88001ZM147.918 19.3374V8.76172H145.803V19.3374H147.918ZM142.479 19.3374V11.179H140.666V19.3374H142.479ZM137.04 19.3374V14.5028H134.925V19.3374H137.04ZM131.601 19.3374V3.02065H129.486V19.3374H131.601ZM126.162 19.3374V5.43791H124.047V19.3374H126.162ZM121.026 19.3374V7.85523H118.91V19.3374H121.026ZM115.586 19.3374V10.5747H113.471V19.3374H115.586ZM110.148 19.3374V8.76172H108.032V19.3374H110.148ZM105.011 19.3374V5.7401H102.896V19.3374H105.011ZM99.5721 19.3374V3.02065H97.4567V19.3374H99.5721ZM94.133 19.3374V-0.000976562H92.018V19.3374H94.133ZM88.9964 19.3374V1.20766H86.881V19.3374H88.9964ZM83.5573 19.3374V3.02065H81.4423V19.3374H83.5573Z" fill="white"/>
</svg>
