<svg width="217" height="34" viewBox="0 0 217 34" fill="none" xmlns="http://www.w3.org/2000/svg">
<path d="M208.709 33.376V13.5084L216.848 4.88892V33.376H208.709ZM197.587 8.95851L206.047 1.06103L216.848 0.819336L208.709 8.95851H197.587Z" fill="white"/>
<path d="M181.031 18.4646V13.3857H196.789V18.4646H181.031Z" fill="white"/>
<path d="M149.009 21.1673V13.0281H165.287V21.1673H149.009ZM136.8 33.376V8.95851L144.939 0.819336H177.496V8.95851H144.939V25.2369H177.496L169.357 33.376H136.8Z" fill="white"/>
<path d="M122.911 33.376L106.633 17.0977H118.842L135.12 33.376H122.911ZM90.3545 33.376V0.819336H131.05V8.95851H98.4937V25.2369H110.702L118.842 33.376H90.3545Z" fill="white"/>
<path d="M51.6445 33.376L43.5054 25.2369V0.819336L51.6445 8.95851V25.2369H76.0621L84.2012 33.376H51.6445ZM88.2708 33.376L80.1317 25.2369V8.95851H55.7141L47.575 0.819336H88.2708V33.376Z" fill="white"/>
<path d="M0 33.376V0.819336H16.2783L48.835 33.376H36.6263L12.2088 8.95851H8.13917V25.2369H24.4175L32.5567 33.376H0Z" fill="white"/>
</svg>
