<svg width="93" height="24" viewBox="0 0 93 24" fill="none" xmlns="http://www.w3.org/2000/svg">
<path d="M9.50952 7.2998L15.8506 17.9126H3.16846L9.50952 7.2998Z" fill="white"/>
<path d="M20.0402 12.7285L14.8391 4.15188L25.2413 4.15188L20.0402 12.7285Z" fill="white"/>
<path d="M82.7146 11.6672C82.7146 10.6857 82.9358 9.82166 83.3782 9.07514C83.8344 8.32862 84.4496 7.748 85.2237 7.33327C85.9979 6.90471 86.8757 6.69043 87.8573 6.69043C88.8388 6.69043 89.7098 6.90471 90.4701 7.33327C91.2443 7.748 91.8594 8.32862 92.3157 9.07514C92.7719 9.82166 93 10.6857 93 11.6672C93 12.6349 92.7719 13.499 92.3157 14.2593C91.8594 15.0058 91.2443 15.5934 90.4701 16.0219C89.7098 16.4366 88.8388 16.644 87.8573 16.644C86.8757 16.644 85.9979 16.4366 85.2237 16.0219C84.4496 15.5934 83.8344 15.0058 83.3782 14.2593C82.9358 13.499 82.7146 12.6349 82.7146 11.6672ZM85.0164 11.6672C85.0164 12.2617 85.1408 12.787 85.3896 13.2432C85.6385 13.6856 85.9772 14.0381 86.4057 14.3008C86.8343 14.5496 87.3181 14.674 87.8573 14.674C88.3826 14.674 88.8595 14.5496 89.2881 14.3008C89.7305 14.0381 90.0761 13.6856 90.3249 13.2432C90.5738 12.787 90.6982 12.2617 90.6982 11.6672C90.6982 11.0728 90.5738 10.5474 90.3249 10.0912C90.0761 9.63503 89.7305 9.28251 89.2881 9.03367C88.8595 8.78483 88.3826 8.66041 87.8573 8.66041C87.3181 8.66041 86.8343 8.78483 86.4057 9.03367C85.9772 9.28251 85.6385 9.63503 85.3896 10.0912C85.1408 10.5474 85.0164 11.0728 85.0164 11.6672Z" fill="white"/>
<path d="M72.4497 6.89844H74.8966L77.385 13.0572L79.8734 6.89844H82.3411L77.385 17.3082L72.4497 6.89844Z" fill="white"/>
<path d="M61.7952 11.6672C61.7952 10.6857 62.0164 9.82166 62.4587 9.07514C62.9149 8.32862 63.5301 7.748 64.3043 7.33327C65.0785 6.90471 65.9563 6.69043 66.9378 6.69043C67.9194 6.69043 68.7903 6.90471 69.5507 7.33327C70.3248 7.748 70.94 8.32862 71.3962 9.07514C71.8524 9.82166 72.0805 10.6857 72.0805 11.6672C72.0805 12.6349 71.8524 13.499 71.3962 14.2593C70.94 15.0058 70.3248 15.5934 69.5507 16.0219C68.7903 16.4366 67.9194 16.644 66.9378 16.644C65.9563 16.644 65.0785 16.4366 64.3043 16.0219C63.5301 15.5934 62.9149 15.0058 62.4587 14.2593C62.0164 13.499 61.7952 12.6349 61.7952 11.6672ZM64.0969 11.6672C64.0969 12.2617 64.2213 12.787 64.4702 13.2432C64.719 13.6856 65.0577 14.0381 65.4863 14.3008C65.9148 14.5496 66.3987 14.674 66.9378 14.674C67.4632 14.674 67.9401 14.5496 68.3687 14.3008C68.8111 14.0381 69.1567 13.6856 69.4055 13.2432C69.6543 12.787 69.7788 12.2617 69.7788 11.6672C69.7788 11.0728 69.6543 10.5474 69.4055 10.0912C69.1567 9.63503 68.8111 9.28251 68.3687 9.03367C67.9401 8.78483 67.4632 8.66041 66.9378 8.66041C66.3987 8.66041 65.9148 8.78483 65.4863 9.03367C65.0577 9.28251 64.719 9.63503 64.4702 10.0912C64.2213 10.5474 64.0969 11.0728 64.0969 11.6672Z" fill="white"/>
<path d="M57.359 10.6304C57.359 9.92534 57.2138 9.3931 56.9235 9.03367C56.6332 8.67423 56.1839 8.49452 55.5756 8.49452C55.1609 8.49452 54.7946 8.58437 54.4766 8.76409C54.1586 8.92998 53.9098 9.17882 53.7301 9.51061C53.5504 9.82857 53.4605 10.2018 53.4605 10.6304V16.4366H51.2209V6.8978H53.4605V8.3701C53.7646 7.80329 54.1517 7.38165 54.6218 7.10516C55.1056 6.82867 55.6793 6.69043 56.3429 6.69043C57.4212 6.69043 58.2437 7.02222 58.8106 7.68579C59.3774 8.33553 59.6608 9.23412 59.6608 10.3815V16.4366H57.359V10.6304Z" fill="white"/>
<path d="M42.8604 13.3054C43.1645 13.6372 43.4686 13.9275 43.7728 14.1763C44.0907 14.4114 44.4087 14.5911 44.7267 14.7155C45.0446 14.8261 45.3626 14.8814 45.6805 14.8814C46.0814 14.8814 46.3925 14.7915 46.6137 14.6118C46.8487 14.4321 46.9662 14.1833 46.9662 13.8653C46.9662 13.5888 46.8764 13.3538 46.6966 13.1603C46.5169 12.9529 46.2681 12.7801 45.9501 12.6418C45.6322 12.4898 45.2589 12.3377 44.8303 12.1856C44.4018 12.0197 43.9732 11.8262 43.5447 11.605C43.1299 11.37 42.7843 11.0659 42.5078 10.6926C42.2452 10.3193 42.1138 9.84931 42.1138 9.28251C42.1138 8.70188 42.259 8.21803 42.5493 7.83094C42.8534 7.44386 43.2544 7.16046 43.752 6.98074C44.2635 6.7872 44.8096 6.69043 45.3902 6.69043C45.9156 6.69043 46.4063 6.76646 46.8625 6.91853C47.3326 7.0706 47.7542 7.27105 48.1275 7.51989C48.5007 7.76873 48.8187 8.05213 49.0813 8.3701L47.8371 9.69724C47.5192 9.32398 47.139 9.01984 46.6966 8.78483C46.2543 8.54981 45.798 8.43231 45.328 8.43231C45.0101 8.43231 44.7474 8.50143 44.54 8.63967C44.3327 8.77792 44.229 8.97837 44.229 9.24103C44.229 9.46222 44.3188 9.66268 44.4986 9.8424C44.6921 10.0083 44.9409 10.1604 45.2451 10.2986C45.563 10.4368 45.9156 10.582 46.3026 10.7341C46.828 10.9414 47.3118 11.1695 47.7542 11.4184C48.1966 11.6672 48.5491 11.9714 48.8118 12.3308C49.0883 12.6902 49.2265 13.1603 49.2265 13.7409C49.2265 14.6395 48.9155 15.3652 48.2934 15.9182C47.6851 16.4574 46.8556 16.727 45.805 16.727C45.1552 16.727 44.5539 16.6302 44.0009 16.4366C43.4617 16.2293 42.9848 15.9666 42.57 15.6486C42.1691 15.3169 41.8304 14.9713 41.554 14.6118L42.8604 13.3054Z" fill="white"/>
<path d="M30.0183 11.6672C30.0183 10.6857 30.2395 9.82166 30.6819 9.07514C31.1381 8.32862 31.7533 7.748 32.5274 7.33327C33.3016 6.90471 34.1795 6.69043 35.161 6.69043C36.1425 6.69043 37.0135 6.90471 37.7738 7.33327C38.548 7.748 39.1632 8.32862 39.6194 9.07514C40.0756 9.82166 40.3037 10.6857 40.3037 11.6672C40.3037 12.6349 40.0756 13.499 39.6194 14.2593C39.1632 15.0058 38.548 15.5934 37.7738 16.0219C37.0135 16.4366 36.1425 16.644 35.161 16.644C34.1795 16.644 33.3016 16.4366 32.5274 16.0219C31.7533 15.5934 31.1381 15.0058 30.6819 14.2593C30.2395 13.499 30.0183 12.6349 30.0183 11.6672ZM32.3201 11.6672C32.3201 12.2617 32.4445 12.787 32.6933 13.2432C32.9422 13.6856 33.2809 14.0381 33.7094 14.3008C34.138 14.5496 34.6218 14.674 35.161 14.674C35.6863 14.674 36.1633 14.5496 36.5918 14.3008C37.0342 14.0381 37.3798 13.6856 37.6286 13.2432C37.8775 12.787 38.0019 12.2617 38.0019 11.6672C38.0019 11.0728 37.8775 10.5474 37.6286 10.0912C37.3798 9.63503 37.0342 9.28251 36.5918 9.03367C36.1633 8.78483 35.6863 8.66041 35.161 8.66041C34.6218 8.66041 34.138 8.78483 33.7094 9.03367C33.2809 9.28251 32.9422 9.63503 32.6933 10.0912C32.4445 10.5474 32.3201 11.0728 32.3201 11.6672Z" fill="white"/>
</svg>
