<svg width="141" height="315" viewBox="0 0 141 315" fill="none" xmlns="http://www.w3.org/2000/svg">
<path d="M28.93 199.119C28.93 198.706 29.0433 198.374 29.27 198.124C29.5 197.874 29.8467 197.749 30.31 197.749L31.19 197.749C31.64 197.749 31.9817 197.874 32.215 198.124C32.4517 198.374 32.57 198.706 32.57 199.119C32.57 199.536 32.4517 199.867 32.215 200.114C31.9817 200.364 31.64 200.489 31.19 200.489L30.31 200.489C29.8467 200.489 29.5 200.364 29.27 200.114C29.0433 199.867 28.93 199.536 28.93 199.119ZM29.5 199.119C29.5 199.369 29.5683 199.552 29.705 199.669C29.8417 199.789 30.0367 199.849 30.29 199.849L31.22 199.849C31.4767 199.849 31.67 199.782 31.8 199.649C31.9333 199.519 32 199.342 32 199.119C32 198.889 31.9317 198.709 31.795 198.579C31.6583 198.452 31.4667 198.389 31.22 198.389L30.29 198.389C30.0267 198.389 29.8283 198.449 29.695 198.569C29.565 198.692 29.5 198.876 29.5 199.119ZM28.93 202.361C28.93 201.948 29.0433 201.616 29.27 201.366C29.5 201.116 29.8467 200.991 30.31 200.991L31.19 200.991C31.64 200.991 31.9817 201.116 32.215 201.366C32.4517 201.616 32.57 201.948 32.57 202.361C32.57 202.778 32.4517 203.11 32.215 203.356C31.9817 203.606 31.64 203.731 31.19 203.731L30.31 203.731C29.8467 203.731 29.5 203.606 29.27 203.356C29.0433 203.11 28.93 202.778 28.93 202.361ZM29.5 202.361C29.5 202.611 29.5683 202.795 29.705 202.911C29.8417 203.031 30.0367 203.091 30.29 203.091L31.22 203.091C31.4767 203.091 31.67 203.025 31.8 202.891C31.9333 202.761 32 202.585 32 202.361C32 202.131 31.9317 201.951 31.795 201.821C31.6583 201.695 31.4667 201.631 31.22 201.631L30.29 201.631C30.0267 201.631 29.8283 201.691 29.695 201.811C29.565 201.935 29.5 202.118 29.5 202.361Z" fill="white"/>
<rect x="21.5" y="211.499" width="21" height="21" transform="rotate(180 21.5 211.499)" fill="white" fill-opacity="0.2" stroke="white"/>
<path d="M28.93 172.119C28.93 171.706 29.0433 171.374 29.27 171.124C29.5 170.874 29.8467 170.749 30.31 170.749L31.19 170.749C31.64 170.749 31.9817 170.874 32.215 171.124C32.4517 171.374 32.57 171.706 32.57 172.119C32.57 172.536 32.4517 172.867 32.215 173.114C31.9817 173.364 31.64 173.489 31.19 173.489L30.31 173.489C29.8467 173.489 29.5 173.364 29.27 173.114C29.0433 172.867 28.93 172.536 28.93 172.119ZM29.5 172.119C29.5 172.369 29.5683 172.552 29.705 172.669C29.8417 172.789 30.0367 172.849 30.29 172.849L31.22 172.849C31.4767 172.849 31.67 172.782 31.8 172.649C31.9333 172.519 32 172.342 32 172.119C32 171.889 31.9317 171.709 31.795 171.579C31.6583 171.452 31.4667 171.389 31.22 171.389L30.29 171.389C30.0267 171.389 29.8283 171.449 29.695 171.569C29.565 171.692 29.5 171.876 29.5 172.119ZM28.93 175.361C28.93 174.948 29.0433 174.616 29.27 174.366C29.5 174.116 29.8467 173.991 30.31 173.991L31.19 173.991C31.64 173.991 31.9817 174.116 32.215 174.366C32.4517 174.616 32.57 174.948 32.57 175.361C32.57 175.778 32.4517 176.11 32.215 176.356C31.9817 176.606 31.64 176.731 31.19 176.731L30.31 176.731C29.8467 176.731 29.5 176.606 29.27 176.356C29.0433 176.11 28.93 175.778 28.93 175.361ZM29.5 175.361C29.5 175.611 29.5683 175.795 29.705 175.911C29.8417 176.031 30.0367 176.091 30.29 176.091L31.22 176.091C31.4767 176.091 31.67 176.025 31.8 175.891C31.9333 175.761 32 175.585 32 175.361C32 175.131 31.9317 174.951 31.795 174.821C31.6583 174.695 31.4667 174.631 31.22 174.631L30.29 174.631C30.0267 174.631 29.8283 174.691 29.695 174.811C29.565 174.935 29.5 175.118 29.5 175.361Z" fill="white"/>
<rect x="21.5" y="184.499" width="21" height="21" transform="rotate(180 21.5 184.499)" fill="white" fill-opacity="0.4" stroke="white"/>
<path d="M28.93 145.119C28.93 144.706 29.0433 144.374 29.27 144.124C29.5 143.874 29.8467 143.749 30.31 143.749L31.19 143.749C31.64 143.749 31.9817 143.874 32.215 144.124C32.4517 144.374 32.57 144.706 32.57 145.119C32.57 145.536 32.4517 145.867 32.215 146.114C31.9817 146.364 31.64 146.489 31.19 146.489L30.31 146.489C29.8467 146.489 29.5 146.364 29.27 146.114C29.0433 145.867 28.93 145.536 28.93 145.119ZM29.5 145.119C29.5 145.369 29.5683 145.552 29.705 145.669C29.8417 145.789 30.0367 145.849 30.29 145.849L31.22 145.849C31.4767 145.849 31.67 145.782 31.8 145.649C31.9333 145.519 32 145.342 32 145.119C32 144.889 31.9317 144.709 31.795 144.579C31.6583 144.452 31.4667 144.389 31.22 144.389L30.29 144.389C30.0267 144.389 29.8283 144.449 29.695 144.569C29.565 144.692 29.5 144.876 29.5 145.119ZM28.93 148.361C28.93 147.948 29.0433 147.616 29.27 147.366C29.5 147.116 29.8467 146.991 30.31 146.991L31.19 146.991C31.64 146.991 31.9817 147.116 32.215 147.366C32.4517 147.616 32.57 147.948 32.57 148.361C32.57 148.778 32.4517 149.11 32.215 149.356C31.9817 149.606 31.64 149.731 31.19 149.731L30.31 149.731C29.8467 149.731 29.5 149.606 29.27 149.356C29.0433 149.11 28.93 148.778 28.93 148.361ZM29.5 148.361C29.5 148.611 29.5683 148.795 29.705 148.911C29.8417 149.031 30.0367 149.091 30.29 149.091L31.22 149.091C31.4767 149.091 31.67 149.025 31.8 148.891C31.9333 148.761 32 148.585 32 148.361C32 148.131 31.9317 147.951 31.795 147.821C31.6583 147.695 31.4667 147.631 31.22 147.631L30.29 147.631C30.0267 147.631 29.8283 147.691 29.695 147.811C29.565 147.935 29.5 148.118 29.5 148.361Z" fill="white"/>
<rect x="21.5" y="157.499" width="21" height="21" transform="rotate(180 21.5 157.499)" fill="white" fill-opacity="0.5" stroke="white"/>
<path d="M28.93 118.119C28.93 117.706 29.0433 117.374 29.27 117.124C29.5 116.874 29.8467 116.749 30.31 116.749L31.19 116.749C31.64 116.749 31.9817 116.874 32.215 117.124C32.4517 117.374 32.57 117.706 32.57 118.119C32.57 118.536 32.4517 118.867 32.215 119.114C31.9817 119.364 31.64 119.489 31.19 119.489L30.31 119.489C29.8467 119.489 29.5 119.364 29.27 119.114C29.0433 118.867 28.93 118.536 28.93 118.119ZM29.5 118.119C29.5 118.369 29.5683 118.552 29.705 118.669C29.8417 118.789 30.0367 118.849 30.29 118.849L31.22 118.849C31.4767 118.849 31.67 118.782 31.8 118.649C31.9333 118.519 32 118.342 32 118.119C32 117.889 31.9317 117.709 31.795 117.579C31.6583 117.452 31.4667 117.389 31.22 117.389L30.29 117.389C30.0267 117.389 29.8283 117.449 29.695 117.569C29.565 117.692 29.5 117.876 29.5 118.119ZM28.93 121.361C28.93 120.948 29.0433 120.616 29.27 120.366C29.5 120.116 29.8467 119.991 30.31 119.991L31.19 119.991C31.64 119.991 31.9817 120.116 32.215 120.366C32.4517 120.616 32.57 120.948 32.57 121.361C32.57 121.778 32.4517 122.11 32.215 122.356C31.9817 122.606 31.64 122.731 31.19 122.731L30.31 122.731C29.8467 122.731 29.5 122.606 29.27 122.356C29.0433 122.11 28.93 121.778 28.93 121.361ZM29.5 121.361C29.5 121.611 29.5683 121.795 29.705 121.911C29.8417 122.031 30.0367 122.091 30.29 122.091L31.22 122.091C31.4767 122.091 31.67 122.025 31.8 121.891C31.9333 121.761 32 121.585 32 121.361C32 121.131 31.9317 120.951 31.795 120.821C31.6583 120.695 31.4667 120.631 31.22 120.631L30.29 120.631C30.0267 120.631 29.8283 120.691 29.695 120.811C29.565 120.935 29.5 121.118 29.5 121.361Z" fill="white"/>
<rect x="21.5" y="130.499" width="21" height="21" transform="rotate(180 21.5 130.499)" fill="white" fill-opacity="0.6" stroke="white"/>
<path d="M28.93 91.119C28.93 90.7057 29.0433 90.374 29.27 90.124C29.5 89.874 29.8467 89.749 30.31 89.749L31.19 89.749C31.64 89.749 31.9817 89.874 32.215 90.124C32.4517 90.374 32.57 90.7057 32.57 91.119C32.57 91.5357 32.4517 91.8674 32.215 92.114C31.9817 92.364 31.64 92.489 31.19 92.489L30.31 92.489C29.8467 92.489 29.5 92.364 29.27 92.114C29.0433 91.8674 28.93 91.5357 28.93 91.119ZM29.5 91.119C29.5 91.369 29.5683 91.5524 29.705 91.669C29.8417 91.789 30.0367 91.849 30.29 91.849L31.22 91.849C31.4767 91.849 31.67 91.7824 31.8 91.649C31.9333 91.519 32 91.3424 32 91.119C32 90.889 31.9317 90.709 31.795 90.579C31.6583 90.4524 31.4667 90.389 31.22 90.389L30.29 90.389C30.0267 90.389 29.8283 90.449 29.695 90.569C29.565 90.6924 29.5 90.8757 29.5 91.119ZM28.93 94.3612C28.93 93.9479 29.0433 93.6162 29.27 93.3662C29.5 93.1162 29.8467 92.9912 30.31 92.9912L31.19 92.9912C31.64 92.9912 31.9817 93.1162 32.215 93.3662C32.4517 93.6162 32.57 93.9479 32.57 94.3612C32.57 94.7779 32.4517 95.1095 32.215 95.3562C31.9817 95.6062 31.64 95.7312 31.19 95.7312L30.31 95.7312C29.8467 95.7312 29.5 95.6062 29.27 95.3562C29.0433 95.1095 28.93 94.7779 28.93 94.3612ZM29.5 94.3612C29.5 94.6112 29.5683 94.7945 29.705 94.9112C29.8417 95.0312 30.0367 95.0912 30.29 95.0912L31.22 95.0912C31.4767 95.0912 31.67 95.0245 31.8 94.8912C31.9333 94.7612 32 94.5845 32 94.3612C32 94.1312 31.9317 93.9512 31.795 93.8212C31.6583 93.6945 31.4667 93.6312 31.22 93.6312L30.29 93.6312C30.0267 93.6312 29.8283 93.6912 29.695 93.8112C29.565 93.9345 29.5 94.1179 29.5 94.3612Z" fill="white"/>
<rect x="21.5" y="103.499" width="21" height="21" transform="rotate(180 21.5 103.499)" fill="white" fill-opacity="0.7" stroke="white"/>
<path d="M28.93 64.119C28.93 63.7057 29.0433 63.374 29.27 63.124C29.5 62.874 29.8467 62.749 30.31 62.749L31.19 62.749C31.64 62.749 31.9817 62.874 32.215 63.124C32.4517 63.374 32.57 63.7057 32.57 64.119C32.57 64.5357 32.4517 64.8674 32.215 65.114C31.9817 65.364 31.64 65.489 31.19 65.489L30.31 65.489C29.8467 65.489 29.5 65.364 29.27 65.114C29.0433 64.8674 28.93 64.5357 28.93 64.119ZM29.5 64.119C29.5 64.369 29.5683 64.5524 29.705 64.669C29.8417 64.789 30.0367 64.849 30.29 64.849L31.22 64.849C31.4767 64.849 31.67 64.7824 31.8 64.649C31.9333 64.519 32 64.3424 32 64.119C32 63.889 31.9317 63.709 31.795 63.579C31.6583 63.4524 31.4667 63.389 31.22 63.389L30.29 63.389C30.0267 63.389 29.8283 63.449 29.695 63.569C29.565 63.6924 29.5 63.8757 29.5 64.119ZM28.93 67.3612C28.93 66.9479 29.0433 66.6162 29.27 66.3662C29.5 66.1162 29.8467 65.9912 30.31 65.9912L31.19 65.9912C31.64 65.9912 31.9817 66.1162 32.215 66.3662C32.4517 66.6162 32.57 66.9479 32.57 67.3612C32.57 67.7779 32.4517 68.1095 32.215 68.3562C31.9817 68.6062 31.64 68.7312 31.19 68.7312L30.31 68.7312C29.8467 68.7312 29.5 68.6062 29.27 68.3562C29.0433 68.1095 28.93 67.7779 28.93 67.3612ZM29.5 67.3612C29.5 67.6112 29.5683 67.7945 29.705 67.9112C29.8417 68.0312 30.0367 68.0912 30.29 68.0912L31.22 68.0912C31.4767 68.0912 31.67 68.0245 31.8 67.8912C31.9333 67.7612 32 67.5845 32 67.3612C32 67.1312 31.9317 66.9512 31.795 66.8212C31.6583 66.6945 31.4667 66.6312 31.22 66.6312L30.29 66.6312C30.0267 66.6312 29.8283 66.6912 29.695 66.8112C29.565 66.9345 29.5 67.1179 29.5 67.3612Z" fill="white"/>
<rect x="21.5" y="76.499" width="21" height="21" transform="rotate(180 21.5 76.499)" fill="white" fill-opacity="0.8" stroke="white"/>
<path d="M28.93 37.119C28.93 36.7057 29.0433 36.374 29.27 36.124C29.5 35.874 29.8467 35.749 30.31 35.749L31.19 35.749C31.64 35.749 31.9817 35.874 32.215 36.124C32.4517 36.374 32.57 36.7057 32.57 37.119C32.57 37.5357 32.4517 37.8674 32.215 38.114C31.9817 38.364 31.64 38.489 31.19 38.489L30.31 38.489C29.8467 38.489 29.5 38.364 29.27 38.114C29.0433 37.8674 28.93 37.5357 28.93 37.119ZM29.5 37.119C29.5 37.369 29.5683 37.5524 29.705 37.669C29.8417 37.789 30.0367 37.849 30.29 37.849L31.22 37.849C31.4767 37.849 31.67 37.7824 31.8 37.649C31.9333 37.519 32 37.3424 32 37.119C32 36.889 31.9317 36.709 31.795 36.579C31.6583 36.4524 31.4667 36.389 31.22 36.389L30.29 36.389C30.0267 36.389 29.8283 36.449 29.695 36.569C29.565 36.6924 29.5 36.8757 29.5 37.119ZM28.93 40.3612C28.93 39.9479 29.0433 39.6162 29.27 39.3662C29.5 39.1162 29.8467 38.9912 30.31 38.9912L31.19 38.9912C31.64 38.9912 31.9817 39.1162 32.215 39.3662C32.4517 39.6162 32.57 39.9479 32.57 40.3612C32.57 40.7779 32.4517 41.1095 32.215 41.3562C31.9817 41.6062 31.64 41.7312 31.19 41.7312L30.31 41.7312C29.8467 41.7312 29.5 41.6062 29.27 41.3562C29.0433 41.1095 28.93 40.7779 28.93 40.3612ZM29.5 40.3612C29.5 40.6112 29.5683 40.7945 29.705 40.9112C29.8417 41.0312 30.0367 41.0912 30.29 41.0912L31.22 41.0912C31.4767 41.0912 31.67 41.0245 31.8 40.8912C31.9333 40.7612 32 40.5845 32 40.3612C32 40.1312 31.9317 39.9512 31.795 39.8212C31.6583 39.6945 31.4667 39.6312 31.22 39.6312L30.29 39.6312C30.0267 39.6312 29.8283 39.6912 29.695 39.8112C29.565 39.9345 29.5 40.1179 29.5 40.3612Z" fill="white"/>
<rect x="21.5" y="49.499" width="21" height="21" transform="rotate(180 21.5 49.499)" fill="white" stroke="white"/>
<path d="M14 12.817L12.25 11.557L10.528 12.803L10.528 11.781L11.683 10.99L11.683 10.864L10.528 10.073L10.528 9.05102L12.25 10.297L14 9.03702L14 10.073L12.831 10.864L12.831 10.99L14 11.781L14 12.817ZM14.098 6.72845C14.098 7.09711 14.0327 7.42378 13.902 7.70845C13.7713 7.99311 13.5847 8.21711 13.342 8.38045C13.0947 8.53911 12.803 8.61845 12.467 8.61845L12.341 8.61845L12.341 7.72245L12.439 7.72245C12.7003 7.72245 12.9103 7.63145 13.069 7.44945C13.223 7.26745 13.3 7.02711 13.3 6.72845C13.3 6.42511 13.2277 6.19178 13.083 6.02845C12.9383 5.86045 12.7563 5.77645 12.537 5.77645L12.467 5.77645C12.3177 5.77645 12.1963 5.81378 12.103 5.88845C12.0097 5.96311 11.942 6.06345 11.9 6.18945C11.8533 6.31545 11.83 6.45778 11.83 6.61645L11.83 7.59645L10.85 7.59645L10.01 6.01445L9.898 6.01445L9.898 8.49245L9.1 8.49245L9.1 5.02045L10.29 5.02045L11.074 6.49745L11.186 6.49745L11.186 6.23845C11.186 6.01911 11.2303 5.80678 11.319 5.60145C11.4077 5.39145 11.5453 5.21878 11.732 5.08345C11.914 4.94811 12.152 4.88045 12.446 4.88045L12.53 4.88045C12.8473 4.88045 13.125 4.95745 13.363 5.11145C13.5963 5.26545 13.7783 5.48245 13.909 5.76245C14.035 6.03778 14.098 6.35978 14.098 6.72845ZM14.098 2.46966C14.098 2.83832 14.0327 3.16499 13.902 3.44966C13.7713 3.73432 13.5847 3.95832 13.342 4.12166C13.0947 4.28032 12.803 4.35966 12.467 4.35966L12.341 4.35966L12.341 3.46366L12.439 3.46366C12.7003 3.46366 12.9103 3.37266 13.069 3.19066C13.223 3.00866 13.3 2.76832 13.3 2.46966C13.3 2.16632 13.2277 1.93299 13.083 1.76966C12.9383 1.60166 12.7563 1.51766 12.537 1.51766L12.467 1.51766C12.3177 1.51766 12.1963 1.55499 12.103 1.62966C12.0097 1.70432 11.942 1.80466 11.9 1.93066C11.8533 2.05666 11.83 2.19899 11.83 2.35766L11.83 3.33766L10.85 3.33766L10.01 1.75566L9.898 1.75566L9.898 4.23366L9.1 4.23366L9.1 0.761656L10.29 0.761656L11.074 2.23866L11.186 2.23866L11.186 1.97966C11.186 1.76032 11.2303 1.54799 11.319 1.34266C11.4077 1.13266 11.5453 0.959989 11.732 0.824656C11.914 0.689323 12.152 0.621656 12.446 0.621656L12.53 0.621656C12.8473 0.621656 13.125 0.698656 13.363 0.852656C13.5963 1.00666 13.7783 1.22366 13.909 1.50366C14.035 1.77899 14.098 2.10099 14.098 2.46966Z" fill="white"/>
<line x1="11" y1="237.999" x2="11" y2="226.999" stroke="white"/>
<line x1="17" y1="232.499" x2="5" y2="232.499" stroke="white"/>
<path d="M86.7765 259.132V270.56H82.5239V259.132H86.7765Z" fill="white"/>
<path d="M76.9438 259.132V270.693H72.8242V259.132H76.9438Z" fill="white"/>
<path d="M67.2412 259.265V270.693H63.1216V259.265H67.2412Z" fill="white"/>
<path d="M57.5415 259.265V270.826H53.4219V259.265H57.5415Z" fill="white"/>
<path d="M81.8608 259.132V270.693H77.7412V259.132H81.8608Z" fill="white"/>
<path d="M72.1593 259.265V270.693H67.9067V259.265H72.1593Z" fill="white"/>
<path d="M62.4595 259.265V270.826H58.207V259.265H62.4595Z" fill="white"/>
<path d="M52.757 259.265V270.693H48.5044V259.265H52.757Z" fill="white"/>
<path d="M47.8388 258.999V270.561H43.7192V258.999H47.8388Z" fill="white"/>
<path d="M43.0571 259.132V270.56H38.8047V259.132H43.0571Z" fill="white"/>
<path d="M38.1393 259.132V270.56H34.0195V259.132H38.1393Z" fill="white"/>
<path d="M28.437 259.132V270.693H24.1846V259.132H28.437Z" fill="white"/>
<path d="M18.7373 259.265V270.693H14.4849V259.265H18.7373Z" fill="white"/>
<path d="M9.03532 259.265V270.826H4.78271V259.265H9.03532Z" fill="white"/>
<path d="M33.3545 259.132V270.693H29.1021V259.132H33.3545Z" fill="white"/>
<path d="M23.6549 259.265V270.693H19.4023V259.265H23.6549Z" fill="white"/>
<path d="M13.8193 259.265V270.826H9.69971V259.265H13.8193Z" fill="white"/>
<path d="M4.11958 259.265V270.693H0V259.265H4.11958Z" fill="white"/>
<path fill-rule="evenodd" clip-rule="evenodd" d="M4.91706 281.19C7.04331 281.19 7.84059 281.456 7.84059 283.715C7.84059 285.975 7.04331 286.24 4.91706 286.24H1.99336V287.835H0V281.19H4.91706ZM4.91706 284.513C5.31573 284.513 5.71437 284.38 5.71437 283.715C5.71437 283.184 5.31573 282.918 4.91706 282.918H1.99336V284.513H4.91706ZM13.555 287.968C9.30245 287.968 9.1695 287.702 9.1695 284.513C9.1695 281.456 9.30245 281.19 13.555 281.19C17.8075 281.19 17.9403 281.456 17.9403 284.513C17.9403 287.702 17.8075 287.968 13.555 287.968ZM13.555 286.24C15.8141 286.24 15.9469 286.24 15.9469 284.513C15.9469 282.918 15.8141 282.918 13.555 282.918C11.1629 282.918 11.1629 282.918 11.1629 284.513C11.1629 286.24 11.1629 286.24 13.555 286.24ZM25.2492 285.974C25.2492 285.576 25.1163 285.443 23.3887 285.443C19.9336 285.31 19.402 285.177 19.402 283.184C19.402 281.19 20.4652 281.19 23.2559 281.19C26.4453 281.19 27.1098 281.323 27.1098 283.45H25.1164C25.1164 282.785 25.1164 282.785 23.2559 282.785C21.5283 282.785 21.5284 282.785 21.5284 283.184C21.5284 283.582 21.7941 283.715 23.3887 283.715C26.711 283.848 27.2426 283.981 27.2426 285.974C27.2426 287.835 26.4453 287.968 23.2559 287.968C19.9336 287.968 19.402 287.835 19.402 285.576H21.3954C21.3954 286.373 21.3954 286.373 23.3887 286.373C25.2492 286.373 25.2492 286.373 25.2492 285.974ZM30.8308 287.835H28.7044V281.19H30.8308V287.835ZM32.2925 281.323H40.1331V282.918H37.2094V287.835H35.2161V282.918H32.2925V281.323ZM43.5882 287.968H41.5949V281.323H43.5882V287.968ZM49.4355 288.101C45.183 288.101 45.05 287.835 45.05 284.778C45.05 281.589 45.183 281.323 49.4355 281.323C53.688 281.323 53.8208 281.589 53.8208 284.778C53.8208 287.835 53.688 288.101 49.4355 288.101ZM49.4355 286.373C51.8275 286.373 51.8274 286.373 51.8274 284.778C51.8274 283.051 51.8275 283.051 49.4355 283.051C47.0434 283.051 47.0434 283.051 47.0434 284.778C47.0434 286.373 47.0434 286.373 49.4355 286.373ZM64.452 287.968H61.1298L57.6746 283.051C57.5417 283.051 57.5418 282.785 57.4089 282.785C57.4089 282.918 57.5418 283.317 57.5418 283.45V287.968H55.5484V281.456H58.8707L62.3258 286.24C62.4587 286.373 62.4586 286.639 62.5915 286.639C62.5915 286.506 62.4587 286.107 62.4587 285.974V281.456H64.452V287.968Z" fill="white"/>
<path d="M96.7431 259.132V270.56H92.6235V259.132H96.7431Z" fill="white"/>
<path d="M91.8262 259.132V270.56H87.5737V259.132H91.8262Z" fill="white"/>
<path fill-rule="evenodd" clip-rule="evenodd" d="M0.396973 296.341H5.57975C5.84553 296.341 6.06701 296.385 6.2442 296.474C6.42139 296.474 6.59845 296.562 6.77563 296.74C6.86423 296.828 6.95292 296.961 7.04151 297.138C7.04151 297.315 7.04151 297.493 7.04151 297.67V298.999C7.04151 299.265 7.04151 299.486 7.04151 299.663C6.95292 299.84 6.86423 299.973 6.77563 300.062C6.59845 300.15 6.42139 300.239 6.2442 300.328C6.06701 300.328 5.84553 300.328 5.57975 300.328H2.12446V302.587H0.396973V296.341ZM4.91529 297.803H2.12446V298.866H4.91529C5.09248 298.866 5.18101 298.866 5.18101 298.866C5.2696 298.866 5.31387 298.866 5.31387 298.866C5.31387 298.777 5.31387 298.689 5.31387 298.6V298.069C5.31387 297.98 5.31387 297.936 5.31387 297.936C5.31387 297.936 5.31387 297.891 5.31387 297.803C5.31387 297.803 5.2696 297.803 5.18101 297.803C5.18101 297.803 5.09248 297.803 4.91529 297.803ZM12.6229 301.391H8.23756V300.062V299.929L12.6229 296.341H14.2176V299.929H15.6794V301.391H14.2176V302.72H12.6229V301.391ZM12.6229 299.929V298.069L10.2309 299.929H12.6229ZM19.1345 298.6C19.2231 298.6 19.3117 298.6 19.4003 298.6C19.666 298.6 19.8875 298.6 20.0647 298.6C20.3305 298.511 20.552 298.467 20.7292 298.467C20.9949 298.467 21.2164 298.467 21.3936 298.467C21.8366 298.467 22.2353 298.511 22.5897 298.6C22.944 298.689 23.2098 298.777 23.387 298.866C23.6528 298.954 23.83 299.132 23.9186 299.397C24.0072 299.663 24.0514 299.929 24.0514 300.195V300.992C24.0514 301.524 23.8744 301.922 23.52 302.188C23.3428 302.365 23.0769 302.498 22.7225 302.587C22.4567 302.587 22.1467 302.587 21.7924 302.587H19.4003C19.0459 302.587 18.6916 302.587 18.3372 302.587C18.0714 302.498 17.85 302.365 17.6728 302.188C17.5842 302.011 17.4955 301.789 17.4069 301.524C17.3183 301.258 17.274 300.948 17.274 300.593V299.796C17.274 299.265 17.3627 298.777 17.5399 298.334C17.7171 297.891 18.0271 297.493 18.4701 297.138C18.8245 296.872 19.3117 296.651 19.9319 296.474C20.4634 296.297 21.0836 296.208 21.7924 296.208C21.7924 296.208 21.8366 296.208 21.9252 296.208C22.0138 296.208 22.0581 296.208 22.0581 296.208C22.0581 296.208 22.1025 296.208 22.1911 296.208L22.324 296.341L23.1213 297.271L23.387 297.67H22.5897C21.9695 297.67 21.438 297.67 20.995 297.67C20.5521 297.758 20.2419 297.847 20.0647 297.936C19.7989 298.024 19.5774 298.157 19.4003 298.334C19.3117 298.423 19.2231 298.511 19.1345 298.6ZM18.8688 299.929V300.062C18.8688 300.328 18.9131 300.549 19.0017 300.726C19.0017 300.904 19.0459 300.992 19.1345 300.992C19.1345 301.081 19.1788 301.125 19.2674 301.125C19.4446 301.125 19.6661 301.125 19.9319 301.125H21.5266C21.7038 301.125 21.8809 301.125 22.0581 301.125C22.1467 301.125 22.1911 301.081 22.1911 300.992C22.2797 300.992 22.324 300.948 22.324 300.859C22.324 300.859 22.324 300.815 22.324 300.726V300.328C22.324 300.239 22.324 300.15 22.324 300.062C22.324 300.062 22.2797 300.018 22.1911 299.929C22.1911 299.929 22.1024 299.929 21.9252 299.929C21.748 299.929 21.5265 299.929 21.2608 299.929C21.0836 299.929 20.9064 299.929 20.7292 299.929C20.4634 299.929 20.2419 299.929 20.0647 299.929C19.8875 299.929 19.666 299.929 19.4003 299.929C19.2231 299.929 19.046 299.929 18.8688 299.929ZM27.9053 302.454L30.829 297.803H27.5067V299.132L27.2408 298.999L26.0448 298.866H25.9119V296.341H32.8224V297.537L32.6893 297.67L29.7658 302.587L29.6329 302.72H27.6396L27.9053 302.454ZM39.3339 296.474H41.0615V301.125H45.447V302.72H39.3339V296.474ZM51.8256 296.474C52.4458 296.474 52.8445 296.562 53.0217 296.74C53.1989 296.828 53.2874 296.961 53.2874 297.138C53.376 297.315 53.4204 297.537 53.4204 297.803V298.334C53.4204 298.511 53.376 298.689 53.2874 298.866C53.2874 299.043 53.2431 299.176 53.1545 299.264C53.066 299.353 52.9774 299.397 52.8888 299.397C52.9774 299.486 53.066 299.575 53.1545 299.663C53.2431 299.752 53.3318 299.885 53.4204 300.062C53.509 300.239 53.5533 300.416 53.5533 300.593V301.258C53.5533 301.524 53.509 301.745 53.4204 301.922C53.3318 302.099 53.2431 302.232 53.1545 302.321C52.9774 302.498 52.8001 302.587 52.623 302.587C52.4458 302.675 52.2243 302.72 51.9585 302.72H48.2377C47.8833 302.72 47.6175 302.675 47.4403 302.587C47.2632 302.587 47.0859 302.498 46.9087 302.321C46.8202 302.232 46.7315 302.099 46.6429 301.922C46.5543 301.745 46.51 301.524 46.51 301.258V300.593C46.51 300.416 46.5543 300.239 46.6429 300.062C46.7315 299.885 46.8202 299.752 46.9087 299.663C46.9973 299.575 47.1301 299.486 47.3073 299.397C47.2187 299.397 47.1302 299.353 47.0416 299.264C46.8644 299.176 46.7759 299.043 46.7759 298.866C46.6873 298.689 46.6429 298.511 46.6429 298.334V297.803C46.6429 297.537 46.6873 297.315 46.7759 297.138C46.8645 296.961 46.953 296.828 47.0416 296.74C47.1302 296.651 47.3074 296.562 47.5732 296.474C47.7504 296.474 47.9719 296.474 48.2377 296.474H51.8256ZM51.4271 297.936H48.6362C48.459 297.936 48.3705 297.936 48.3705 297.936C48.3705 298.024 48.3705 298.113 48.3705 298.201V298.467C48.3705 298.556 48.3705 298.644 48.3705 298.733C48.3705 298.733 48.4148 298.733 48.5034 298.733C48.5034 298.733 48.5476 298.733 48.6362 298.733H51.4271C51.5157 298.733 51.5599 298.733 51.5599 298.733C51.6485 298.733 51.6928 298.733 51.6928 298.733C51.6928 298.644 51.6928 298.556 51.6928 298.467V298.201C51.6928 298.113 51.6928 298.024 51.6928 297.936C51.6928 297.936 51.6485 297.936 51.5599 297.936C51.5599 297.936 51.5157 297.936 51.4271 297.936ZM51.5599 300.195H48.5034C48.4148 300.195 48.3705 300.195 48.3705 300.195C48.2819 300.195 48.2377 300.195 48.2377 300.195C48.2377 300.195 48.2377 300.239 48.2377 300.328C48.2377 300.328 48.2377 300.372 48.2377 300.461V300.859C48.2377 300.948 48.2377 301.036 48.2377 301.125C48.3262 301.214 48.4148 301.258 48.5034 301.258H51.5599C51.6485 301.258 51.6928 301.214 51.6928 301.125C51.7814 301.125 51.8256 301.125 51.8256 301.125C51.8256 301.036 51.8256 300.948 51.8256 300.859V300.461C51.8256 300.372 51.8256 300.328 51.8256 300.328C51.8256 300.239 51.8256 300.195 51.8256 300.195C51.8256 300.195 51.7814 300.195 51.6928 300.195C51.6928 300.195 51.6485 300.195 51.5599 300.195ZM55.1479 298.069C55.1479 297.803 55.1922 297.537 55.2808 297.271C55.3694 297.094 55.4581 296.917 55.5466 296.74C55.6352 296.651 55.8125 296.562 56.0782 296.474C56.2554 296.474 56.4769 296.474 56.7427 296.474H60.7294C60.9952 296.474 61.2167 296.474 61.3939 296.474C61.5711 296.562 61.7481 296.651 61.9253 296.74C62.0139 296.917 62.1026 297.094 62.1912 297.271C62.1912 297.537 62.1912 297.803 62.1912 298.069V301.125C62.1912 301.391 62.1912 301.612 62.1912 301.789C62.1026 302.055 62.0139 302.232 61.9253 302.321C61.7481 302.41 61.5711 302.498 61.3939 302.587C61.2167 302.675 60.9952 302.72 60.7294 302.72H56.7427C56.4769 302.72 56.2554 302.675 56.0782 302.587C55.8125 302.498 55.6352 302.41 55.5466 302.321C55.4581 302.232 55.3694 302.055 55.2808 301.789C55.1922 301.612 55.1479 301.391 55.1479 301.125V298.069ZM56.8756 301.258H60.5964V297.803H56.8756V301.258ZM66.8424 298.069H65.6463V296.872H65.7792L68.3041 296.474H68.437V302.853H66.8424V298.069ZM78.6697 302.72C78.1381 302.72 77.7394 302.631 77.4736 302.454C77.385 302.365 77.2963 302.188 77.2077 301.922C77.1192 301.834 77.0749 301.657 77.0749 301.391V300.726H77.3408L78.5367 300.461L78.8025 300.328V301.258H81.7261C81.8147 301.258 81.8589 301.258 81.8589 301.258C81.9475 301.258 81.9919 301.258 81.9919 301.258C81.9919 301.169 81.9919 301.125 81.9919 301.125C81.9919 301.125 81.9919 301.081 81.9919 300.992V300.461C81.9919 300.372 81.9919 300.328 81.9919 300.328C81.9919 300.239 81.9919 300.195 81.9919 300.195C81.9919 300.195 81.9475 300.195 81.8589 300.195C81.8589 300.195 81.8147 300.195 81.7261 300.195H79.467V298.866H81.4604C81.5489 298.866 81.6375 298.866 81.7261 298.866C81.7261 298.777 81.7261 298.733 81.7261 298.733C81.7261 298.644 81.7261 298.556 81.7261 298.467V298.201C81.7261 298.113 81.7261 298.069 81.7261 298.069C81.7261 297.98 81.7261 297.936 81.7261 297.936C81.6375 297.936 81.5489 297.936 81.4604 297.936H78.8025V298.733L78.5367 298.6L77.3408 298.467L77.2077 298.334V297.803C77.2077 297.36 77.3407 297.005 77.6065 296.74C77.6951 296.651 77.828 296.607 78.0052 296.607C78.271 296.518 78.5368 296.474 78.8025 296.474H81.8589C82.4791 296.474 82.8778 296.562 83.055 296.74C83.2322 296.917 83.3209 297.094 83.3209 297.271C83.4094 297.448 83.4537 297.626 83.4537 297.803V298.334C83.4537 298.511 83.4094 298.689 83.3209 298.866C83.3209 299.043 83.2764 299.176 83.1878 299.264C83.0992 299.353 83.0107 299.397 82.9221 299.397C83.0993 299.486 83.2323 299.575 83.3209 299.663C83.4094 299.752 83.498 299.885 83.5866 300.062C83.6752 300.239 83.7194 300.416 83.7194 300.593V301.258C83.7194 301.524 83.6752 301.745 83.5866 301.922C83.498 302.099 83.4094 302.277 83.3209 302.454C83.1437 302.542 82.9664 302.587 82.7893 302.587C82.6121 302.675 82.3463 302.72 81.9919 302.72H78.6697ZM86.1115 299.929L86.3772 296.74L86.5101 296.474H91.9588L91.8257 296.74V297.67L91.6929 297.936H87.7062L87.5733 298.6C87.7505 298.6 87.9277 298.556 88.1049 298.467C88.2821 298.467 88.4593 298.467 88.6365 298.467C88.8137 298.467 88.9907 298.467 89.1679 298.467C89.4337 298.467 89.6109 298.467 89.6995 298.467C90.2311 298.467 90.674 298.511 91.0284 298.6C91.3828 298.689 91.693 298.822 91.9588 298.999C92.2245 299.176 92.446 299.397 92.6232 299.663C92.8004 299.929 92.8889 300.239 92.8889 300.593C92.8889 301.036 92.8004 301.391 92.6232 301.657C92.446 301.922 92.2245 302.144 91.9588 302.321C91.693 302.498 91.3385 302.631 90.8956 302.72C90.4526 302.808 89.9654 302.853 89.4338 302.853C89.168 302.853 88.8578 302.808 88.5035 302.72C88.2377 302.72 88.0162 302.72 87.839 302.72C87.5732 302.72 87.3517 302.72 87.1746 302.72C86.9088 302.631 86.6873 302.587 86.5101 302.587H86.3772V302.454L86.1115 301.258L85.9787 300.992H86.3772C86.643 301.081 86.9088 301.125 87.1746 301.125C87.4403 301.214 87.7063 301.258 87.972 301.258C88.2378 301.258 88.4593 301.258 88.6365 301.258C88.9023 301.258 89.168 301.258 89.4338 301.258C89.7882 301.258 90.0539 301.258 90.2311 301.258C90.4969 301.258 90.6741 301.214 90.7627 301.125C90.9399 301.036 91.0284 300.948 91.0284 300.859C91.117 300.771 91.1613 300.682 91.1613 300.593C91.1613 300.505 91.117 300.416 91.0284 300.328C91.0284 300.239 90.9842 300.15 90.8956 300.062C90.7184 299.973 90.5412 299.929 90.364 299.929C90.0982 299.929 89.7882 299.929 89.4338 299.929C89.2566 299.929 89.0351 299.929 88.7693 299.929C88.5036 299.929 88.2378 299.929 87.972 299.929C87.7063 299.929 87.4403 299.973 87.1746 300.062C86.9088 300.062 86.643 300.106 86.3772 300.195H86.1115V299.929ZM98.6033 301.391H94.2178V300.195L94.3507 300.062L98.6033 296.474H98.7362H100.331V300.062H101.66V301.391H100.331V302.853H98.6033V301.391ZM98.6033 299.929V298.069L96.2112 299.929H98.6033ZM108.039 305.245H102.058V304.049H108.039V305.245ZM108.703 297.404H112.158C112.601 297.404 113.044 297.448 113.487 297.537C113.841 297.626 114.151 297.803 114.417 298.069C114.683 298.246 114.904 298.511 115.082 298.866C115.17 299.22 115.215 299.575 115.215 299.929C115.215 300.372 115.126 300.771 114.949 301.125C114.86 301.479 114.639 301.745 114.284 301.922C114.019 302.188 113.709 302.365 113.354 302.454C112.911 302.542 112.424 302.587 111.892 302.587H108.703V297.404ZM110.298 301.258H111.626C111.981 301.258 112.291 301.214 112.557 301.125C112.823 301.125 113.044 301.081 113.221 300.992C113.487 300.815 113.62 300.46 113.62 299.929C113.62 299.752 113.576 299.575 113.487 299.397C113.487 299.22 113.398 299.087 113.221 298.999C113.133 298.91 113 298.822 112.823 298.733C112.645 298.733 112.424 298.733 112.158 298.733H110.298V301.258ZM118.67 298.6C118.758 298.6 118.847 298.556 118.935 298.467C119.113 298.467 119.334 298.467 119.6 298.467C119.777 298.467 119.999 298.467 120.264 298.467C120.442 298.467 120.619 298.467 120.796 298.467C121.328 298.467 121.771 298.467 122.125 298.467C122.391 298.556 122.656 298.644 122.922 298.733C123.099 298.91 123.232 299.087 123.321 299.264C123.41 299.53 123.454 299.796 123.454 300.062V300.859C123.454 301.479 123.277 301.922 122.922 302.188C122.745 302.277 122.524 302.365 122.258 302.454C121.992 302.542 121.682 302.587 121.328 302.587H118.803C118.448 302.587 118.138 302.542 117.872 302.454C117.607 302.365 117.385 302.232 117.208 302.055C117.031 301.967 116.898 301.745 116.809 301.391C116.721 301.214 116.676 300.948 116.676 300.593V299.796C116.676 299.176 116.809 298.644 117.075 298.201C117.252 297.758 117.518 297.404 117.872 297.138C118.315 296.784 118.803 296.518 119.334 296.341C119.866 296.252 120.486 296.208 121.195 296.208C121.283 296.208 121.372 296.208 121.46 296.208C121.549 296.208 121.593 296.208 121.593 296.208H121.726H121.859L122.656 297.138L122.922 297.537H122.125C121.505 297.537 120.973 297.581 120.53 297.67C120.087 297.67 119.733 297.758 119.467 297.936C119.201 298.024 118.98 298.157 118.803 298.334C118.714 298.423 118.67 298.511 118.67 298.6ZM118.404 299.929C118.404 299.929 118.404 299.973 118.404 300.062C118.404 300.328 118.404 300.549 118.404 300.726C118.492 300.815 118.537 300.859 118.537 300.859C118.626 300.948 118.714 300.992 118.803 300.992C118.98 301.081 119.157 301.125 119.334 301.125H121.062C121.239 301.125 121.372 301.081 121.46 300.992C121.549 300.992 121.638 300.992 121.726 300.992C121.726 300.904 121.771 300.859 121.859 300.859C121.859 300.771 121.859 300.682 121.859 300.593V300.328C121.859 300.15 121.815 300.062 121.726 300.062C121.726 299.973 121.726 299.929 121.726 299.929C121.638 299.84 121.505 299.796 121.328 299.796C121.239 299.796 121.062 299.796 120.796 299.796C120.53 299.796 120.309 299.796 120.132 299.796C119.954 299.796 119.733 299.796 119.467 299.796C119.29 299.796 119.113 299.84 118.935 299.929C118.758 299.929 118.581 299.929 118.404 299.929ZM129.434 301.258H125.048V299.929H125.181L129.567 296.341V296.208H131.162V299.796H132.49V301.258H131.162V302.587H129.434V301.258ZM129.434 299.929V297.936L127.175 299.929H129.434ZM135.946 302.321L138.869 297.803H135.68V298.999H135.414L134.085 298.733H133.952V296.341H140.862V297.537L137.806 302.587L137.673 302.72H135.68L135.946 302.321ZM5.97832 309.497H2.12446V312.686H5.97832V311.889H3.71924V310.427H7.70597V312.686C7.70597 312.952 7.6617 313.174 7.57311 313.351C7.57311 313.617 7.48442 313.794 7.30723 313.882C7.21863 314.06 7.04141 314.148 6.77563 314.148C6.59845 314.237 6.3327 314.281 5.97832 314.281H1.9916C1.72582 314.281 1.50433 314.237 1.32714 314.148C1.06136 314.148 0.884142 314.06 0.795548 313.882C0.61836 313.794 0.485567 313.617 0.396973 313.351C0.396973 313.174 0.396973 312.952 0.396973 312.686V309.63C0.396973 309.364 0.396973 309.143 0.396973 308.966C0.485567 308.7 0.61836 308.523 0.795548 308.434C0.884142 308.257 1.06136 308.168 1.32714 308.168C1.50433 308.08 1.72582 308.035 1.9916 308.035H5.97832C6.3327 308.035 6.59845 308.08 6.77563 308.168C7.04141 308.168 7.21863 308.257 7.30723 308.434C7.48442 308.523 7.57311 308.655 7.57311 308.833C7.6617 309.01 7.70597 309.276 7.70597 309.63V309.896H7.57311L6.2442 310.162H5.97832V309.497ZM10.2309 309.364C10.2309 309.187 10.2309 309.01 10.2309 308.833C10.3195 308.655 10.408 308.478 10.4966 308.301C10.6738 308.213 10.851 308.168 11.0282 308.168C11.2054 308.08 11.4269 308.035 11.6927 308.035H14.7491C15.2806 308.035 15.6793 308.124 15.9451 308.301C16.0337 308.478 16.1224 308.655 16.211 308.833C16.211 309.01 16.211 309.187 16.211 309.364V309.763C16.211 309.94 16.211 310.073 16.211 310.162C16.211 310.339 16.1666 310.472 16.078 310.56C16.078 310.649 15.9895 310.737 15.8123 310.826C15.7237 310.915 15.5907 311.003 15.4135 311.092L12.6229 312.819H15.015V311.889L15.2807 312.022L16.3439 312.288H16.6096V312.952C16.6096 313.218 16.5653 313.44 16.4767 313.617C16.3881 313.794 16.2996 313.927 16.211 314.015C16.1224 314.104 15.9452 314.193 15.6794 314.281C15.5022 314.281 15.2807 314.281 15.015 314.281H9.96504V313.617C9.96504 313.44 9.96504 313.307 9.96504 313.218C9.96504 313.041 10.0093 312.908 10.0979 312.819C10.1865 312.731 10.2752 312.642 10.3638 312.554C10.4524 312.465 10.5852 312.376 10.7624 312.288L14.6162 309.896V309.497H11.8255V310.693H11.5598L10.3638 310.427L10.2309 310.294V309.364ZM20.4634 314.015L23.387 309.497H20.1977V310.693H19.9319L18.7358 310.56L18.4701 310.427V308.035H25.3803V309.231V309.364L22.324 314.281V314.414H20.3306L20.4634 314.015ZM29.1013 314.015L32.0249 309.364H28.8356V310.693H28.5698L27.3737 310.427H27.108V308.035H34.0182V309.231L30.9619 314.281H30.829H28.8356L29.1013 314.015ZM40.5299 308.035H44.5166C45.0482 308.035 45.5354 308.124 45.9784 308.301C46.4214 308.39 46.7758 308.567 47.0416 308.833C47.396 309.098 47.6617 309.453 47.8389 309.896C47.9275 310.25 47.9718 310.649 47.9718 311.092C47.9718 311.446 47.9718 311.712 47.9718 311.889C47.8832 312.155 47.7947 312.421 47.7061 312.686C47.5289 312.952 47.3517 313.174 47.1745 313.351C46.9973 313.528 46.8201 313.661 46.6429 313.75C46.4657 313.838 46.2886 313.927 46.1114 314.015C45.9342 314.104 45.757 314.148 45.5798 314.148C45.4027 314.237 45.1812 314.281 44.9154 314.281C44.6496 314.281 44.3839 314.281 44.1181 314.281H40.5299V308.035ZM42.2576 312.686H43.8522C44.2952 312.686 44.6496 312.686 44.9154 312.686C45.2698 312.598 45.5355 312.509 45.7127 312.421C45.8899 312.244 46.0228 312.066 46.1114 311.889C46.2 311.712 46.2443 311.446 46.2443 311.092C46.2443 310.56 46.0671 310.162 45.7127 309.896C45.6241 309.807 45.4469 309.719 45.1811 309.63C45.0039 309.541 44.7824 309.497 44.5166 309.497H42.2576V312.686ZM54.6163 312.022C54.5277 312.022 54.4392 312.022 54.3506 312.022C54.1734 312.022 53.9519 312.022 53.6861 312.022C53.509 312.022 53.3317 312.066 53.1545 312.155C52.8888 312.155 52.6673 312.155 52.4901 312.155C51.9585 312.155 51.5156 312.111 51.1612 312.022C50.8068 311.933 50.5411 311.845 50.3639 311.756C50.1867 311.579 50.0537 311.402 49.9651 311.225C49.8765 310.959 49.8323 310.693 49.8323 310.427V309.63C49.8323 309.364 49.8765 309.143 49.9651 308.966C50.0537 308.7 50.1867 308.523 50.3639 308.434C50.5411 308.257 50.7625 308.124 51.0283 308.035C51.2941 308.035 51.6041 308.035 51.9585 308.035H54.3506C54.7936 308.035 55.148 308.035 55.4138 308.035C55.6796 308.124 55.9011 308.257 56.0782 308.434C56.2554 308.611 56.3882 308.833 56.4768 309.098C56.5654 309.364 56.6097 309.674 56.6097 310.029V310.693C56.6097 311.313 56.4769 311.845 56.2111 312.288C56.0339 312.731 55.7237 313.129 55.2808 313.484C54.9264 313.75 54.4834 313.971 53.9519 314.148C53.4203 314.325 52.8003 314.414 52.0915 314.414C52.0029 314.414 51.9142 314.414 51.8256 314.414C51.737 314.414 51.6928 314.37 51.6928 314.281C51.6928 314.281 51.6485 314.281 51.5599 314.281H51.4271L50.6296 313.351L50.3639 312.952H51.1612C51.7813 312.952 52.313 312.952 52.756 312.952C53.1989 312.864 53.5532 312.775 53.819 312.686C54.0848 312.598 54.3063 312.465 54.4835 312.288C54.4835 312.199 54.5277 312.111 54.6163 312.022ZM54.8822 310.56C54.8822 310.56 54.8822 310.516 54.8822 310.427C54.8822 310.162 54.8822 309.94 54.8822 309.763C54.7936 309.674 54.7493 309.586 54.7493 309.497C54.6607 309.497 54.5721 309.497 54.4835 309.497C54.3063 309.408 54.129 309.364 53.9519 309.364H52.2244C52.0472 309.364 51.9142 309.408 51.8256 309.497C51.737 309.497 51.6485 309.497 51.5599 309.497C51.5599 309.497 51.5157 309.541 51.4271 309.63C51.4271 309.719 51.4271 309.807 51.4271 309.896V310.294C51.4271 310.472 51.4713 310.56 51.5599 310.56C51.6485 310.649 51.737 310.693 51.8256 310.693C52.0028 310.693 52.2243 310.693 52.4901 310.693C52.6673 310.693 52.8445 310.693 53.0217 310.693C53.2875 310.693 53.509 310.693 53.6861 310.693C53.8633 310.693 54.0848 310.693 54.3506 310.693C54.5278 310.693 54.705 310.649 54.8822 310.56ZM63.653 308.035C64.1845 308.035 64.5832 308.124 64.849 308.301C64.9376 308.39 65.0261 308.523 65.1147 308.7C65.1147 308.877 65.1147 309.098 65.1147 309.364V309.896C65.1147 310.073 65.1147 310.25 65.1147 310.427C65.0261 310.516 64.9376 310.649 64.849 310.826C64.7604 310.826 64.6717 310.87 64.5831 310.959C64.7603 311.048 64.8933 311.136 64.9819 311.225C65.0705 311.313 65.159 311.446 65.2476 311.623C65.2476 311.801 65.2476 311.978 65.2476 312.155V312.819C65.2476 312.997 65.2476 313.218 65.2476 313.484C65.159 313.661 65.0705 313.794 64.9819 313.882C64.8047 313.971 64.6275 314.06 64.4503 314.148C64.1845 314.237 63.9187 314.281 63.653 314.281H59.9319C59.6662 314.281 59.4447 314.237 59.2675 314.148C59.0017 314.06 58.8247 313.971 58.7361 313.882C58.5589 313.794 58.4702 313.661 58.4702 313.484C58.3816 313.218 58.3373 312.997 58.3373 312.819V312.155C58.3373 311.978 58.3816 311.801 58.4702 311.623C58.4702 311.446 58.5589 311.313 58.7361 311.225C58.8247 311.136 58.9132 311.048 59.0018 310.959C58.9132 310.87 58.8247 310.826 58.7361 310.826C58.6475 310.649 58.5588 310.516 58.4702 310.427C58.4702 310.25 58.4702 310.073 58.4702 309.896V309.364C58.4702 309.098 58.5144 308.877 58.603 308.7C58.603 308.523 58.6917 308.39 58.8689 308.301C58.9575 308.213 59.0903 308.124 59.2675 308.035C59.4447 308.035 59.7106 308.035 60.065 308.035H63.653ZM63.1214 309.364H60.4635C60.2864 309.364 60.1978 309.408 60.1978 309.497C60.1092 309.497 60.065 309.497 60.065 309.497C60.065 309.586 60.065 309.674 60.065 309.763V310.029C60.065 310.117 60.065 310.162 60.065 310.162C60.065 310.25 60.1092 310.294 60.1978 310.294C60.2864 310.294 60.375 310.294 60.4635 310.294H63.1214C63.21 310.294 63.2986 310.294 63.3872 310.294C63.4758 310.294 63.5201 310.25 63.5201 310.162C63.5201 310.162 63.5201 310.117 63.5201 310.029V309.763C63.5201 309.674 63.5201 309.586 63.5201 309.497C63.5201 309.497 63.4758 309.497 63.3872 309.497C63.3872 309.497 63.3872 309.453 63.3872 309.364C63.2986 309.364 63.21 309.364 63.1214 309.364ZM63.2542 311.756H60.3307C60.2421 311.756 60.1536 311.756 60.065 311.756C60.065 311.756 60.0205 311.756 59.9319 311.756C59.9319 311.845 59.9319 311.933 59.9319 312.022V312.421C59.9319 312.509 59.9319 312.598 59.9319 312.686C60.0205 312.686 60.065 312.686 60.065 312.686C60.1536 312.686 60.2421 312.686 60.3307 312.686H63.2542C63.3428 312.686 63.4315 312.686 63.5201 312.686C63.5201 312.686 63.5644 312.686 63.653 312.686C63.653 312.598 63.653 312.509 63.653 312.421V312.022C63.653 311.933 63.653 311.845 63.653 311.756C63.5644 311.756 63.5201 311.756 63.5201 311.756C63.4315 311.756 63.3428 311.756 63.2542 311.756ZM76.1447 311.358L76.4104 308.168V308.035H81.8589V308.168L81.7261 309.231V309.364H77.7393L77.6065 310.029C77.7837 310.029 77.9166 310.029 78.0052 310.029C78.271 310.029 78.4925 310.029 78.6697 310.029C78.8469 310.029 79.0239 309.984 79.2011 309.896C79.3783 309.896 79.5555 309.896 79.7327 309.896C80.2643 309.896 80.7072 309.94 81.0616 310.029C81.416 310.117 81.7262 310.25 81.9919 310.427C82.2577 310.693 82.4792 310.959 82.6564 311.225C82.745 311.49 82.7893 311.801 82.7893 312.155C82.7893 312.509 82.745 312.819 82.6564 313.085C82.4792 313.351 82.2577 313.572 81.9919 313.75C81.7262 313.927 81.3717 314.06 80.9288 314.148C80.4858 314.237 79.9986 314.281 79.467 314.281C79.1126 314.281 78.8024 314.281 78.5367 314.281C78.2709 314.281 78.0051 314.281 77.7393 314.281C77.5622 314.193 77.3407 314.148 77.0749 314.148C76.8977 314.148 76.7205 314.104 76.5433 314.015H76.4104V313.882L76.1447 312.819L76.0119 312.421L76.4104 312.554C76.6762 312.554 76.942 312.598 77.2077 312.686C77.4735 312.686 77.7394 312.686 78.0052 312.686C78.1824 312.775 78.4039 312.819 78.6697 312.819C78.9355 312.819 79.1569 312.819 79.3341 312.819C79.6885 312.819 79.9985 312.819 80.2643 312.819C80.5301 312.731 80.7073 312.642 80.7959 312.554C80.8845 312.554 80.973 312.509 81.0616 312.421C81.1502 312.332 81.1945 312.199 81.1945 312.022C81.1945 311.933 81.1502 311.845 81.0616 311.756C80.973 311.668 80.8845 311.623 80.7959 311.623C80.7073 311.535 80.5301 311.49 80.2643 311.49C80.0871 311.402 79.8214 311.358 79.467 311.358C79.2012 311.358 78.9797 311.358 78.8025 311.358C78.5368 311.446 78.271 311.49 78.0052 311.49C77.7394 311.49 77.4735 311.49 77.2077 311.49C76.942 311.579 76.632 311.623 76.2776 311.623H76.0119L76.1447 311.358ZM85.0483 309.364C85.0483 309.098 85.0483 308.877 85.0483 308.7C85.1369 308.523 85.2256 308.39 85.3142 308.301C85.4914 308.213 85.6685 308.124 85.8456 308.035C86.0228 308.035 86.2443 308.035 86.5101 308.035H89.5667C90.0982 308.035 90.4969 308.124 90.7627 308.301C90.8513 308.39 90.9398 308.523 91.0284 308.7C91.0284 308.877 91.0284 309.098 91.0284 309.364V309.763C91.0284 309.851 91.0284 309.984 91.0284 310.162C91.0284 310.25 90.9842 310.339 90.8956 310.427C90.8956 310.516 90.807 310.649 90.6298 310.826C90.5413 310.915 90.4083 311.003 90.2311 311.092L87.4404 312.686H89.8324V311.756L90.0983 311.889L91.1613 312.155L91.2943 312.288V312.819C91.2943 313.085 91.2943 313.307 91.2943 313.484C91.2057 313.661 91.117 313.794 91.0284 313.882C90.9398 314.06 90.7626 314.148 90.4968 314.148C90.3196 314.237 90.0982 314.281 89.8324 314.281H84.7826V313.484C84.7826 313.307 84.7826 313.174 84.7826 313.085C84.7826 312.997 84.8269 312.908 84.9155 312.819C85.0041 312.731 85.0926 312.642 85.1812 312.554C85.2698 312.465 85.4027 312.376 85.5799 312.288L89.4338 309.896V309.364H86.6431V310.693L86.3772 310.56L85.1812 310.294H85.0483V309.364ZM95.281 310.162C95.3696 310.162 95.4581 310.162 95.5467 310.162C95.8125 310.162 96.034 310.162 96.2112 310.162C96.3884 310.162 96.6099 310.117 96.8756 310.029C97.0528 310.029 97.2743 310.029 97.5401 310.029C97.9831 310.029 98.3818 310.073 98.7362 310.162C99.0905 310.25 99.3563 310.339 99.5335 310.427C99.7107 310.605 99.8879 310.782 100.065 310.959C100.154 311.225 100.198 311.49 100.198 311.756V312.554C100.198 313.085 99.9764 313.528 99.5335 313.882C99.3563 313.971 99.1348 314.06 98.869 314.148C98.6032 314.148 98.2932 314.148 97.9388 314.148H95.5467C95.1038 314.148 94.7493 314.148 94.4836 314.148C94.2178 314.06 93.9963 313.927 93.8191 313.75C93.6419 313.572 93.5091 313.351 93.4205 313.085C93.4205 312.819 93.4205 312.509 93.4205 312.155V311.49C93.4205 310.87 93.509 310.339 93.6862 309.896C93.8634 309.453 94.1736 309.054 94.6166 308.7C94.9709 308.434 95.4139 308.213 95.9455 308.035C96.5656 307.858 97.2301 307.77 97.9388 307.77C97.9388 307.77 97.9831 307.77 98.0717 307.77C98.0717 307.77 98.116 307.814 98.2046 307.902C98.2046 307.902 98.2488 307.902 98.3374 307.902H98.4703L99.2677 308.833L99.5335 309.231H98.7362C98.116 309.231 97.5843 309.276 97.1414 309.364C96.6984 309.364 96.3441 309.408 96.0783 309.497C95.9012 309.586 95.7239 309.719 95.5467 309.896C95.4581 309.984 95.3696 310.073 95.281 310.162ZM95.0151 311.623C95.0151 311.623 95.0151 311.668 95.0151 311.756C95.0151 312.022 95.0594 312.199 95.148 312.288C95.148 312.465 95.148 312.554 95.148 312.554C95.2366 312.642 95.3253 312.686 95.4139 312.686C95.5911 312.686 95.8126 312.686 96.0783 312.686H97.673C97.8502 312.686 97.9831 312.686 98.0717 312.686C98.2489 312.686 98.3374 312.642 98.3374 312.554C98.426 312.554 98.4703 312.554 98.4703 312.554C98.4703 312.465 98.4703 312.376 98.4703 312.288V311.889C98.4703 311.801 98.4703 311.712 98.4703 311.623C98.4703 311.623 98.426 311.623 98.3374 311.623C98.2488 311.535 98.1603 311.49 98.0717 311.49C97.8945 311.49 97.673 311.49 97.4072 311.49C97.2301 311.49 97.0528 311.49 96.8756 311.49C96.6099 311.49 96.3884 311.49 96.2112 311.49C95.9454 311.49 95.7239 311.49 95.5467 311.49C95.3696 311.49 95.1923 311.535 95.0151 311.623Z" fill="white"/>
</svg>
