<svg width="136" height="47" viewBox="0 0 136 47" fill="none" xmlns="http://www.w3.org/2000/svg">
<path d="M83.7192 0.608398V10.0953H79.6436V0.608398H83.7192Z" fill="white"/>
<path d="M74.2955 0.608398V10.2056H70.3474V0.608398H74.2955Z" fill="white"/>
<path d="M64.997 0.719727V10.2067H61.0488V0.719727H64.997Z" fill="white"/>
<path d="M55.7008 0.719727V10.317H51.7527V0.719727H55.7008Z" fill="white"/>
<path d="M79.0082 0.608398V10.2056H75.0601V0.608398H79.0082Z" fill="white"/>
<path d="M69.7104 0.719727V10.2067H65.6348V0.719727H69.7104Z" fill="white"/>
<path d="M60.4138 0.719727V10.317H56.3384V0.719727H60.4138Z" fill="white"/>
<path d="M51.1154 0.719727V10.2067H47.0398V0.719727H51.1154Z" fill="white"/>
<path d="M46.4022 0.499023V10.0963H42.4541V0.499023H46.4022Z" fill="white"/>
<path d="M41.8191 0.608398V10.0953H37.7437V0.608398H41.8191Z" fill="white"/>
<path d="M37.1062 0.608398V10.0953H33.158V0.608398H37.1062Z" fill="white"/>
<path d="M27.8079 0.608398V10.2056H23.7324V0.608398H27.8079Z" fill="white"/>
<path d="M18.5115 0.719727V10.2067H14.436V0.719727H18.5115Z" fill="white"/>
<path d="M9.21331 0.719727V10.317H5.1377V0.719727H9.21331Z" fill="white"/>
<path d="M32.5205 0.608398V10.2056H28.4451V0.608398H32.5205Z" fill="white"/>
<path d="M23.2245 0.719727V10.2067H19.1489V0.719727H23.2245Z" fill="white"/>
<path d="M13.7987 0.719727V10.317H9.85059V0.719727H13.7987Z" fill="white"/>
<path d="M4.50233 0.719727V10.2067H0.554199V0.719727H4.50233Z" fill="white"/>
<path fill-rule="evenodd" clip-rule="evenodd" d="M5.26661 18.9209C7.30437 18.9209 8.06847 19.1416 8.06847 21.0169C8.06847 22.8922 7.30437 23.1128 5.26661 23.1128H2.4646V24.4366H0.554199V18.9209H5.26661ZM5.26661 21.6787C5.64869 21.6787 6.03074 21.5685 6.03074 21.0169C6.03074 20.5756 5.64869 20.355 5.26661 20.355H2.4646V21.6787H5.26661ZM13.545 24.5469C9.46949 24.5469 9.34207 24.3263 9.34207 21.6787C9.34207 19.1415 9.46949 18.9209 13.545 18.9209C17.6205 18.9209 17.7478 19.1415 17.7478 21.6787C17.7478 24.3263 17.6205 24.5469 13.545 24.5469ZM13.545 23.1128C15.7101 23.1128 15.8374 23.1128 15.8374 21.6787C15.8374 20.355 15.7101 20.355 13.545 20.355C11.2525 20.355 11.2525 20.355 11.2525 21.6787C11.2525 23.1128 11.2525 23.1128 13.545 23.1128ZM24.7526 22.8922C24.7526 22.5612 24.6252 22.4509 22.9695 22.4509C19.6582 22.3406 19.1487 22.2303 19.1487 20.5756C19.1487 18.9209 20.1676 18.9209 22.8422 18.9209C25.8988 18.9209 26.5357 19.0312 26.5357 20.7962H24.6253C24.6253 20.2447 24.6252 20.2447 22.8422 20.2447C21.1865 20.2447 21.1866 20.2447 21.1866 20.5756C21.1866 20.9065 21.4412 21.0169 22.9695 21.0169C26.1535 21.1272 26.663 21.2375 26.663 22.8922C26.663 24.4365 25.8988 24.5469 22.8422 24.5469C19.6582 24.5469 19.1487 24.4366 19.1487 22.5612H21.0591C21.0591 23.2231 21.0591 23.2232 22.9695 23.2232C24.7526 23.2232 24.7526 23.2231 24.7526 22.8922ZM30.1018 24.4366H28.0639V18.9209H30.1018V24.4366ZM31.5027 19.0312H39.017V20.355H36.215V24.4366H34.3046V20.355H31.5027V19.0312ZM42.3283 24.5469H40.4179V19.0312H42.3283V24.5469ZM47.9322 24.6572C43.8567 24.6572 43.7293 24.4366 43.7293 21.8994C43.7293 19.2519 43.8567 19.0312 47.9322 19.0312C52.0077 19.0312 52.135 19.2519 52.135 21.8994C52.135 24.4366 52.0077 24.6572 47.9322 24.6572ZM47.9322 23.2232C50.2247 23.2232 50.2246 23.2231 50.2246 21.8994C50.2246 20.4653 50.2247 20.4653 47.9322 20.4653C45.6397 20.4653 45.6397 20.4653 45.6397 21.8994C45.6397 23.2231 45.6397 23.2232 47.9322 23.2232ZM62.3238 24.5469H59.1398L55.8285 20.4653C55.7011 20.4653 55.7012 20.2447 55.5738 20.2447C55.5738 20.355 55.7011 20.6859 55.7011 20.7962V24.5469H53.7907V19.1415H56.9747L60.2861 23.1128C60.4134 23.2231 60.4133 23.4437 60.5407 23.4437C60.5407 23.3334 60.4134 23.0025 60.4134 22.8922V19.1415H62.3238V24.5469Z" fill="white"/>
<path d="M93.2709 0.608398V10.0953H89.3228V0.608398H93.2709Z" fill="white"/>
<path d="M88.5586 0.608398V10.0953H84.4832V0.608398H88.5586Z" fill="white"/>
<path fill-rule="evenodd" clip-rule="evenodd" d="M0.93457 31.4961H5.90164C6.15636 31.4961 6.36863 31.5328 6.53844 31.6064C6.70825 31.6064 6.87794 31.6799 7.04776 31.827C7.13266 31.9006 7.21766 32.0109 7.30257 32.158C7.30257 32.305 7.30257 32.4521 7.30257 32.5992V33.7024C7.30257 33.923 7.30257 34.1069 7.30257 34.2539C7.21766 34.401 7.13266 34.5113 7.04776 34.5849C6.87794 34.6584 6.70825 34.732 6.53844 34.8055C6.36863 34.8055 6.15636 34.8055 5.90164 34.8055H2.59016V36.6808H0.93457V31.4961ZM5.26484 32.7095H2.59016V33.592H5.26484C5.43465 33.592 5.5195 33.592 5.5195 33.592C5.6044 33.592 5.64683 33.592 5.64683 33.592C5.64683 33.5185 5.64683 33.4449 5.64683 33.3714V32.9302C5.64683 32.8566 5.64683 32.8198 5.64683 32.8198C5.64683 32.8198 5.64683 32.7831 5.64683 32.7095C5.64683 32.7095 5.6044 32.7095 5.5195 32.7095C5.5195 32.7095 5.43465 32.7095 5.26484 32.7095ZM12.6516 35.688H8.44884V34.5849V34.4745L12.6516 31.4961H14.18V34.4745H15.581V35.688H14.18V36.7911H12.6516V35.688ZM12.6516 34.4745V32.9302L10.3592 34.4745H12.6516ZM18.8923 33.3714C18.9772 33.3714 19.062 33.3714 19.147 33.3714C19.4017 33.3714 19.6139 33.3714 19.7838 33.3714C20.0385 33.2978 20.2507 33.2611 20.4206 33.2611C20.6753 33.2611 20.8875 33.2611 21.0574 33.2611C21.4819 33.2611 21.864 33.2978 22.2036 33.3714C22.5433 33.4449 22.7979 33.5185 22.9678 33.592C23.2225 33.6656 23.3923 33.8127 23.4772 34.0333C23.5621 34.2539 23.6046 34.4745 23.6046 34.6951V35.3571C23.6046 35.7983 23.4349 36.1292 23.0952 36.3499C22.9254 36.4969 22.6706 36.6072 22.331 36.6808C22.0762 36.6808 21.7791 36.6808 21.4395 36.6808H19.147C18.8073 36.6808 18.4678 36.6808 18.1282 36.6808C17.8734 36.6072 17.6612 36.4969 17.4914 36.3499C17.4065 36.2028 17.3215 36.0189 17.2366 35.7983C17.1516 35.5777 17.1092 35.3202 17.1092 35.0261V34.3642C17.1092 33.923 17.1942 33.5185 17.364 33.1508C17.5339 32.7831 17.831 32.4521 18.2555 32.158C18.5951 31.9373 19.0621 31.7535 19.6564 31.6064C20.1659 31.4593 20.7602 31.3857 21.4395 31.3857C21.4395 31.3857 21.4819 31.3857 21.5668 31.3857C21.6517 31.3857 21.6942 31.3857 21.6942 31.3857C21.6942 31.3857 21.7367 31.3857 21.8216 31.3857L21.949 31.4961L22.7131 32.2682L22.9678 32.5992H22.2036C21.6093 32.5992 21.0999 32.5992 20.6754 32.5992C20.2508 32.6728 19.9536 32.7463 19.7838 32.8198C19.529 32.8933 19.3168 33.0037 19.147 33.1508C19.062 33.2243 18.9772 33.2978 18.8923 33.3714ZM18.6376 34.4745V34.5849C18.6376 34.8055 18.6801 34.9893 18.765 35.1364C18.765 35.2835 18.8074 35.3571 18.8923 35.3571C18.8923 35.4306 18.9347 35.4674 19.0196 35.4674C19.1894 35.4674 19.4017 35.4674 19.6564 35.4674H21.1848C21.3547 35.4674 21.5243 35.4674 21.6942 35.4674C21.7791 35.4674 21.8216 35.4306 21.8216 35.3571C21.9065 35.3571 21.949 35.3203 21.949 35.2467C21.949 35.2467 21.949 35.21 21.949 35.1364V34.8055C21.949 34.732 21.949 34.6584 21.949 34.5849C21.949 34.5849 21.9065 34.5481 21.8216 34.4745C21.8216 34.4745 21.7366 34.4745 21.5668 34.4745C21.397 34.4745 21.1847 34.4745 20.93 34.4745C20.7602 34.4745 20.5904 34.4745 20.4206 34.4745C20.1658 34.4745 19.9536 34.4745 19.7838 34.4745C19.6139 34.4745 19.4017 34.4745 19.147 34.4745C18.9771 34.4745 18.8075 34.4745 18.6376 34.4745ZM27.298 36.5705L30.1 32.7095H26.916V33.8127L26.6612 33.7024L25.515 33.592H25.3876V31.4961H32.0104V32.4889L31.883 32.5992L29.0811 36.6808L28.9538 36.7911H27.0434L27.298 36.5705ZM38.2509 31.6064H39.9067V35.4674H44.1096V36.7911H38.2509V31.6064ZM50.2228 31.6064C50.8172 31.6064 51.1993 31.6799 51.3691 31.827C51.5389 31.9006 51.6237 32.0109 51.6237 32.158C51.7087 32.305 51.7512 32.4889 51.7512 32.7095V33.1508C51.7512 33.2979 51.7087 33.4449 51.6237 33.592C51.6237 33.7391 51.5813 33.8494 51.4964 33.9229C51.4115 33.9965 51.3267 34.0333 51.2418 34.0333C51.3267 34.1068 51.4115 34.1804 51.4964 34.2539C51.5813 34.3275 51.6663 34.4378 51.7512 34.5849C51.8361 34.7319 51.8786 34.879 51.8786 35.0261V35.5776C51.8786 35.7983 51.8361 35.9821 51.7512 36.1292C51.6663 36.2763 51.5813 36.3867 51.4964 36.4602C51.3266 36.6073 51.1568 36.6808 50.9869 36.6808C50.8171 36.7543 50.6049 36.7911 50.3501 36.7911H46.7842C46.4445 36.7911 46.1898 36.7543 46.02 36.6808C45.8502 36.6808 45.6804 36.6073 45.5106 36.4602C45.4257 36.3867 45.3407 36.2763 45.2557 36.1292C45.1708 35.9821 45.1284 35.7983 45.1284 35.5776V35.0261C45.1284 34.879 45.1708 34.7319 45.2557 34.5849C45.3407 34.4378 45.4257 34.3275 45.5106 34.2539C45.5955 34.1804 45.7227 34.1068 45.8925 34.0333C45.8076 34.0333 45.7228 33.9965 45.6379 33.9229C45.4681 33.8494 45.3832 33.7391 45.3832 33.592C45.2983 33.4449 45.2557 33.2979 45.2557 33.1508V32.7095C45.2557 32.4889 45.2983 32.305 45.3832 32.158C45.4681 32.0109 45.553 31.9006 45.6379 31.827C45.7228 31.7535 45.8926 31.6799 46.1474 31.6064C46.3172 31.6064 46.5294 31.6064 46.7842 31.6064H50.2228ZM49.8408 32.8198H47.1661C46.9963 32.8198 46.9115 32.8198 46.9115 32.8198C46.9115 32.8933 46.9115 32.9669 46.9115 33.0404V33.2611C46.9115 33.3346 46.9115 33.4082 46.9115 33.4817C46.9115 33.4817 46.9539 33.4817 47.0388 33.4817C47.0388 33.4817 47.0812 33.4817 47.1661 33.4817H49.8408C49.9257 33.4817 49.9682 33.4817 49.9682 33.4817C50.0531 33.4817 50.0955 33.4817 50.0955 33.4817C50.0955 33.4082 50.0955 33.3346 50.0955 33.2611V33.0404C50.0955 32.9669 50.0955 32.8933 50.0955 32.8198C50.0955 32.8198 50.0531 32.8198 49.9682 32.8198C49.9682 32.8198 49.9257 32.8198 49.8408 32.8198ZM49.9682 34.6951H47.0388C46.9539 34.6951 46.9115 34.6951 46.9115 34.6951C46.8266 34.6951 46.7842 34.6951 46.7842 34.6951C46.7842 34.6951 46.7842 34.732 46.7842 34.8055C46.7842 34.8055 46.7842 34.8422 46.7842 34.9158V35.2467C46.7842 35.3203 46.7842 35.3938 46.7842 35.4674C46.8691 35.5409 46.9539 35.5776 47.0388 35.5776H49.9682C50.0531 35.5776 50.0955 35.5409 50.0955 35.4674C50.1804 35.4674 50.2228 35.4674 50.2228 35.4674C50.2228 35.3938 50.2228 35.3203 50.2228 35.2467V34.9158C50.2228 34.8422 50.2228 34.8055 50.2228 34.8055C50.2228 34.732 50.2228 34.6951 50.2228 34.6951C50.2228 34.6951 50.1804 34.6951 50.0955 34.6951C50.0955 34.6951 50.0531 34.6951 49.9682 34.6951ZM53.4068 32.9302C53.4068 32.7095 53.4492 32.4889 53.5341 32.2682C53.6191 32.1212 53.7041 31.9741 53.789 31.827C53.8739 31.7535 54.0437 31.6799 54.2984 31.6064C54.4682 31.6064 54.6805 31.6064 54.9352 31.6064H58.756C59.0107 31.6064 59.223 31.6064 59.3928 31.6064C59.5626 31.6799 59.7323 31.7535 59.9021 31.827C59.9871 31.9741 60.0721 32.1212 60.157 32.2682C60.157 32.4889 60.157 32.7095 60.157 32.9302V35.4674C60.157 35.688 60.157 35.8718 60.157 36.0189C60.0721 36.2396 59.9871 36.3867 59.9021 36.4602C59.7323 36.5337 59.5626 36.6072 59.3928 36.6808C59.223 36.7543 59.0107 36.7911 58.756 36.7911H54.9352C54.6805 36.7911 54.4682 36.7543 54.2984 36.6808C54.0437 36.6072 53.8739 36.5337 53.789 36.4602C53.7041 36.3867 53.6191 36.2396 53.5341 36.0189C53.4492 35.8718 53.4068 35.688 53.4068 35.4674V32.9302ZM55.0626 35.5776H58.6285V32.7095H55.0626V35.5776ZM64.6146 32.9302H63.4683V31.9373H63.5956L66.0155 31.6064H66.1428V36.9014H64.6146V32.9302ZM75.9496 36.7911C75.4402 36.7911 75.0581 36.7176 74.8034 36.5705C74.7185 36.497 74.6334 36.3498 74.5485 36.1292C74.4636 36.0557 74.4212 35.9086 74.4212 35.688V35.1364H74.676L75.8221 34.9158L76.077 34.8055V35.5776H78.8788C78.9637 35.5776 79.0061 35.5776 79.0061 35.5776C79.091 35.5776 79.1336 35.5776 79.1336 35.5776C79.1336 35.5041 79.1336 35.4674 79.1336 35.4674C79.1336 35.4674 79.1336 35.4306 79.1336 35.3571V34.9158C79.1336 34.8422 79.1336 34.8055 79.1336 34.8055C79.1336 34.732 79.1336 34.6951 79.1336 34.6951C79.1336 34.6951 79.091 34.6951 79.0061 34.6951C79.0061 34.6951 78.9637 34.6951 78.8788 34.6951H76.7138V33.592H78.6242C78.7091 33.592 78.7939 33.592 78.8788 33.592C78.8788 33.5185 78.8788 33.4817 78.8788 33.4817C78.8788 33.4082 78.8788 33.3346 78.8788 33.2611V33.0404C78.8788 32.9669 78.8788 32.9302 78.8788 32.9302C78.8788 32.8566 78.8788 32.8198 78.8788 32.8198C78.7939 32.8198 78.7091 32.8198 78.6242 32.8198H76.077V33.4817L75.8221 33.3714L74.676 33.2611L74.5485 33.1508V32.7095C74.5485 32.3418 74.676 32.0477 74.9307 31.827C75.0156 31.7535 75.143 31.7167 75.3128 31.7167C75.5675 31.6431 75.8222 31.6064 76.077 31.6064H79.0061C79.6005 31.6064 79.9826 31.6799 80.1524 31.827C80.3222 31.9741 80.4072 32.1212 80.4072 32.2682C80.4921 32.4153 80.5346 32.5624 80.5346 32.7095V33.1508C80.5346 33.2979 80.4921 33.4449 80.4072 33.592C80.4072 33.7391 80.3646 33.8494 80.2797 33.9229C80.1948 33.9965 80.11 34.0333 80.0251 34.0333C80.1949 34.1068 80.3223 34.1804 80.4072 34.2539C80.4921 34.3275 80.577 34.4378 80.6619 34.5849C80.7468 34.7319 80.7892 34.879 80.7892 35.0261V35.5776C80.7892 35.7983 80.7468 35.9821 80.6619 36.1292C80.577 36.2763 80.4921 36.4234 80.4072 36.5705C80.2374 36.644 80.0676 36.6808 79.8978 36.6808C79.7279 36.7543 79.4733 36.7911 79.1336 36.7911H75.9496ZM83.0818 34.4745L83.3364 31.827L83.4637 31.6064H88.6856L88.5581 31.827V32.5992L88.4308 32.8198H84.61L84.4827 33.3714C84.6525 33.3714 84.8223 33.3346 84.9922 33.2611C85.162 33.2611 85.3318 33.2611 85.5016 33.2611C85.6714 33.2611 85.8411 33.2611 86.0109 33.2611C86.2657 33.2611 86.4355 33.2611 86.5204 33.2611C87.0299 33.2611 87.4544 33.2978 87.794 33.3714C88.1336 33.4449 88.4309 33.5553 88.6856 33.7024C88.9403 33.8495 89.1526 34.0333 89.3224 34.2539C89.4922 34.4746 89.5771 34.7319 89.5771 35.0261C89.5771 35.3938 89.4922 35.688 89.3224 35.9086C89.1526 36.1293 88.9403 36.3131 88.6856 36.4602C88.4309 36.6073 88.0912 36.7176 87.6667 36.7911C87.2421 36.8647 86.7752 36.9014 86.2658 36.9014C86.011 36.9014 85.7138 36.8647 85.3741 36.7911C85.1194 36.7911 84.9072 36.7911 84.7373 36.7911C84.4826 36.7911 84.2704 36.7911 84.1005 36.7911C83.8458 36.7176 83.6336 36.6808 83.4637 36.6808H83.3364V36.5705L83.0818 35.5776L82.9544 35.3571H83.3364C83.5911 35.4306 83.8458 35.4674 84.1005 35.4674C84.3553 35.5409 84.6101 35.5776 84.8648 35.5776C85.1195 35.5776 85.3318 35.5776 85.5016 35.5776C85.7563 35.5776 86.011 35.5776 86.2658 35.5776C86.6054 35.5776 86.8601 35.5776 87.0299 35.5776C87.2846 35.5776 87.4544 35.5409 87.5394 35.4674C87.7092 35.3938 87.794 35.3203 87.794 35.2467C87.8789 35.1732 87.9213 35.0996 87.9213 35.0261C87.9213 34.9525 87.8789 34.879 87.794 34.8055C87.794 34.732 87.7516 34.6584 87.6667 34.5849C87.4969 34.5113 87.327 34.4745 87.1572 34.4745C86.9025 34.4745 86.6054 34.4745 86.2658 34.4745C86.0959 34.4745 85.8837 34.4745 85.629 34.4745C85.3742 34.4745 85.1195 34.4745 84.8648 34.4745C84.6101 34.4745 84.3553 34.5113 84.1005 34.5849C83.8458 34.5849 83.5911 34.6216 83.3364 34.6951H83.0818V34.4745ZM95.0536 35.688H90.8507V34.6951L90.978 34.5849L95.0536 31.6064H95.181H96.7092V34.5849H97.9828V35.688H96.7092V36.9014H95.0536V35.688ZM95.0536 34.4745V32.9302L92.7611 34.4745H95.0536ZM104.096 38.8871H98.365V37.8943H104.096V38.8871ZM104.733 32.3786H108.044C108.469 32.3786 108.893 32.4153 109.318 32.4889C109.658 32.5624 109.955 32.7095 110.209 32.9302C110.464 33.0772 110.676 33.2978 110.846 33.592C110.931 33.8862 110.974 34.1803 110.974 34.4745C110.974 34.8422 110.889 35.1732 110.719 35.4674C110.634 35.7615 110.422 35.9821 110.082 36.1292C109.827 36.3498 109.53 36.497 109.191 36.5705C108.766 36.644 108.299 36.6808 107.79 36.6808H104.733V32.3786ZM106.261 35.5776H107.535C107.874 35.5776 108.172 35.5409 108.426 35.4674C108.681 35.4674 108.893 35.4306 109.063 35.3571C109.318 35.21 109.445 34.9158 109.445 34.4745C109.445 34.3274 109.403 34.1804 109.318 34.0333C109.318 33.8862 109.233 33.7759 109.063 33.7024C108.978 33.6288 108.851 33.5553 108.681 33.4817C108.511 33.4817 108.299 33.4817 108.044 33.4817H106.261V35.5776ZM114.285 33.3714C114.37 33.3714 114.455 33.3346 114.54 33.2611C114.709 33.2611 114.922 33.2611 115.176 33.2611C115.346 33.2611 115.558 33.2611 115.813 33.2611C115.983 33.2611 116.153 33.2611 116.323 33.2611C116.832 33.2611 117.257 33.2611 117.596 33.2611C117.851 33.3346 118.106 33.4082 118.36 33.4817C118.53 33.6288 118.658 33.7759 118.743 33.9229C118.827 34.1436 118.87 34.3642 118.87 34.5849V35.2467C118.87 35.7615 118.7 36.1292 118.36 36.3499C118.191 36.4234 117.978 36.497 117.724 36.5705C117.469 36.644 117.172 36.6808 116.832 36.6808H114.412C114.073 36.6808 113.776 36.644 113.521 36.5705C113.266 36.497 113.054 36.3867 112.884 36.2396C112.714 36.166 112.587 35.9822 112.502 35.688C112.417 35.5409 112.375 35.3202 112.375 35.0261V34.3642C112.375 33.8494 112.502 33.4082 112.757 33.0404C112.926 32.6727 113.181 32.3786 113.521 32.158C113.945 31.8638 114.412 31.6432 114.922 31.4961C115.431 31.4226 116.026 31.3857 116.705 31.3857C116.79 31.3857 116.875 31.3857 116.959 31.3857C117.044 31.3857 117.087 31.3857 117.087 31.3857H117.214H117.342L118.106 32.158L118.36 32.4889H117.596C117.002 32.4889 116.493 32.5257 116.068 32.5992C115.643 32.5992 115.304 32.6727 115.049 32.8198C114.794 32.8933 114.582 33.0037 114.412 33.1508C114.327 33.2243 114.285 33.2978 114.285 33.3714ZM114.03 34.4745C114.03 34.4745 114.03 34.5113 114.03 34.5849C114.03 34.8055 114.03 34.9893 114.03 35.1364C114.115 35.21 114.158 35.2467 114.158 35.2467C114.243 35.3203 114.327 35.3571 114.412 35.3571C114.582 35.4306 114.752 35.4674 114.922 35.4674H116.577C116.747 35.4674 116.875 35.4306 116.959 35.3571C117.044 35.3571 117.129 35.3571 117.214 35.3571C117.214 35.2835 117.257 35.2467 117.342 35.2467C117.342 35.1732 117.342 35.0996 117.342 35.0261V34.8055C117.342 34.6584 117.299 34.5849 117.214 34.5849C117.214 34.5113 117.214 34.4745 117.214 34.4745C117.129 34.401 117.002 34.3642 116.832 34.3642C116.747 34.3642 116.577 34.3642 116.323 34.3642C116.068 34.3642 115.856 34.3642 115.686 34.3642C115.516 34.3642 115.304 34.3642 115.049 34.3642C114.879 34.3642 114.709 34.401 114.54 34.4745C114.37 34.4745 114.2 34.4745 114.03 34.4745ZM124.601 35.5776H120.398V34.4745H120.526L124.728 31.4961V31.3857H126.257V34.3642H127.53V35.5776H126.257V36.6808H124.601V35.5776ZM124.601 34.4745V32.8198L122.436 34.4745H124.601ZM130.842 36.4602L133.644 32.7095H130.587V33.7024H130.332L129.059 33.4817H128.931V31.4961H135.554V32.4889L132.625 36.6808L132.497 36.7911H130.587L130.842 36.4602ZM6.28363 42.4171H2.59016V45.0647H6.28363V44.4027H4.11857V43.1893H7.93937V45.0647C7.93937 45.2853 7.89695 45.4691 7.81204 45.6162C7.81204 45.8368 7.72704 45.9839 7.55723 46.0574C7.47232 46.2045 7.30248 46.2781 7.04776 46.2781C6.87794 46.3516 6.62325 46.3884 6.28363 46.3884H2.46283C2.20811 46.3884 1.99584 46.3516 1.82603 46.2781C1.57131 46.2781 1.40146 46.2045 1.31656 46.0574C1.14674 45.9839 1.01948 45.8368 0.93457 45.6162C0.93457 45.4691 0.93457 45.2853 0.93457 45.0647V42.5275C0.93457 42.3068 0.93457 42.123 0.93457 41.9759C1.01948 41.7553 1.14674 41.6081 1.31656 41.5346C1.40146 41.3875 1.57131 41.314 1.82603 41.314C1.99584 41.2404 2.20811 41.2037 2.46283 41.2037H6.28363C6.62325 41.2037 6.87794 41.2404 7.04776 41.314C7.30248 41.314 7.47232 41.3875 7.55723 41.5346C7.72704 41.6081 7.81204 41.7184 7.81204 41.8655C7.89695 42.0126 7.93937 42.2333 7.93937 42.5275V42.748H7.81204L6.53844 42.9687H6.28363V42.4171ZM10.3592 42.3068C10.3592 42.1597 10.3592 42.0126 10.3592 41.8655C10.4441 41.7184 10.529 41.5714 10.6139 41.4243C10.7837 41.3508 10.9536 41.314 11.1234 41.314C11.2932 41.2404 11.5054 41.2037 11.7602 41.2037H14.6894C15.1988 41.2037 15.5809 41.2772 15.8356 41.4243C15.9205 41.5714 16.0055 41.7184 16.0904 41.8655C16.0904 42.0126 16.0904 42.1597 16.0904 42.3068V42.6377C16.0904 42.7848 16.0904 42.8951 16.0904 42.9687C16.0904 43.1158 16.0479 43.2261 15.963 43.2996C15.963 43.3731 15.8781 43.4467 15.7083 43.5202C15.6234 43.5938 15.496 43.6673 15.3262 43.7409L12.6516 45.1749H14.9442V44.4027L15.1988 44.5131L16.2178 44.7337H16.4724V45.2853C16.4724 45.5059 16.43 45.6898 16.3451 45.8369C16.2602 45.9839 16.1753 46.0942 16.0904 46.1678C16.0055 46.2413 15.8357 46.3149 15.581 46.3884C15.4112 46.3884 15.1989 46.3884 14.9442 46.3884H10.1044V45.8369C10.1044 45.6898 10.1044 45.5794 10.1044 45.5059C10.1044 45.3588 10.1468 45.2485 10.2318 45.1749C10.3167 45.1014 10.4017 45.0278 10.4866 44.9543C10.5715 44.8808 10.6987 44.8073 10.8686 44.7337L14.562 42.748V42.4171H11.8875V43.4099H11.6328L10.4866 43.1893L10.3592 43.079V42.3068ZM20.1659 46.1678L22.9678 42.4171H19.9112V43.4099H19.6564L18.5102 43.2996L18.2555 43.1893V41.2037H24.8782V42.1965V42.3068L21.949 46.3884V46.4987H20.0386L20.1659 46.1678ZM28.4443 46.1678L31.2462 42.3068H28.1896V43.4099H27.9348L26.7886 43.1893H26.5339V41.2037H33.1566V42.1965L30.2274 46.3884H30.1H28.1896L28.4443 46.1678ZM39.3972 41.2037H43.218C43.7275 41.2037 44.1944 41.2772 44.6189 41.4243C45.0435 41.4979 45.3832 41.6449 45.6379 41.8655C45.9775 42.0862 46.2322 42.3803 46.402 42.748C46.4869 43.0422 46.5293 43.3732 46.5293 43.7409C46.5293 44.035 46.5293 44.2556 46.5293 44.4027C46.4444 44.6234 46.3596 44.844 46.2747 45.0647C46.1049 45.2853 45.935 45.4691 45.7652 45.6162C45.5954 45.7633 45.4256 45.8736 45.2557 45.9471C45.0859 46.0207 44.9162 46.0942 44.7464 46.1678C44.5766 46.2413 44.4068 46.2781 44.237 46.2781C44.0672 46.3516 43.8549 46.3884 43.6002 46.3884C43.3454 46.3884 43.0908 46.3884 42.836 46.3884H39.3972V41.2037ZM41.053 45.0647H42.5812C43.0058 45.0647 43.3454 45.0647 43.6002 45.0647C43.9398 44.9911 44.1945 44.9176 44.3643 44.844C44.5341 44.6969 44.6615 44.5498 44.7464 44.4027C44.8313 44.2556 44.8738 44.035 44.8738 43.7409C44.8738 43.2996 44.7039 42.9687 44.3643 42.748C44.2794 42.6745 44.1095 42.601 43.8548 42.5275C43.685 42.4539 43.4727 42.4171 43.218 42.4171H41.053V45.0647ZM52.8973 44.5131C52.8124 44.5131 52.7276 44.5131 52.6427 44.5131C52.4729 44.5131 52.2606 44.5131 52.0059 44.5131C51.8361 44.5131 51.6662 44.5498 51.4964 44.6234C51.2417 44.6234 51.0294 44.6234 50.8596 44.6234C50.3502 44.6234 49.9256 44.5866 49.586 44.5131C49.2464 44.4395 48.9917 44.366 48.8219 44.2924C48.6521 44.1454 48.5247 43.9982 48.4397 43.8512C48.3548 43.6305 48.3124 43.4099 48.3124 43.1893V42.5275C48.3124 42.3068 48.3548 42.123 48.4397 41.9759C48.5247 41.7553 48.6521 41.6081 48.8219 41.5346C48.9917 41.3875 49.204 41.2772 49.4587 41.2037C49.7134 41.2037 50.0105 41.2037 50.3501 41.2037H52.6427C53.0672 41.2037 53.4069 41.2037 53.6616 41.2037C53.9164 41.2772 54.1286 41.3875 54.2984 41.5346C54.4682 41.6817 54.5955 41.8655 54.6804 42.0862C54.7653 42.3068 54.8077 42.5642 54.8077 42.8584V43.4099C54.8077 43.9247 54.6805 44.366 54.4258 44.7337C54.2559 45.1014 53.9587 45.4323 53.5341 45.7265C53.1945 45.9471 52.77 46.131 52.2605 46.2781C51.7511 46.4252 51.1569 46.4987 50.4776 46.4987C50.3927 46.4987 50.3077 46.4987 50.2228 46.4987C50.1379 46.4987 50.0955 46.462 50.0955 46.3884C50.0955 46.3884 50.0531 46.3884 49.9682 46.3884H49.8408L49.0765 45.6162L48.8219 45.2853H49.586C50.1804 45.2853 50.6899 45.2853 51.1144 45.2853C51.539 45.2117 51.8785 45.1382 52.1332 45.0647C52.3879 44.9911 52.6002 44.8808 52.77 44.7337C52.77 44.6602 52.8124 44.5866 52.8973 44.5131ZM53.1522 43.2996C53.1522 43.2996 53.1522 43.2628 53.1522 43.1893C53.1522 42.9687 53.1522 42.7848 53.1522 42.6377C53.0673 42.5642 53.0248 42.4906 53.0248 42.4171C52.9399 42.4171 52.8549 42.4171 52.77 42.4171C52.6002 42.3436 52.4304 42.3068 52.2605 42.3068H50.605C50.4351 42.3068 50.3077 42.3436 50.2228 42.4171C50.1379 42.4171 50.0531 42.4171 49.9682 42.4171C49.9682 42.4171 49.9257 42.4539 49.8408 42.5275C49.8408 42.601 49.8408 42.6745 49.8408 42.748V43.079C49.8408 43.2261 49.8833 43.2996 49.9682 43.2996C50.0531 43.3731 50.1379 43.4099 50.2228 43.4099C50.3926 43.4099 50.6049 43.4099 50.8596 43.4099C51.0294 43.4099 51.1993 43.4099 51.3691 43.4099C51.6238 43.4099 51.8361 43.4099 52.0059 43.4099C52.1757 43.4099 52.388 43.4099 52.6427 43.4099C52.8125 43.4099 52.9823 43.3731 53.1522 43.2996ZM61.5579 41.2037C62.0673 41.2037 62.4494 41.2772 62.7042 41.4243C62.7891 41.4979 62.8739 41.6082 62.9588 41.7552C62.9588 41.9023 62.9588 42.0862 62.9588 42.3068V42.748C62.9588 42.8951 62.9588 43.0422 62.9588 43.1893C62.8739 43.2628 62.7891 43.3731 62.7042 43.5202C62.6193 43.5202 62.5343 43.557 62.4493 43.6306C62.6192 43.7041 62.7466 43.7776 62.8315 43.8512C62.9164 43.9247 63.0012 44.0351 63.0861 44.1822C63.0861 44.3292 63.0861 44.4763 63.0861 44.6234V45.1749C63.0861 45.322 63.0861 45.5059 63.0861 45.7265C63.0012 45.8736 62.9164 45.9839 62.8315 46.0574C62.6617 46.131 62.4918 46.2045 62.322 46.2781C62.0673 46.3516 61.8126 46.3884 61.5579 46.3884H57.9917C57.737 46.3884 57.5248 46.3516 57.3549 46.2781C57.1002 46.2045 56.9305 46.131 56.8456 46.0574C56.6758 45.9839 56.5908 45.8736 56.5908 45.7265C56.5059 45.5059 56.4635 45.322 56.4635 45.1749V44.6234C56.4635 44.4763 56.5059 44.3292 56.5908 44.1822C56.5908 44.0351 56.6758 43.9247 56.8456 43.8512C56.9305 43.7776 57.0154 43.7041 57.1003 43.6306C57.0154 43.557 56.9305 43.5202 56.8456 43.5202C56.7607 43.3731 56.6757 43.2628 56.5908 43.1893C56.5908 43.0422 56.5908 42.8951 56.5908 42.748V42.3068C56.5908 42.0862 56.6332 41.9023 56.7181 41.7552C56.7181 41.6082 56.8031 41.4979 56.973 41.4243C57.0579 41.3508 57.1851 41.2772 57.3549 41.2037C57.5248 41.2037 57.7796 41.2037 58.1192 41.2037H61.5579ZM61.0484 42.3068H58.5012C58.3314 42.3068 58.2466 42.3436 58.2466 42.4171C58.1617 42.4171 58.1192 42.4171 58.1192 42.4171C58.1192 42.4906 58.1192 42.5642 58.1192 42.6377V42.8584C58.1192 42.9319 58.1192 42.9687 58.1192 42.9687C58.1192 43.0422 58.1617 43.079 58.2466 43.079C58.3315 43.079 58.4163 43.079 58.5012 43.079H61.0484C61.1333 43.079 61.2183 43.079 61.3032 43.079C61.3881 43.079 61.4306 43.0422 61.4306 42.9687C61.4306 42.9687 61.4306 42.9319 61.4306 42.8584V42.6377C61.4306 42.5642 61.4306 42.4906 61.4306 42.4171C61.4306 42.4171 61.3881 42.4171 61.3032 42.4171C61.3032 42.4171 61.3032 42.3804 61.3032 42.3068C61.2183 42.3068 61.1333 42.3068 61.0484 42.3068ZM61.1757 44.2924H58.3739C58.289 44.2924 58.2041 44.2924 58.1192 44.2924C58.1192 44.2924 58.0767 44.2924 57.9917 44.2924C57.9917 44.366 57.9917 44.4395 57.9917 44.5131V44.844C57.9917 44.9176 57.9917 44.9911 57.9917 45.0647C58.0767 45.0647 58.1192 45.0647 58.1192 45.0647C58.2041 45.0647 58.289 45.0647 58.3739 45.0647H61.1757C61.2607 45.0647 61.3456 45.0647 61.4306 45.0647C61.4306 45.0647 61.473 45.0647 61.5579 45.0647C61.5579 44.9911 61.5579 44.9176 61.5579 44.844V44.5131C61.5579 44.4395 61.5579 44.366 61.5579 44.2924C61.473 44.2924 61.4306 44.2924 61.4306 44.2924C61.3456 44.2924 61.2607 44.2924 61.1757 44.2924ZM73.5298 43.9615L73.7844 41.314V41.2037H79.0061V41.314L78.8788 42.1965V42.3068H75.058L74.9307 42.8584C75.1005 42.8584 75.2279 42.8584 75.3128 42.8584C75.5675 42.8584 75.7798 42.8584 75.9496 42.8584C76.1194 42.8584 76.2891 42.8216 76.4589 42.748C76.6288 42.748 76.7986 42.748 76.9684 42.748C77.4779 42.748 77.9024 42.7848 78.242 42.8584C78.5816 42.9319 78.8789 43.0422 79.1336 43.1893C79.3883 43.4099 79.6006 43.6305 79.7704 43.8512C79.8553 44.0718 79.8978 44.3292 79.8978 44.6234C79.8978 44.9175 79.8553 45.175 79.7704 45.3956C79.6006 45.6162 79.3883 45.8001 79.1336 45.9471C78.8789 46.0942 78.5392 46.2045 78.1147 46.2781C77.6901 46.3516 77.2232 46.3884 76.7138 46.3884C76.3741 46.3884 76.0769 46.3884 75.8221 46.3884C75.5674 46.3884 75.3127 46.3884 75.058 46.3884C74.8882 46.3149 74.6759 46.2781 74.4212 46.2781C74.2514 46.2781 74.0816 46.2413 73.9117 46.1678H73.7844V46.0574L73.5298 45.1749L73.4024 44.844L73.7844 44.9543C74.0391 44.9543 74.2938 44.9911 74.5485 45.0647C74.8033 45.0647 75.0581 45.0647 75.3128 45.0647C75.4826 45.1382 75.6949 45.1749 75.9496 45.1749C76.2043 45.1749 76.4166 45.1749 76.5864 45.1749C76.9261 45.1749 77.2232 45.1749 77.4779 45.1749C77.7326 45.1014 77.9025 45.0278 77.9874 44.9543C78.0723 44.9543 78.1571 44.9176 78.242 44.844C78.3269 44.7705 78.3693 44.6602 78.3693 44.5131C78.3693 44.4395 78.3269 44.366 78.242 44.2924C78.1571 44.2189 78.0723 44.1822 77.9874 44.1822C77.9025 44.1086 77.7326 44.0718 77.4779 44.0718C77.3081 43.9983 77.0534 43.9615 76.7138 43.9615C76.459 43.9615 76.2468 43.9615 76.077 43.9615C75.8222 44.0351 75.5675 44.0718 75.3128 44.0718C75.0581 44.0718 74.8033 44.0718 74.5485 44.0718C74.2938 44.1453 73.9967 44.1822 73.6571 44.1822H73.4024L73.5298 43.9615ZM82.0628 42.3068C82.0628 42.0862 82.0628 41.9023 82.0628 41.7552C82.1477 41.6082 82.2327 41.4979 82.3176 41.4243C82.4874 41.3508 82.6571 41.2772 82.8269 41.2037C82.9968 41.2037 83.209 41.2037 83.4637 41.2037H86.3931C86.9025 41.2037 87.2846 41.2772 87.5394 41.4243C87.6243 41.4979 87.7091 41.6082 87.794 41.7552C87.794 41.9023 87.794 42.0862 87.794 42.3068V42.6377C87.794 42.7113 87.794 42.8216 87.794 42.9687C87.794 43.0422 87.7516 43.1158 87.6667 43.1893C87.6667 43.2628 87.5818 43.3731 87.412 43.5202C87.3271 43.5938 87.1997 43.6673 87.0299 43.7409L84.3554 45.0647H86.6477V44.2924L86.9025 44.4027L87.9213 44.6234L88.0488 44.7337V45.1749C88.0488 45.3956 88.0488 45.5794 88.0488 45.7265C87.9639 45.8736 87.8789 45.9839 87.794 46.0574C87.7091 46.2045 87.5393 46.2781 87.2845 46.2781C87.1147 46.3516 86.9025 46.3884 86.6477 46.3884H81.8082V45.7265C81.8082 45.5794 81.8082 45.4691 81.8082 45.3956C81.8082 45.322 81.8506 45.2485 81.9355 45.1749C82.0204 45.1014 82.1052 45.0278 82.1901 44.9543C82.275 44.8808 82.4025 44.8073 82.5723 44.7337L86.2658 42.748V42.3068H83.5912V43.4099L83.3364 43.2996L82.1901 43.079H82.0628V42.3068ZM91.8696 42.9687C91.9545 42.9687 92.0394 42.9687 92.1243 42.9687C92.379 42.9687 92.5913 42.9687 92.7611 42.9687C92.9309 42.9687 93.1432 42.9319 93.3979 42.8584C93.5677 42.8584 93.78 42.8584 94.0347 42.8584C94.4592 42.8584 94.8413 42.8951 95.181 42.9687C95.5206 43.0422 95.7753 43.1158 95.9451 43.1893C96.1149 43.3364 96.2847 43.4835 96.4546 43.6306C96.5395 43.8512 96.5819 44.0718 96.5819 44.2924V44.9543C96.5819 45.3956 96.3696 45.7633 95.9451 46.0574C95.7753 46.131 95.563 46.2045 95.3083 46.2781C95.0536 46.2781 94.7564 46.2781 94.4168 46.2781H92.1243C91.6997 46.2781 91.3601 46.2781 91.1053 46.2781C90.8506 46.2045 90.6384 46.0942 90.4685 45.9471C90.2987 45.8001 90.1715 45.6162 90.0866 45.3956C90.0866 45.175 90.0866 44.9175 90.0866 44.6234V44.0718C90.0866 43.557 90.1714 43.1157 90.3412 42.748C90.511 42.3803 90.8083 42.0494 91.2328 41.7552C91.5724 41.5346 91.997 41.3508 92.5064 41.2037C93.1008 41.0566 93.7376 40.983 94.4168 40.983C94.4168 40.983 94.4592 40.983 94.5442 40.983C94.5442 40.983 94.5866 41.0198 94.6715 41.0933C94.6715 41.0933 94.7139 41.0933 94.7988 41.0933H94.9261L95.6904 41.8655L95.9451 42.1965H95.181C94.5866 42.1965 94.0771 42.2333 93.6525 42.3068C93.228 42.3068 92.8885 42.3436 92.6338 42.4171C92.4639 42.4906 92.2941 42.6009 92.1243 42.748C92.0394 42.8216 91.9545 42.8951 91.8696 42.9687ZM91.6148 44.1822C91.6148 44.1822 91.6148 44.2189 91.6148 44.2924C91.6148 44.5131 91.6572 44.6602 91.7421 44.7337C91.7421 44.8808 91.7421 44.9543 91.7421 44.9543C91.827 45.0278 91.912 45.0647 91.9969 45.0647C92.1668 45.0647 92.379 45.0647 92.6338 45.0647H94.162C94.3318 45.0647 94.4592 45.0647 94.5442 45.0647C94.714 45.0647 94.7988 45.0278 94.7988 44.9543C94.8837 44.9543 94.9261 44.9543 94.9261 44.9543C94.9261 44.8808 94.9261 44.8073 94.9261 44.7337V44.4027C94.9261 44.3292 94.9261 44.2557 94.9261 44.1822C94.9261 44.1822 94.8837 44.1822 94.7988 44.1822C94.7139 44.1086 94.6291 44.0718 94.5442 44.0718C94.3743 44.0718 94.1621 44.0718 93.9073 44.0718C93.7375 44.0718 93.5677 44.0718 93.3979 44.0718C93.1432 44.0718 92.9309 44.0718 92.7611 44.0718C92.5064 44.0718 92.2941 44.0718 92.1243 44.0718C91.9545 44.0718 91.7846 44.1086 91.6148 44.1822Z" fill="white"/>
</svg>
