<svg width="775" height="261" viewBox="0 0 775 261" fill="none" xmlns="http://www.w3.org/2000/svg">
<path d="M487.74 37.4861H477.03L468.201 23.2449H465.068L466.891 14.7002H483.98L485.176 9.00371H465.239L459.2 37.4861H450.656L458.517 0.458984L495.544 0.458984L490.702 23.2449H479.537L487.74 37.4861Z" fill="white"/>
<path d="M441.086 28.9414L447.124 0.458984L455.669 0.458984L447.807 37.4861H410.78L418.641 0.458984L427.186 0.458984L421.148 28.9414H441.086Z" fill="white"/>
<path d="M378.766 0.458984L415.793 0.458984L407.932 37.4861H370.905L378.766 0.458984ZM385.488 9.00371L381.272 28.9414H401.21L405.425 9.00371H385.488Z" fill="white"/>
<path d="M348.29 23.2449H334.049L338.891 0.458984L347.436 0.458984L344.416 14.7002H364.354L367.373 0.458984L375.918 0.458984L371.076 23.2449H356.835L353.816 37.4861H345.271L348.29 23.2449Z" fill="white"/>
<path d="M297.192 9.00371L291.154 37.4861H282.609L288.647 9.00371H274.406L276.229 0.458984L313.256 0.458984L311.433 9.00371H297.192Z" fill="white"/>
<path d="M265.577 37.4861H254.867L246.038 23.2449H242.905L244.728 14.7002H261.817L263.013 9.00371H243.076L237.037 37.4861H228.493L236.354 0.458984L273.381 0.458984L268.539 23.2449H257.374L265.577 37.4861Z" fill="white"/>
<path d="M225.645 37.4861H217.1L220.119 23.2449H200.182L197.162 37.4861H188.618L196.479 0.458984L233.506 0.458984L225.645 37.4861ZM221.942 14.7002L223.138 9.00371H203.201L202.004 14.7002H221.942Z" fill="white"/>
<path d="M177.566 9.00371L171.528 37.4861H162.983L169.021 9.00371H154.78L156.603 0.458984L193.63 0.458984L191.807 9.00371H177.566Z" fill="white"/>
<path d="M153.755 0.458984L151.932 9.00371H123.45L122.253 14.7002H150.736L145.894 37.4861H108.867L110.69 28.9414H139.172L140.368 23.2449H111.886L116.728 0.458984L153.755 0.458984Z" fill="white"/>
<path d="M606.808 97.1755H574.567L585.529 45.5898H604.873L598.038 77.8309H643.176L650.011 45.5898H669.355L658.394 97.1755H626.152L619.317 129.416H599.973L606.808 97.1755Z" fill="white"/>
<path d="M561.284 129.416H477.457L495.254 45.5898H579.081L574.954 64.9344H510.472L507.764 77.8309H572.246L568.119 97.1755H503.637L500.928 110.072H565.41L561.284 129.416Z" fill="white"/>
<path d="M418.133 74.3488L406.527 129.416H387.182L404.979 45.5898H425.871L457.725 100.657L469.461 45.5898H488.806L471.009 129.416H450.117L418.133 74.3488Z" fill="white"/>
<path d="M380.863 129.416H356.618L336.628 97.1755H329.535L333.662 77.8309H372.351L375.059 64.9344H329.922L316.252 129.416H296.907L314.704 45.5898H398.531L387.569 97.1755H362.292L380.863 129.416Z" fill="white"/>
<path d="M275.242 110.072L288.912 45.5898H308.256L290.459 129.416H206.633L224.43 45.5898H243.774L230.104 110.072H275.242Z" fill="white"/>
<path d="M134.155 45.5898H217.982L200.185 129.416H116.358L134.155 45.5898ZM149.373 64.9344L139.829 110.072H184.967L194.51 64.9344H149.373Z" fill="white"/>
<path d="M94.6919 110.072L108.362 45.5898H127.707L109.91 129.416H26.083L37.045 77.8309H56.3896L49.5545 110.072H94.6919Z" fill="white"/>
<path d="M774.66 138.338L768.658 166.475H674.869L670.929 185.232H764.719L748.774 260.264H626.849L632.851 232.127H726.64L730.579 213.369H636.79L652.734 138.338H774.66Z" fill="white"/>
<path d="M595.335 232.127L615.219 138.338H643.355L617.47 260.264H495.544L521.43 138.338H549.566L529.683 232.127H595.335Z" fill="white"/>
<path d="M422.134 260.264H393.997L403.939 213.369H338.286L328.345 260.264H300.208L326.094 138.338H354.231L344.289 185.232H409.941L419.883 138.338H448.02L422.134 260.264Z" fill="white"/>
<path d="M263.818 166.475L243.935 260.264H215.798L235.681 166.475H188.787L194.789 138.338H316.715L310.712 166.475H263.818Z" fill="white"/>
<path d="M159.524 260.264H131.388L157.273 138.338H185.41L159.524 260.264Z" fill="white"/>
<path d="M99.8745 232.127L119.758 138.338H147.895L122.009 260.264H0.0830078L25.9688 138.338H54.1055L34.2222 232.127H52.98L72.8633 138.338H101L81.1167 232.127H99.8745Z" fill="white"/>
</svg>
